<svg version="1.1" id="Layer_1" xmlns="http://www.w3.org/2000/svg" x="0" y="0" viewBox="0 0 350 73" xml:space="preserve"><style>.st0{fill:#373c43}</style><path class="st0" d="M73.5 58.8c0-1.1.2-2.8.5-4.8l3.8-19.5c.4-2.1.4-4.3 0-6.7-.4-2.3-1.2-4.2-2.5-5.5-1.7-1.8-4.2-3.1-7.2-3.7s-7-.9-12.1-.9c-2.6 0-4.3.1-6.6.4l-5.8 15 3.1.6.1-.2c1-1.8 2.1-3.1 3.2-3.8 1.5-.9 3.6-1.3 6.3-1.3 2 0 3.4.4 4 1.1s.7 2 .4 3.9c-2.2.8-4.2 1.4-6.1 1.9-2 .5-6.3 1.4-12.8 2.7-5.5 1.1-9.6 2.7-12 4.9l-.9.9c-1.9 2.1-3.2 4.6-3.8 7.6-.5 2.6-.2 4.9.7 6.9.4.9 1 1.7 1.7 2.4 2.3 2.5 6.2 3.8 11.5 3.8 4 0 7.6-.6 10.9-1.8 2.2-.9 4.6-2.2 7-4.1 0 .9 0 1.6.1 2.1.1.6.3 1.5.8 2.7l.1.2h16.6l-.1-.4c-.6-1.7-.9-3.2-.9-4.4zM58.6 45.1c-.4 2-1.1 3.7-2 5s-2.2 2.3-4 3.2c-1.7.9-3.5 1.3-5.4 1.3-1.7 0-2.9-.4-3.6-1.2-.7-.8-.9-1.7-.7-3 .2-1.1.8-2.1 1.9-2.9 1-.8 3.4-1.7 6.9-2.6 2.4-.6 4.8-1.3 7.2-2l-.3 2.2z"/><path class="st0" d="M113.7 63.7l6.2-31.7h6.8l-6.3 32 19.3-8.3L150 2.2h-11.5L134 18.9h-11.6c.3-1.7.6-2.8.9-3.4.5-1 1.1-1.8 1.8-2.3.7-.5 1.8-.7 3.2-.7 1.2 0 2.4.1 4.3.4l3-10.8c-5.5-.7-8.5-1-11.4-1-3.7 0-6.7.5-8.8 1.3-.9.4-1.7.8-2.3 1.4l-4.3 15.1H98c.3-1.7.6-2.8.9-3.4.5-1 1.1-1.8 1.8-2.3.7-.5 1.8-.7 3.2-.7 1.2 0 2 0 3.9.4l2.7-11c-4.7-.6-8-.8-10.6-.8-3.7 0-6.7.4-8.8 1.3-2.1.9-3.9 2-5.2 3.4-1.4 1.4-2.5 3.2-3.3 5.4s-1.4 4.2-1.8 6l-.3 1.7H74l-.2.9c1.5.7 2.8 1.5 3.8 2.6 1.2 1.3 2.1 3.1 2.5 5.5.4 2.3.4 4.6 0 6.7L76.3 54c-.4 2-.6 3.7-.5 4.8 0 1.1.3 2.6.8 4.4l.1.4h12.5L95.4 32h6.8L96 63.7h17.7zm-79-29.3c1.1 0 2.6.4 4.3 1.2l.3.1L45.1 19c-1.8-.7-3.6-1.1-5.4-1.1-2.4 0-4.6.6-6.5 1.8-1.6 1-3.3 2.8-5.1 5.2l1.2-6H12.7L4 63.7h17.7L24 51.3c1.4-7 3.2-11.8 5.3-14.3 1.5-1.7 3.3-2.6 5.4-2.6zm163.8 29.7c1.6.4 3.4.6 5.5.6 4 0 7.6-.6 10.9-1.8 2.2-.9 4.6-2.2 7-4.1 0 .9 0 1.6.1 2.1.1.6.3 1.5.8 2.7l.1.2h16.6l-.1-.4c-.5-1.8-.8-3.3-.8-4.4 0-1.1.2-2.8.5-4.8l1.7-8.6L200 57.7l-1.5 6.4zm44.2-29.5c.4-2.1.4-4.3 0-6.7-.4-2.3-1.2-4.2-2.5-5.5-1.7-1.8-4.2-3.1-7.2-3.7s-7-.9-12.1-.9c-3.2 0-6.2.2-9 .7-1.9.3-3.5.7-4.9 1.2L204.4 33l7.1.8.1-.2c1-1.8 2.1-3.1 3.2-3.8 1.5-.9 3.6-1.3 6.3-1.3 2 0 3.4.4 4 1.1s.7 2 .4 3.9c-2.2.8-4.2 1.4-6.1 1.9-2 .5-6.3 1.4-12.8 2.7-1.2.2-2.3.5-3.3.7l-1.9 9.7 40.6-9.9.7-4zm-63.5 29.1h17.6l1.1-5.6-18.7 5.5z"/><path class="st0" d="M208.8 2.2h-17.6l-4.7 24.4v.1s3.5 7.1.2 18.6c-1.2 4-2.4 6.1-3.9 7.7l-16.7-3-.1.1c-1.3 1.3-2.4 2.2-3.4 2.7-1.6.8-3.2 1.2-4.8 1.2-2.5 0-4.3-.9-5.5-2.7-.8-1.2-1.1-3.1-1-5.5h33.8l.4-2.2c1.1-5.8 1.1-10.7-.1-14.3-1.2-3.7-3.5-6.5-6.9-8.5-3.3-1.9-8.2-2.9-14.6-2.9-5.8 0-11 1.2-15.4 3.6l-7 36.1L108.7 72l91-22.8 9.1-47zm-52.9 29.5c1.9-2 4.2-3.1 6.8-3.1 2.2 0 3.9.7 4.9 2s1.5 3.5 1.2 6.4H153c.8-2.3 1.8-4.1 2.9-5.3zm128.2-7.8c-2.8-3.9-7-5.9-12.5-5.9-2.6 0-5.2.5-7.5 1.4-2.1.8-4 1.9-5.9 3.4l4-20.5h-17.8l-3.9 19.9.6.6c1.5 1.5 2.5 3.7 2.9 6.4.4 2.5.4 5 0 7.3l-.4 1.8L286 27.5c-.5-1.3-1.1-2.6-1.9-3.6zm-15.5 17c-.8 3.9-2 6.6-3.6 8.3-1.6 1.6-3.4 2.4-5.3 2.4-2.1 0-3.6-.8-4.6-2.4-1-1.6-1.2-4.3-.5-7.9l-12.1 3.6-2.1 10.8c-.5 2.4-.5 3.7-.5 4.4 0 .9.2 2.1.6 3.5h8.6l1.2-5.9c1.5 2.4 3.1 4 4.6 5 2.3 1.3 4.9 2 7.9 2 3.5 0 6.9-.9 10.1-2.8 3.2-1.8 6-4.6 8.4-8.3 2.3-3.7 4-8 4.9-12.8.6-3.3.8-6.3.6-9L269 37.1c0 1.1-.1 2.4-.4 3.8zm36.4-12c.8.6 1.6 2.3 1.7 3.6v.3l6.3-.9.8-.1 8.8-4.9 21.6-12.1-43.3 12.8c1.6.1 3 .5 4.1 1.3z"/><path class="st0" d="M295.8 29.2l-7.7 2.3c.5 3.2.4 6.9-.4 11-.2.8-.3 1.5-.5 2.3 2.3.7 5.4 1.4 9.5 2.1 3.7.7 6 1.3 6.8 1.7 1 .6 1.4 1.4 1.2 2.4-.2 1-.8 1.8-1.8 2.5-1.4.9-3.2 1.4-5.4 1.4-2 0-3.5-.4-4.5-1.2s-1.7-2.2-1.9-4.1v-.3l-5.4.5c-.9 2.2-1.9 4.3-3.1 6.2-1.3 2.1-2.8 3.9-4.4 5.4 3 2.3 8.6 3.5 16.7 3.5 5.7 0 10.4-.7 14.1-2.2 3.6-1.4 6.5-3.4 8.5-5.8s3.3-5 3.8-7.6.2-5-.9-7.1c-1.1-2.2-2.9-3.9-5.5-5-2.5-1.1-6.6-2-12.1-2.7-3.6-.4-5.8-.9-6.8-1.5-.9-.5-1.2-1.1-1-2.1-.1-.7.3-1.2.8-1.7zm18.9-9.9c-2.4-.8-6.3-1.2-11.5-1.2-5 0-9.1.5-12.3 1.6-2.5.8-4.7 2-6.5 3.5.3.4.6.7.9 1.1.7.9 1.2 1.9 1.7 3l29.4-7.4c-.6-.2-1.2-.4-1.7-.6z"/></svg>
