<svg xmlns="http://www.w3.org/2000/svg" xmlns:xlink="http://www.w3.org/1999/xlink" viewBox="0 0 456.67 383.2"><defs><style>.cls-1,.cls-10,.cls-11,.cls-12,.cls-13,.cls-14,.cls-15,.cls-16,.cls-2,.cls-3,.cls-4,.cls-5,.cls-6,.cls-7,.cls-8,.cls-9{fill:none;stroke-miterlimit:10;}.cls-1,.cls-2,.cls-3,.cls-4{stroke-width:6px;}.cls-1{stroke:url(#linear-gradient);}.cls-2{stroke:url(#linear-gradient-2);}.cls-3{stroke:url(#linear-gradient-3);}.cls-4{stroke:url(#linear-gradient-4);}.cls-5,.cls-6,.cls-7,.cls-9{stroke-width:2px;}.cls-5{stroke:url(#linear-gradient-5);}.cls-6{stroke:url(#linear-gradient-6);}.cls-7{stroke:url(#linear-gradient-7);}.cls-8{stroke-width:4px;stroke:url(#linear-gradient-8);}.cls-9{stroke:url(#linear-gradient-9);}.cls-10,.cls-11,.cls-12,.cls-13,.cls-14,.cls-15,.cls-16{stroke-width:0.75px;}.cls-10{stroke:url(#linear-gradient-10);}.cls-11{stroke:url(#linear-gradient-11);}.cls-12{stroke:url(#linear-gradient-12);}.cls-13{stroke:url(#linear-gradient-13);}.cls-14{stroke:url(#linear-gradient-14);}.cls-15{stroke:url(#linear-gradient-15);}.cls-16{stroke:url(#linear-gradient-16);}</style><linearGradient id="linear-gradient" x1="228.33" y1="9.67" x2="228.33" y2="9.67" gradientUnits="userSpaceOnUse"><stop offset="0" stop-color="#005380"/><stop offset="1" stop-color="#0299ae"/></linearGradient><linearGradient id="linear-gradient-2" x1="0" y1="255.12" x2="456.67" y2="255.12" xlink:href="#linear-gradient"/><linearGradient id="linear-gradient-3" x1="228.33" y1="110.33" x2="228.33" y2="110.33" xlink:href="#linear-gradient"/><linearGradient id="linear-gradient-4" x1="195.97" y1="98.33" x2="195.97" y2="98.33" xlink:href="#linear-gradient"/><linearGradient id="linear-gradient-5" x1="260.58" y1="204.85" x2="443.42" y2="204.85" gradientUnits="userSpaceOnUse"><stop offset="0" stop-color="#005380"/><stop offset="1" stop-color="#017194"/></linearGradient><linearGradient id="linear-gradient-6" x1="12.03" y1="204.69" x2="195.23" y2="204.69" xlink:href="#linear-gradient-5"/><linearGradient id="linear-gradient-7" x1="14.44" y1="302.79" x2="443.5" y2="302.79" xlink:href="#linear-gradient-5"/><linearGradient id="linear-gradient-8" x1="48.97" y1="85.5" x2="406.47" y2="85.5" xlink:href="#linear-gradient-5"/><linearGradient id="linear-gradient-9" x1="69.47" y1="50.17" x2="162.97" y2="50.17" xlink:href="#linear-gradient-5"/><linearGradient id="linear-gradient-10" x1="177.04" y1="395.5" x2="346.35" y2="395.5" gradientTransform="matrix(1, 0, 0, -1, 0, 422)" xlink:href="#linear-gradient-5"/><linearGradient id="linear-gradient-11" x1="177.04" y1="372.29" x2="371.85" y2="372.29" gradientTransform="matrix(1, 0, 0, -1, 0, 422)" xlink:href="#linear-gradient-5"/><linearGradient id="linear-gradient-12" x1="177.04" y1="349.07" x2="365.85" y2="349.07" gradientTransform="matrix(1, 0, 0, -1, 0, 422)" xlink:href="#linear-gradient-5"/><linearGradient id="linear-gradient-13" x1="70.1" y1="323.67" x2="331.85" y2="323.67" gradientTransform="matrix(1, 0, 0, -1, 0, 422)" xlink:href="#linear-gradient-5"/><linearGradient id="linear-gradient-14" x1="70.1" y1="298.06" x2="346.35" y2="298.06" gradientTransform="matrix(1, 0, 0, -1, 0, 422)" xlink:href="#linear-gradient-5"/><linearGradient id="linear-gradient-15" x1="68.1" y1="274.84" x2="369.35" y2="274.84" gradientTransform="matrix(1, 0, 0, -1, 0, 422)" xlink:href="#linear-gradient-5"/><linearGradient id="linear-gradient-16" x1="68.1" y1="251" x2="259.35" y2="251" gradientTransform="matrix(1, 0, 0, -1, 0, 422)" xlink:href="#linear-gradient-5"/></defs><title>Asset 6</title><g id="Layer_2" data-name="Layer 2"><g id="Capa_1" data-name="Capa 1"><path class="cls-1" d="M228.33,9.67"/><path class="cls-2" d="M44.39,130.32,3,155V368.2a12,12,0,0,0,12,12H441.67a12,12,0,0,0,12-12V155l-42.59-25.39"/><path class="cls-3" d="M228.33,110.33"/><path class="cls-4" d="M196,98.33"/><line class="cls-5" x1="261.03" y1="250.2" x2="442.97" y2="159.5"/><line class="cls-6" x1="12.47" y1="159.5" x2="194.79" y2="249.87"/><path class="cls-7" d="M443,367.5,237.36,240.93a18.28,18.28,0,0,0-19.25.05L15,367.5"/><path class="cls-8" d="M404.47,171V12.75A10.75,10.75,0,0,0,393.72,2h-332A10.75,10.75,0,0,0,51,12.75V171"/><rect class="cls-9" x="70.47" y="20.67" width="91.5" height="59" rx="9.58" ry="9.58"/><rect class="cls-10" x="177.42" y="20.12" width="168.55" height="12.76"/><rect class="cls-11" x="177.42" y="43.33" width="194.05" height="12.76"/><rect class="cls-12" x="177.42" y="66.55" width="188.05" height="12.76"/><rect class="cls-13" x="70.47" y="91.95" width="261" height="12.76"/><rect class="cls-14" x="70.47" y="117.56" width="275.5" height="12.76"/><rect class="cls-15" x="68.47" y="140.78" width="300.5" height="12.76"/><rect class="cls-16" x="68.47" y="164.62" width="190.5" height="12.76"/></g></g></svg>