<?xml version="1.0" encoding="utf-8"?>
<!-- Generator: Adobe Illustrator 16.0.0, SVG Export Plug-In . SVG Version: 6.00 Build 0)  -->
<!DOCTYPE svg PUBLIC "-//W3C//DTD SVG 1.1//EN" "http://www.w3.org/Graphics/SVG/1.1/DTD/svg11.dtd">
<svg version="1.1" id="Layer_2" xmlns="http://www.w3.org/2000/svg" xmlns:xlink="http://www.w3.org/1999/xlink" x="0px" y="0px"
	 width="212px" height="58px" viewBox="0 0 212 58" enable-background="new 0 0 212 58" xml:space="preserve">
<g>
	<path fill="#FFFFFF" d="M70.696,41.583c-1.368,0-2.73-0.042-4.086-0.126s-2.766-0.282-4.23-0.594V16.671
		c1.152-0.216,2.412-0.378,3.78-0.486c1.368-0.108,2.64-0.162,3.816-0.162c1.584,0,3.042,0.114,4.374,0.342
		c1.332,0.229,2.478,0.618,3.438,1.17c0.96,0.553,1.71,1.278,2.25,2.178s0.81,2.01,0.81,3.33c0,1.992-0.96,3.564-2.88,4.716
		c1.584,0.6,2.664,1.417,3.24,2.448c0.576,1.031,0.864,2.195,0.864,3.492c0,2.615-0.954,4.584-2.862,5.904
		C77.302,40.923,74.464,41.583,70.696,41.583z M67.852,26.103h2.736c1.728,0,2.964-0.222,3.708-0.666
		c0.744-0.444,1.116-1.158,1.116-2.142c0-1.008-0.384-1.716-1.152-2.124c-0.768-0.408-1.896-0.612-3.384-0.612
		c-0.48,0-0.996,0.006-1.548,0.018c-0.553,0.013-1.044,0.042-1.476,0.09V26.103z M67.852,30.387v6.443
		c0.408,0.049,0.852,0.085,1.332,0.109c0.479,0.023,1.008,0.035,1.584,0.035c1.68,0,3.036-0.239,4.068-0.72
		c1.032-0.479,1.548-1.368,1.548-2.664c0-1.151-0.432-1.974-1.296-2.466c-0.864-0.492-2.1-0.738-3.708-0.738H67.852z"/>
	<path fill="#FFFFFF" d="M109.432,28.767c0,2.137-0.318,4.015-0.954,5.634c-0.636,1.621-1.506,2.977-2.609,4.068
		c-1.104,1.092-2.418,1.914-3.942,2.466s-3.162,0.828-4.914,0.828c-1.704,0-3.312-0.276-4.823-0.828
		c-1.513-0.552-2.833-1.374-3.961-2.466s-2.016-2.447-2.663-4.068c-0.648-1.619-0.973-3.497-0.973-5.634
		c0-2.136,0.336-4.014,1.008-5.634s1.578-2.982,2.719-4.086c1.14-1.104,2.459-1.932,3.96-2.484c1.499-0.552,3.078-0.828,4.733-0.828
		c1.704,0,3.313,0.276,4.824,0.828s2.832,1.38,3.96,2.484c1.128,1.104,2.016,2.466,2.664,4.086S109.432,26.631,109.432,28.767z
		 M90.388,28.767c0,1.224,0.15,2.329,0.45,3.312c0.3,0.984,0.731,1.831,1.296,2.539c0.563,0.708,1.254,1.254,2.07,1.638
		c0.815,0.384,1.752,0.575,2.808,0.575c1.032,0,1.962-0.191,2.79-0.575s1.524-0.93,2.088-1.638c0.564-0.708,0.996-1.555,1.296-2.539
		c0.3-0.982,0.45-2.087,0.45-3.312c0-1.224-0.15-2.333-0.45-3.33c-0.3-0.996-0.731-1.848-1.296-2.556
		c-0.563-0.708-1.26-1.254-2.088-1.638c-0.828-0.383-1.758-0.576-2.79-0.576c-1.056,0-1.992,0.198-2.808,0.594
		c-0.816,0.396-1.507,0.948-2.07,1.656c-0.564,0.708-0.996,1.56-1.296,2.556C90.538,26.469,90.388,27.567,90.388,28.767z"/>
	<path fill="#FFFFFF" d="M129.88,36.435v4.824h-16.668V16.311h5.616v20.124H129.88z"/>
	<path fill="#FFFFFF" d="M154.432,28.767c0,2.16-0.337,4.044-1.009,5.652s-1.626,2.94-2.861,3.995
		c-1.236,1.057-2.742,1.85-4.519,2.377s-3.768,0.792-5.976,0.792c-1.008,0-2.185-0.042-3.528-0.126s-2.664-0.258-3.96-0.522v-24.3
		c1.296-0.24,2.646-0.401,4.05-0.486c1.404-0.084,2.61-0.126,3.618-0.126c2.136,0,4.074,0.24,5.814,0.72
		c1.739,0.48,3.233,1.236,4.481,2.268c1.248,1.032,2.208,2.353,2.88,3.96C154.095,24.579,154.432,26.511,154.432,28.767z
		 M138.195,36.688c0.264,0.023,0.569,0.041,0.918,0.053c0.348,0.013,0.762,0.019,1.242,0.019c2.808,0,4.89-0.708,6.246-2.124
		c1.355-1.416,2.033-3.371,2.033-5.868c0-2.615-0.647-4.595-1.943-5.94c-1.296-1.344-3.349-2.016-6.156-2.016
		c-0.384,0-0.78,0.006-1.188,0.018c-0.409,0.013-0.792,0.042-1.152,0.09V36.688z"/>
	<path fill="#FFFFFF" d="M158.211,16.311h5.616v24.948h-5.616V16.311z"/>
	<path fill="#FFFFFF" d="M185.424,41.259c-0.278-0.866-0.576-1.757-0.896-2.671s-0.638-1.823-0.954-2.729h-9.744
		c-0.314,0.91-0.631,1.821-0.947,2.736c-0.316,0.914-0.611,1.803-0.884,2.663h-5.832c0.938-2.688,1.829-5.171,2.672-7.452
		c0.842-2.279,1.666-4.428,2.473-6.444s1.602-3.93,2.384-5.742c0.782-1.812,1.595-3.582,2.438-5.31h5.323
		c0.82,1.728,1.628,3.499,2.424,5.31c0.795,1.813,1.598,3.726,2.405,5.742s1.634,4.165,2.478,6.444
		c0.844,2.281,1.735,4.765,2.676,7.452H185.424z M178.677,21.963c-0.126,0.362-0.309,0.855-0.55,1.479
		c-0.242,0.624-0.517,1.345-0.824,2.162c-0.309,0.817-0.653,1.717-1.034,2.7c-0.381,0.983-0.768,2.013-1.161,3.091h7.135
		c-0.383-1.082-0.752-2.115-1.109-3.101c-0.358-0.986-0.698-1.887-1.021-2.705c-0.322-0.817-0.604-1.538-0.848-2.161
		C179.022,22.805,178.826,22.317,178.677,21.963z"/>
	<path fill="#FFFFFF" d="M210.41,36.435v4.824h-16.668V16.311h5.616v20.124H210.41z"/>
</g>
<g>
	<g id="Layer_2_1_">
		<g>
			<path fill="#FCD14C" d="M50.65,16.155c-0.157-0.349-0.349-0.678-0.572-0.983C48.38,12.326,31.021,2.421,27.607,2.34
				c-0.2-0.022-0.402-0.034-0.607-0.034c-0.22,0-0.437,0.015-0.65,0.04c-3.615,0.257-20.601,9.981-22.385,12.84
				c-0.227,0.309-0.421,0.642-0.58,0.993c-1.658,2.959-1.659,23.195,0.031,25.772c0.134,0.283,0.291,0.553,0.469,0.808
				c1.45,2.736,18.857,12.696,22.445,12.896c0.22,0.027,0.443,0.042,0.67,0.042c0.306,0,0.606-0.026,0.898-0.074
				c0.064-0.011,0.128-0.021,0.192-0.034c0.014-0.003,0.028-0.006,0.042-0.009c0.077-0.017,0.156-0.035,0.239-0.056h0.001
				c4.724-1.186,19.904-9.97,21.65-12.693c0.272-0.362,0.501-0.759,0.678-1.183C52.252,38.201,52.246,19.097,50.65,16.155z"/>
		</g>
	</g>
	<g opacity="0.05">
		<path d="M50.078,15.175c-0.516-0.864-2.479-2.38-5.055-4.074L9.125,46.999c5.856,3.832,14.754,8.522,17.205,8.658
			c0.22,0.027,0.443,0.042,0.67,0.042c0.306,0,0.606-0.026,0.898-0.074c0.064-0.011,0.128-0.021,0.192-0.034
			c0.014-0.003,0.028-0.006,0.042-0.009c0.077-0.017,0.156-0.035,0.239-0.056h0.001c4.724-1.186,19.904-9.97,21.65-12.693
			c0.272-0.362,0.501-0.759,0.678-1.183c1.551-3.446,1.544-22.551-0.051-25.492C50.494,15.81,50.301,15.48,50.078,15.175z"/>
	</g>
	<g>
		<path fill="#FFFFFF" d="M26.625,39.653c-1.14,0-2.275-0.035-3.405-0.104c-1.13-0.07-2.305-0.235-3.525-0.495v-20.16
			c0.96-0.18,2.01-0.315,3.15-0.405c1.14-0.09,2.2-0.135,3.18-0.135c1.32,0,2.535,0.095,3.645,0.285
			c1.11,0.19,2.065,0.515,2.865,0.975c0.799,0.46,1.425,1.065,1.875,1.815c0.45,0.75,0.675,1.675,0.675,2.775
			c0,1.661-0.8,2.97-2.4,3.93c1.32,0.5,2.22,1.18,2.7,2.04c0.48,0.86,0.72,1.83,0.72,2.91c0,2.181-0.795,3.82-2.385,4.92
			C32.13,39.104,29.765,39.653,26.625,39.653z M24.255,26.754h2.28c1.44,0,2.47-0.185,3.09-0.555c0.62-0.37,0.93-0.965,0.93-1.785
			c0-0.84-0.32-1.43-0.96-1.77c-0.64-0.34-1.58-0.51-2.82-0.51c-0.4,0-0.83,0.005-1.29,0.015c-0.46,0.01-0.87,0.035-1.23,0.075
			V26.754z M24.255,30.323v5.371c0.34,0.039,0.71,0.07,1.11,0.09s0.84,0.029,1.32,0.029c1.399,0,2.53-0.199,3.39-0.6
			s1.29-1.141,1.29-2.221c0-0.959-0.36-1.645-1.08-2.055c-0.72-0.409-1.75-0.615-3.09-0.615H24.255z"/>
	</g>
</g>
</svg>
