<?xml version="1.0" encoding="utf-8"?>
<!-- Generator: Adobe Illustrator 16.0.0, SVG Export Plug-In . SVG Version: 6.00 Build 0)  -->
<!DOCTYPE svg PUBLIC "-//W3C//DTD SVG 1.1//EN" "http://www.w3.org/Graphics/SVG/1.1/DTD/svg11.dtd">
<svg version="1.1" id="Layer_1" xmlns="http://www.w3.org/2000/svg" xmlns:xlink="http://www.w3.org/1999/xlink" x="0px" y="0px"
	 width="62.625px" height="85.248px" viewBox="0 0 62.625 85.248" enable-background="new 0 0 62.625 85.248" xml:space="preserve">
<g>
	<path fill="#FFFFFF" d="M1.906,72.647c0-0.396,0.444-0.562,0.874-0.562c0.444,0,0.874,0.165,0.874,0.562v10.924
		c0,0.38-0.43,0.576-0.874,0.576c-0.43,0-0.874-0.197-0.874-0.576V72.647z"/>
	<path fill="#FFFFFF" d="M11.937,83.505l-3.942-7.508v7.574c0,0.38-0.431,0.576-0.874,0.576c-0.431,0-0.874-0.197-0.874-0.576
		V72.665c0-0.413,0.429-0.577,0.874-0.577c0.625,0,0.924,0.229,1.319,0.989l3.662,7.145v-7.572c0-0.396,0.445-0.563,0.875-0.563
		c0.445,0,0.875,0.165,0.875,0.563v10.922c0,0.381-0.43,0.578-0.875,0.578C12.548,84.147,12.169,83.935,11.937,83.505z"/>
	<path fill="#FFFFFF" d="M15.584,72.961c-0.017-0.049-0.017-0.099-0.017-0.147c0-0.431,0.61-0.727,1.088-0.727
		c0.298,0,0.528,0.1,0.612,0.363l2.722,9.404l2.707-9.404c0.082-0.266,0.313-0.363,0.593-0.363c0.495,0,1.106,0.313,1.106,0.727
		c0,0.049-0.017,0.1-0.034,0.147l-3.266,10.692c-0.115,0.396-0.611,0.595-1.106,0.595c-0.494,0-0.974-0.199-1.105-0.595
		L15.584,72.961z"/>
	<path fill="#FFFFFF" d="M27.86,77.416h2.54c0.363,0,0.578,0.332,0.578,0.711c0,0.313-0.182,0.677-0.578,0.677h-2.54v3.795h4.9
		c0.362,0,0.577,0.361,0.577,0.791c0,0.362-0.183,0.76-0.577,0.76h-5.874c-0.381,0-0.775-0.198-0.775-0.578V72.665
		c0-0.379,0.395-0.577,0.775-0.577h5.874c0.395,0,0.577,0.396,0.577,0.761c0,0.428-0.215,0.791-0.577,0.791h-4.9V77.416z"/>
	<path fill="#FFFFFF" d="M35.152,72.647c0-0.297,0.23-0.562,0.576-0.562h3.137c2.08,0,3.795,0.808,3.795,3.366
		c0,1.963-1.008,2.938-2.326,3.268l2.311,4.34c0.051,0.082,0.065,0.181,0.065,0.248c0,0.443-0.562,0.891-1.056,0.891
		c-0.297,0-0.526-0.197-0.693-0.512l-2.406-4.72h-1.668v4.604c0,0.381-0.43,0.578-0.875,0.578c-0.429,0-0.857-0.198-0.857-0.578
		L35.152,72.647L35.152,72.647z M36.885,73.638v3.928h1.98c1.238,0,2.046-0.527,2.046-1.963c0-1.437-0.808-1.965-2.046-1.965H36.885
		z"/>
	<path fill="#FFFFFF" d="M51.208,72.087c0.396,0,0.576,0.396,0.576,0.775c0,0.43-0.197,0.824-0.576,0.824h-2.542v9.883
		c0,0.381-0.443,0.578-0.875,0.578c-0.443,0-0.874-0.198-0.874-0.578v-9.883h-2.558c-0.362,0-0.576-0.381-0.576-0.808
		c0-0.381,0.181-0.793,0.576-0.793L51.208,72.087L51.208,72.087z"/>
	<path fill="#FFFFFF" d="M53.188,80.567v-4.803c0-2.672,1.602-3.679,3.695-3.679c2.079,0,3.713,1.007,3.713,3.679v4.803
		c0,2.673-1.634,3.681-3.713,3.681C54.788,84.248,53.188,83.24,53.188,80.567z M58.846,75.767c0-1.451-0.742-2.129-1.961-2.129
		c-1.236,0-1.949,0.678-1.949,2.129v4.801c0,1.453,0.713,2.131,1.949,2.131c1.219,0,1.961-0.678,1.961-2.131V75.767z"/>
</g>
<g>
	<g>
		<polygon fill="#FFFFFF" points="1.313,1.583 1.313,61.583 61.313,1.583 		"/>
	</g>
	<g>
		<path fill="#444A4A" d="M29.672,29.052c0.156-0.41,0.215-0.742,0.215-0.996c0-0.469-0.215-0.684-0.566-0.684
			c-0.801,0-1.484,0.605-2.207,2.52l-0.918,2.441h-0.762l1.113-3.125c1.094-2.988,3.204-4.121,5.977-4.121
			c3.047,0,4.16,1.738,4.16,3.691c0,0.625-0.117,1.289-0.332,1.914l-4.16,12.325c-0.137,0.41-0.195,0.723-0.195,0.977
			c0,0.527,0.293,0.703,0.685,0.703c0.469,0,1.271-0.273,2.108-2.52l0.84-2.246h0.763l-0.996,2.929
			c-1.151,3.359-3.594,4.121-5.724,4.121c-2.655,0-4.257-1.23-4.257-3.789c0-0.879,0.195-1.914,0.586-3.105L29.672,29.052z
			 M36.234,15.126c2.324,0,3.555,0.938,3.555,2.734c0,2.52-2.147,4.16-4.922,4.16c-2.305,0-3.516-0.918-3.516-2.637
			C31.352,16.495,33.441,15.126,36.234,15.126z"/>
	</g>
	<g>
		<path fill="#444A4A" d="M36.158,26.737c0.364,0.595,0.525,1.302,0.525,2.042c0,0.625-0.117,1.289-0.332,1.915l-4.16,12.323
			c-0.137,0.41-0.195,0.725-0.195,0.979c0,0.525,0.293,0.703,0.685,0.703c0.469,0,1.271-0.273,2.108-2.521l0.84-2.246h0.763
			l-0.996,2.929c-1.151,3.359-3.594,4.121-5.724,4.121c-2.655,0-4.257-1.229-4.257-3.789c0-0.879,0.195-1.914,0.586-3.104
			l1.591-4.782L1.313,61.583h60v-60L36.158,26.737z"/>
		<path fill="#FFFFFF" d="M26,40.087c-0.391,1.191-0.586,2.226-0.586,3.105c0,2.559,1.602,3.789,4.257,3.789
			c2.129,0,4.57-0.762,5.724-4.121l0.996-2.929h-0.763l-0.84,2.246c-0.84,2.246-1.641,2.52-2.108,2.52
			c-0.392,0-0.685-0.176-0.685-0.703c0-0.254,0.06-0.566,0.195-0.977l4.16-12.325c0.215-0.625,0.332-1.289,0.332-1.914
			c0-0.739-0.161-1.446-0.525-2.042l-8.567,8.568L26,40.087z"/>
	</g>
</g>
</svg>
