<?xml version="1.0" encoding="utf-8"?>
<!-- Generator: Adobe Illustrator 16.0.0, SVG Export Plug-In . SVG Version: 6.00 Build 0)  -->
<!DOCTYPE svg PUBLIC "-//W3C//DTD SVG 1.1//EN" "http://www.w3.org/Graphics/SVG/1.1/DTD/svg11.dtd">
<svg version="1.1" id="Layer_1" xmlns="http://www.w3.org/2000/svg" xmlns:xlink="http://www.w3.org/1999/xlink" x="0px" y="0px"
	 width="137.25px" height="62.5px" viewBox="0 0 137.25 62.5" enable-background="new 0 0 137.25 62.5" xml:space="preserve">
<g>
	<rect x="1.25" y="1.25" fill="#FFFFFF" width="60" height="60"/>
	<g>
		<path fill="#444A4A" d="M29.609,28.719c0.156-0.41,0.215-0.742,0.215-0.996c0-0.469-0.215-0.684-0.566-0.684
			c-0.801,0-1.484,0.605-2.207,2.52L26.133,32h-0.762l1.113-3.125c1.094-2.988,3.203-4.121,5.977-4.121
			c3.047,0,4.16,1.738,4.16,3.691c0,0.625-0.117,1.289-0.332,1.914l-4.16,12.325c-0.137,0.409-0.195,0.723-0.195,0.977
			c0,0.527,0.293,0.703,0.684,0.703c0.469,0,1.27-0.273,2.109-2.521l0.84-2.245h0.762l-0.996,2.93
			c-1.152,3.358-3.594,4.121-5.723,4.121c-2.656,0-4.258-1.23-4.258-3.789c0-0.879,0.195-1.914,0.586-3.105L29.609,28.719z
			 M36.172,14.793c2.324,0,3.555,0.938,3.555,2.734c0,2.52-2.148,4.16-4.922,4.16c-2.305,0-3.516-0.918-3.516-2.637
			C31.289,16.161,33.379,14.793,36.172,14.793z"/>
	</g>
	<g>
		<path fill="#444A4A" d="M36.096,26.404c0.364,0.595,0.525,1.302,0.525,2.042c0,0.625-0.117,1.289-0.332,1.914l-4.16,12.324
			c-0.137,0.41-0.195,0.724-0.195,0.978c0,0.526,0.293,0.703,0.684,0.703c0.469,0,1.27-0.273,2.109-2.521l0.84-2.246h0.762
			l-0.996,2.93c-1.152,3.359-3.594,4.121-5.723,4.121c-2.656,0-4.258-1.229-4.258-3.789c0-0.879,0.195-1.914,0.586-3.104
			l1.591-4.782L1.25,61.25h60v-60L36.096,26.404z"/>
		<path fill="#FFFFFF" d="M25.938,39.754c-0.391,1.191-0.586,2.227-0.586,3.105c0,2.559,1.602,3.789,4.258,3.789
			c2.129,0,4.57-0.763,5.723-4.121l0.996-2.93h-0.762l-0.84,2.245c-0.84,2.246-1.641,2.521-2.109,2.521
			c-0.391,0-0.684-0.176-0.684-0.703c0-0.254,0.059-0.566,0.195-0.977l4.16-12.325c0.215-0.625,0.332-1.289,0.332-1.914
			c0-0.739-0.161-1.446-0.525-2.042l-8.567,8.568L25.938,39.754z"/>
	</g>
</g>
<g>
	<path fill="#434949" d="M83.115,25.51c0-0.36,0.404-0.511,0.795-0.511c0.404,0,0.795,0.15,0.795,0.511v9.93
		c0,0.346-0.391,0.524-0.795,0.524c-0.391,0-0.795-0.18-0.795-0.524V25.51z"/>
	<path fill="#434949" d="M92.234,35.379l-3.584-6.825v6.885c0,0.346-0.392,0.524-0.795,0.524c-0.392,0-0.795-0.18-0.795-0.524
		v-9.915c0-0.375,0.39-0.525,0.795-0.525c0.568,0,0.84,0.21,1.199,0.9l3.329,6.495V25.51c0-0.36,0.405-0.511,0.796-0.511
		c0.404,0,0.795,0.15,0.795,0.511v9.93c0,0.346-0.391,0.524-0.795,0.524C92.79,35.964,92.445,35.77,92.234,35.379z"/>
	<path fill="#434949" d="M95.55,25.794c-0.015-0.045-0.015-0.09-0.015-0.135c0-0.39,0.555-0.66,0.988-0.66
		c0.271,0,0.48,0.09,0.557,0.33l2.475,8.55l2.461-8.55c0.074-0.24,0.284-0.33,0.539-0.33c0.45,0,1.006,0.285,1.006,0.66
		c0,0.045-0.016,0.09-0.031,0.135l-2.969,9.72c-0.104,0.36-0.556,0.541-1.006,0.541c-0.449,0-0.885-0.181-1.005-0.541L95.55,25.794z
		"/>
	<path fill="#434949" d="M106.71,29.844h2.31c0.33,0,0.525,0.301,0.525,0.646c0,0.285-0.165,0.615-0.525,0.615h-2.31v3.45h4.455
		c0.329,0,0.524,0.329,0.524,0.719c0,0.33-0.166,0.69-0.524,0.69h-5.34c-0.347,0-0.705-0.18-0.705-0.524v-9.915
		c0-0.345,0.358-0.525,0.705-0.525h5.34c0.358,0,0.524,0.36,0.524,0.69c0,0.39-0.195,0.72-0.524,0.72h-4.455V29.844z"/>
	<path fill="#434949" d="M113.34,25.51c0-0.271,0.21-0.511,0.523-0.511h2.852c1.891,0,3.449,0.735,3.449,3.061
		c0,1.784-0.915,2.67-2.114,2.97l2.101,3.945c0.045,0.074,0.06,0.164,0.06,0.226c0,0.403-0.51,0.81-0.96,0.81
		c-0.27,0-0.479-0.18-0.63-0.465l-2.188-4.29h-1.517v4.185c0,0.347-0.39,0.525-0.795,0.525c-0.39,0-0.779-0.18-0.779-0.525
		L113.34,25.51L113.34,25.51z M114.914,26.409v3.57h1.801c1.125,0,1.859-0.48,1.859-1.785c0-1.305-0.734-1.785-1.859-1.785H114.914z
		"/>
	<path fill="#434949" d="M127.936,24.999c0.358,0,0.523,0.36,0.523,0.705c0,0.391-0.18,0.75-0.523,0.75h-2.312v8.983
		c0,0.347-0.403,0.525-0.795,0.525c-0.404,0-0.795-0.18-0.795-0.525v-8.983h-2.324c-0.33,0-0.524-0.345-0.524-0.734
		c0-0.346,0.164-0.721,0.524-0.721H127.936z"/>
	<path fill="#434949" d="M129.734,32.709v-4.365c0-2.43,1.455-3.345,3.359-3.345c1.891,0,3.375,0.915,3.375,3.345v4.365
		c0,2.43-1.484,3.346-3.375,3.346C131.189,36.055,129.734,35.139,129.734,32.709z M134.879,28.344c0-1.319-0.675-1.935-1.783-1.935
		c-1.125,0-1.771,0.615-1.771,1.935v4.365c0,1.32,0.646,1.936,1.771,1.936c1.108,0,1.783-0.615,1.783-1.936V28.344z"/>
</g>
</svg>
