<?xml version="1.0" encoding="iso-8859-1"?>
<!-- Generator: Adobe Illustrator 16.0.0, SVG Export Plug-In . SVG Version: 6.00 Build 0)  -->
<!DOCTYPE svg PUBLIC "-//W3C//DTD SVG 1.1//EN" "http://www.w3.org/Graphics/SVG/1.1/DTD/svg11.dtd">
<svg version="1.1" id="Layer_1" xmlns="http://www.w3.org/2000/svg" xmlns:xlink="http://www.w3.org/1999/xlink" x="0px" y="0px"
	 width="50px" height="50px" viewBox="0 0 50 50" style="enable-background:new 0 0 50 50;" xml:space="preserve">
<g style="opacity:0.2;">
	<path style="fill:#231F20;" d="M45,41c0,2.209-1.791,4-4,4H9c-2.209,0-4-1.791-4-4V11c0-2.209,1.791-4,4-4h32c2.209,0,4,1.791,4,4
		V41z"/>
</g>
<g>
	<path style="fill:#FFFFFF;" d="M5,14.5V39c0,2.209,1.791,4,4,4h32c2.209,0,4-1.791,4-4V14.5H5z"/>
</g>
<g style="opacity:0.2;">
	<path style="fill:#231F20;" d="M45,11c0-2.209-1.791-4-4-4H9c-2.209,0-4,1.791-4,4v6h40V11z"/>
</g>
<g>
	<path style="fill:#E0E0D1;" d="M45,9c0-2.209-1.791-4-4-4H9C6.791,5,5,6.791,5,9v6h40V9z"/>
</g>
<g>
	<circle style="fill:#E0995E;" cx="16" cy="10" r="2"/>
</g>
<g>
	<circle style="fill:#76C2AF;" cx="22" cy="10" r="2"/>
</g>
<g>
	<circle style="fill:#C75C5C;" cx="10" cy="10" r="2"/>
</g>
<g>
	<rect x="9" y="21" style="fill:#4F5D73;" width="12" height="18"/>
</g>
<g>
	<rect x="25" y="21" style="fill:#E0E0D1;" width="16" height="2"/>
</g>
<g>
	<rect x="25" y="25" style="fill:#E0E0D1;" width="16" height="2"/>
</g>
<g>
	<rect x="25" y="29" style="fill:#E0E0D1;" width="16" height="2"/>
</g>
<g>
	<rect x="25" y="33" style="fill:#E0E0D1;" width="16" height="2"/>
</g>
<g>
	<rect x="25" y="37" style="fill:#E0E0D1;" width="16" height="2"/>
</g>
</svg>
