<?xml version="1.0" encoding="iso-8859-1"?>
<!-- Generator: Adobe Illustrator 16.0.0, SVG Export Plug-In . SVG Version: 6.00 Build 0)  -->
<!DOCTYPE svg PUBLIC "-//W3C//DTD SVG 1.1//EN" "http://www.w3.org/Graphics/SVG/1.1/DTD/svg11.dtd">
<svg version="1.1" id="Layer_1" xmlns="http://www.w3.org/2000/svg" xmlns:xlink="http://www.w3.org/1999/xlink" x="0px" y="0px"
	 width="50px" height="50px" viewBox="0 0 50 50" style="enable-background:new 0 0 50 50;" xml:space="preserve">
<g style="opacity:0.2;">
	<g>
		<path style="fill:#231F20;" d="M25,3.826c-12.15,0-22,9.851-22,22c0,12.15,9.85,22,22,22s22-9.85,22-22
			C47,13.677,37.15,3.826,25,3.826z M7.053,16.633c0.21,0.844-0.21,2.36-0.533,4.538c-0.378,2.54,1.647,1.99,1.578,4.393
			c-0.068,2.402,1.785,3.398,1.545,3.639s-1.201,0.583,0.24,3.706s2.677,4.05,2.849,5.731c0.171,1.682,2.024,4.152,2.024,4.152
			l0.104,0.462C8.865,39.753,4.827,33.255,4.827,25.826C4.827,22.517,5.634,19.393,7.053,16.633z M17.021,43.719
			c-0.104-0.446,0.103-2.849,2.985-3.81s2.402-2.23,3.261-3.466c0.857-1.235,1.029-2.162-0.618-2.54
			c-1.647-0.377-3.363-0.652-4.839-2.985c-1.476-2.334-3.535-2.402-4.633-3.123c-1.099-0.721-1.991-0.584-3.329-0.755
			c-1.339-0.172-0.893-3.913-0.824-4.736c0.068-0.824-0.823,0.274-1.476-0.297c-0.652-0.57,0.618-3.238,1.888-3.135
			c1.27,0.103,0.961,0.721,1.201,2.127c0.24,1.407,0.687,1.064,0.789,0.618c0.104-0.446,0.172-2.334,0.618-2.917
			c0.446-0.584,0.549-2.162,1.99-2.094s1.407-1.305,2.471-0.858c1.064,0.446,1.819,0.104,1.133-0.48
			c-0.687-0.583-0.309-1.166,0.858-0.789c1.167,0.378,1.235-1.682,1.029-2.745c-0.206-1.064-1.063-1.373-2.128-0.721
			c-1.063,0.651-1.854,0.377-1.304-0.721c0.549-1.099,2.711-0.172,4.016,0.377c1.304,0.549,1.646-1.441,0.926-2.402
			s-0.755-0.515-2.813-0.377c-0.82,0.055-0.736-0.386-0.339-0.937c2.215-0.837,4.612-1.3,7.116-1.3c2.535,0,4.96,0.475,7.197,1.332
			c0.281,0.394,0.396,0.704,0.199,0.835c-0.824,0.55-1.545,0.06-1.305,1.591c0.24,1.532,1.373,3.353,2.266,2.751
			c0.893-0.601,2.437,0.154,1.098,0.978c-1.338,0.824-1.716,0.756-2.333,1.305c-0.618,0.549-0.344,0.274,0.274,0.961
			c0.617,0.687,0.549,0.823-0.309,1.167c-0.858,0.343-1.373,1.098-0.55,1.956c0.824,0.858,1.373,1.579,2.3,0s1.098-2.951,1.888-2.54
			c0.789,0.412,1.682,1.682,2.265,0.961c0.584-0.721,0.48-1.201,1.271-0.651c0.789,0.549,3.706,0.583,1.75,2.024
			s-1.613,2.06-2.54,1.888s-5.113-1.063-6.074,1.27c-0.961,2.334-4.462,4.188-2.643,6.452c1.818,2.266,1.407,3.913,4.016,4.256
			c2.607,0.343,3.946-0.823,4.599,0.378c0.651,1.201,0.137,1.338,0.172,3.157c0.017,0.901,0.497,2.601,0.978,4.089
			C35.846,43.622,30.697,46,25,46c-2.868,0-5.597-0.606-8.07-1.69C17.004,44.026,17.042,43.811,17.021,43.719z"/>
	</g>
	<g>
		<path style="fill:#231F20;" d="M25.086,10.12c0.633-0.38,0.687,0.137,1.235-1.613c0.55-1.75-2.059-1.99-3.294-1.784
			s-0.687,0.721-0.687,0.721c0.412,0.651,0.684,3.054-0.053,3.946s0.602,1.064,1.186,0.24C24.057,10.807,24.402,10.531,25.086,10.12
			z"/>
	</g>
</g>
<g>
	<g>
		<path style="fill:#FFFFFF;" d="M25,2C12.85,2,3,11.85,3,24c0,12.149,9.85,22,22,22s22-9.851,22-22C47,11.85,37.15,2,25,2z
			 M7.053,14.806c0.21,0.845-0.21,2.36-0.533,4.538c-0.378,2.54,1.647,1.991,1.578,4.394c-0.068,2.402,1.785,3.397,1.545,3.638
			s-1.201,0.583,0.24,3.706s2.677,4.05,2.849,5.731c0.171,1.682,2.024,4.152,2.024,4.152l0.104,0.462
			C8.865,37.926,4.827,31.428,4.827,24C4.827,20.689,5.634,17.565,7.053,14.806z M17.021,41.892
			c-0.104-0.446,0.103-2.849,2.985-3.81c2.883-0.96,2.402-2.23,3.261-3.466c0.857-1.235,1.029-2.162-0.618-2.54
			c-1.647-0.377-3.363-0.651-4.839-2.985s-3.535-2.402-4.633-3.123c-1.099-0.721-1.991-0.584-3.329-0.755
			C8.51,25.041,8.956,21.3,9.024,20.477s-0.823,0.274-1.476-0.297c-0.652-0.57,0.618-3.238,1.888-3.135
			c1.27,0.103,0.961,0.721,1.201,2.128c0.24,1.406,0.687,1.063,0.789,0.617c0.104-0.446,0.172-2.334,0.618-2.917
			c0.446-0.584,0.549-2.162,1.99-2.094c1.441,0.069,1.407-1.304,2.471-0.858c1.064,0.446,1.819,0.104,1.133-0.479
			c-0.687-0.584-0.309-1.167,0.858-0.79c1.167,0.378,1.235-1.682,1.029-2.745c-0.206-1.064-1.063-1.373-2.128-0.721
			c-1.063,0.651-1.854,0.377-1.304-0.721c0.549-1.099,2.711-0.172,4.016,0.377c1.304,0.55,1.646-1.441,0.926-2.402
			s-0.755-0.515-2.813-0.377c-0.82,0.055-0.736-0.386-0.339-0.936C20.099,4.289,22.496,3.826,25,3.826
			c2.535,0,4.96,0.475,7.197,1.332c0.281,0.394,0.396,0.704,0.199,0.835c-0.824,0.55-1.545,0.06-1.305,1.592
			c0.24,1.531,1.373,3.352,2.266,2.751c0.893-0.602,2.437,0.153,1.098,0.978c-1.338,0.823-1.716,0.755-2.333,1.304
			c-0.618,0.549-0.344,0.274,0.274,0.961c0.617,0.687,0.549,0.823-0.309,1.167c-0.858,0.344-1.373,1.099-0.55,1.956
			c0.824,0.858,1.373,1.579,2.3,0s1.098-2.951,1.888-2.539c0.789,0.411,1.682,1.682,2.265,0.96c0.584-0.721,0.48-1.201,1.271-0.651
			c0.789,0.549,3.706,0.583,1.75,2.024s-1.613,2.06-2.54,1.888s-5.113-1.063-6.074,1.271c-0.961,2.333-4.462,4.187-2.643,6.451
			c1.818,2.266,1.407,3.913,4.016,4.256c2.607,0.344,3.946-0.823,4.599,0.378c0.651,1.201,0.137,1.338,0.172,3.157
			c0.017,0.901,0.497,2.602,0.978,4.089c-3.672,3.811-8.82,6.188-14.518,6.188c-2.868,0-5.597-0.606-8.07-1.69
			C17.004,42.199,17.042,41.983,17.021,41.892z"/>
	</g>
	<g>
		<path style="fill:#FFFFFF;" d="M25.086,8.293c0.633-0.38,0.687,0.138,1.235-1.613c0.55-1.75-2.059-1.99-3.294-1.784
			s-0.687,0.721-0.687,0.721c0.412,0.652,0.684,3.055-0.053,3.946c-0.736,0.893,0.602,1.064,1.186,0.24
			C24.057,8.979,24.402,8.704,25.086,8.293z"/>
	</g>
</g>
</svg>
