<?xml version="1.0" encoding="iso-8859-1"?>
<!-- Generator: Adobe Illustrator 16.0.0, SVG Export Plug-In . SVG Version: 6.00 Build 0)  -->
<!DOCTYPE svg PUBLIC "-//W3C//DTD SVG 1.1//EN" "http://www.w3.org/Graphics/SVG/1.1/DTD/svg11.dtd">
<svg version="1.1" id="Layer_1" xmlns="http://www.w3.org/2000/svg" xmlns:xlink="http://www.w3.org/1999/xlink" x="0px" y="0px"
	 width="50px" height="50px" viewBox="0 0 50 50" style="enable-background:new 0 0 50 50;" xml:space="preserve">
<g style="opacity:0.2;">
	<path style="fill:#231F20;" d="M45,38c0,2.209-1.791,4-4,4H9c-2.209,0-4-1.791-4-4V18c0-2.209,1.791-4,4-4h32c2.209,0,4,1.791,4,4
		V38z"/>
</g>
<g>
	<path style="fill:#E0995E;" d="M31,9v20H19V9H31 M31,5H19c-2.209,0-4,1.791-4,4v20c0,2.209,1.791,4,4,4h12c2.209,0,4-1.791,4-4V9
		C35,6.791,33.209,5,31,5L31,5z"/>
</g>
<g>
	<g>
		<path style="fill:#E0995E;" d="M5,21v15c0,2.209,1.791,4,4,4h32c2.209,0,4-1.791,4-4V21H5z"/>
	</g>
</g>
<g style="opacity:0.2;">
	<path style="fill:#231F20;" d="M45,18c0-2.209-1.791-4-4-4H9c-2.209,0-4,1.791-4,4v5h40V18z"/>
</g>
<g style="opacity:0.2;">
	<g>
		<path style="fill:#231F20;" d="M33,25c0,2.209-1.791,4-4,4h-8c-2.209,0-4-1.791-4-4v-3c0-2.209,1.791-4,4-4h8c2.209,0,4,1.791,4,4
			V25z"/>
	</g>
</g>
<g>
	<path style="fill:#F5CF87;" d="M29,20v3h-8v-3H29 M29,16h-8c-2.209,0-4,1.791-4,4v3c0,2.209,1.791,4,4,4h8c2.209,0,4-1.791,4-4v-3
		C33,17.791,31.209,16,29,16L29,16z"/>
</g>
<g>
	<path style="fill:#E0995E;" d="M45,16c0-2.209-1.791-4-4-4H9c-2.209,0-4,1.791-4,4v5h40V16z"/>
</g>
</svg>
