<?xml version="1.0" encoding="iso-8859-1"?>
<!-- Generator: Adobe Illustrator 16.0.0, SVG Export Plug-In . SVG Version: 6.00 Build 0)  -->
<!DOCTYPE svg PUBLIC "-//W3C//DTD SVG 1.1//EN" "http://www.w3.org/Graphics/SVG/1.1/DTD/svg11.dtd">
<svg version="1.1" id="Layer_1" xmlns="http://www.w3.org/2000/svg" xmlns:xlink="http://www.w3.org/1999/xlink" x="0px" y="0px"
	 width="50px" height="50px" viewBox="0 0 50 50" style="enable-background:new 0 0 50 50;" xml:space="preserve">
<path style="opacity:0.2;fill:#231F20;" d="M40.955,33.892l-2.984-9.544c-0.164-0.527-0.727-0.818-1.252-0.656l-8.867,2.771
	l7.082-4.439c0.469-0.293,0.61-0.91,0.316-1.378L28.34,9.619c-0.292-0.468-0.91-0.609-1.379-0.316l-8.743,5.479l-1.336-4.274
	c-0.659-2.11-3.037-4.813-6.891-3.609c-0.79,0.247-1.23,1.088-0.984,1.879c0.247,0.791,1.089,1.229,1.879,0.984
	c2.175-0.682,2.95,1.093,3.133,1.64l7.97,25.497c-2.004,1.313-2.99,3.841-2.24,6.24c0.721,2.309,2.83,3.86,5.248,3.86
	c0.556,0,1.107-0.084,1.643-0.251c1.401-0.438,2.55-1.396,3.23-2.698c0.442-0.843,0.628-1.766,0.604-2.692l8.334-2.605
	c0.791-0.247,1.232-1.088,0.984-1.879c-0.247-0.792-1.09-1.232-1.879-0.984l-8.322,2.602l-0.001,0l10.709-3.347
	c0.254-0.079,0.465-0.256,0.588-0.491S41.033,34.145,40.955,33.892z M23.356,27.868c-0.253,0.079-0.465,0.256-0.588,0.491
	s-0.147,0.509-0.069,0.762l2.153,6.889l0,0l-4.545-14.541l3.844,6.133c0.003,0.005,0.01,0.008,0.013,0.014L23.356,27.868z"/>
<polygon style="fill:#F5CF87;stroke:#F5CF87;stroke-width:2;stroke-linecap:round;stroke-linejoin:round;stroke-miterlimit:10;" points="
	24.999,24.07 24.999,24.07 34.403,18.176 34.403,18.176 27.492,7.15 27.492,7.15 18.088,13.044 18.088,13.044 "/>
<path style="fill:none;stroke:#FFFFFF;stroke-width:3;stroke-linecap:round;stroke-linejoin:round;stroke-miterlimit:10;" d="
	M38.359,34.322l-13.362,4.177L15.45,7.956c0,0-1.193-3.818-5.011-2.625"/>
<polygon style="fill:#E0995E;stroke:#E0995E;stroke-width:2;stroke-linecap:round;stroke-linejoin:round;stroke-miterlimit:10;" points="
	26.638,35.367 26.638,35.367 40,31.19 40,31.19 37.017,21.646 37.017,21.646 23.654,25.822 23.654,25.822 "/>
<circle style="fill:#F5CF87;stroke:#4F5D73;stroke-width:3;stroke-linecap:round;stroke-linejoin:round;stroke-miterlimit:10;" cx="24.998" cy="38.499" r="4"/>
</svg>
