<?xml version="1.0" encoding="iso-8859-1"?>
<!-- Generator: Adobe Illustrator 16.0.0, SVG Export Plug-In . SVG Version: 6.00 Build 0)  -->
<!DOCTYPE svg PUBLIC "-//W3C//DTD SVG 1.1//EN" "http://www.w3.org/Graphics/SVG/1.1/DTD/svg11.dtd">
<svg version="1.1" id="Layer_1" xmlns="http://www.w3.org/2000/svg" xmlns:xlink="http://www.w3.org/1999/xlink" x="0px" y="0px"
	 width="50px" height="50px" viewBox="0 0 50 50" style="enable-background:new 0 0 50 50;" xml:space="preserve">
<g style="opacity:0.2;">
	<path style="fill:#231F20;" d="M42.899,39.243L28.758,25.101c-1.031-1.031-2.481-1.367-3.8-1.037l-8.093-7.993l-3.037-5.898
		L7.917,7.128L5.05,9.996l3.044,5.911l5.911,3.043l0.008-0.008l8.065,7.967c-0.352,1.332-0.021,2.805,1.022,3.849l14.142,14.142
		c1.563,1.562,4.096,1.562,5.657,0C44.462,43.337,44.462,40.805,42.899,39.243z"/>
</g>
<g>
	<polygon style="fill:#4F5D73;" points="27.499,30.263 11.397,14.359 14.331,11.567 30.433,27.471 	"/>
</g>
<g>
	<path style="fill:#F5CF87;" d="M42.899,42.899c-1.562,1.562-4.095,1.562-5.657,0L23.101,28.757c-1.563-1.562-1.563-4.095,0-5.657
		l0,0c1.562-1.562,4.095-1.562,5.657,0l14.142,14.142C44.462,38.805,44.462,41.337,42.899,42.899L42.899,42.899z"/>
</g>
<g style="opacity:0.2;">
	<path style="fill:#231F20;" d="M46.304,11.353l-6.476,6.476c-1.562,1.562-4.095,1.562-5.656,0c-1.563-1.563-1.563-4.095,0-5.657
		l6.476-6.476C39.516,5.252,38.288,5,37,5c-5.522,0-10,4.477-10,10c0,1.289,0.252,2.516,0.696,3.647L16.647,29.696
		C15.516,29.252,14.288,29,13,29C7.478,29,3,33.477,3,39c0,1.289,0.252,2.516,0.696,3.647l6.476-6.476
		c1.562-1.562,4.095-1.562,5.656,0c1.563,1.563,1.563,4.095,0,5.657l-6.476,6.476C10.484,48.748,11.712,49,13,49
		c5.522,0,10-4.477,10-10c0-1.289-0.252-2.516-0.696-3.647l11.049-11.049C34.484,24.748,35.712,25,37,25c5.522,0,10-4.477,10-10
		C47,13.711,46.748,12.484,46.304,11.353z"/>
</g>
<g>
	
		<rect x="16.43" y="21" transform="matrix(0.7071 -0.7071 0.7071 0.7071 -10.3553 24.9993)" style="fill:#FFFFFF;" width="17.14" height="8"/>
</g>
<g>
	<polygon style="fill:#4F5D73;" points="14.005,16.95 8.094,13.906 5.05,7.996 7.917,5.128 13.828,8.172 16.872,14.083 	"/>
</g>
<g>
	<g>
		<path style="fill:#FFFFFF;" d="M39.828,15.829c-1.562,1.562-4.095,1.562-5.656,0c-1.563-1.563-1.563-4.095,0-5.657l6.476-6.476
			C39.516,3.252,38.288,3,37,3c-5.522,0-10,4.477-10,10s4.478,10,10,10s10-4.477,10-10c0-1.289-0.252-2.516-0.696-3.647
			L39.828,15.829z"/>
	</g>
</g>
<g>
	<g>
		<path style="fill:#FFFFFF;" d="M10.172,34.171c1.562-1.562,4.095-1.562,5.656,0c1.563,1.563,1.563,4.095,0,5.657l-6.476,6.476
			C10.484,46.748,11.712,47,13,47c5.522,0,10-4.477,10-10s-4.478-10-10-10S3,31.477,3,37c0,1.289,0.252,2.516,0.696,3.647
			L10.172,34.171z"/>
	</g>
</g>
</svg>
