<?xml version="1.0" encoding="utf-8"?>
<!-- Generator: Adobe Illustrator 16.0.0, SVG Export Plug-In . SVG Version: 6.00 Build 0)  -->
<!DOCTYPE svg PUBLIC "-//W3C//DTD SVG 1.1//EN" "http://www.w3.org/Graphics/SVG/1.1/DTD/svg11.dtd">
<svg version="1.1" id="Layer_1" xmlns="http://www.w3.org/2000/svg" xmlns:xlink="http://www.w3.org/1999/xlink" x="0px" y="0px"
	 width="145.75px" height="66.667px" viewBox="0 0 145.75 66.667" enable-background="new 0 0 145.75 66.667" xml:space="preserve">
<path fill="#7CC4A5" d="M55.292,14.715L32.783,1.72c-0.985-0.569-2.108-0.869-3.246-0.869c-1.138,0-2.261,0.3-3.246,0.869
	L3.783,14.715c-2.002,1.157-3.246,3.311-3.246,5.622v25.991c0,2.313,1.245,4.469,3.247,5.623l22.507,12.994
	c0.983,0.568,2.107,0.87,3.246,0.87c1.139,0,2.263-0.302,3.249-0.872l22.505-12.992c2.001-1.154,3.246-3.31,3.246-5.623V20.337
	C58.537,18.026,57.293,15.872,55.292,14.715z"/>
<g>
	<path fill="#7BC5A6" d="M80.949,27.605c0-0.345,0.359-0.525,0.705-0.525h5.265c0.359,0,0.51,0.36,0.51,0.69
		c0,0.39-0.18,0.72-0.51,0.72h-4.38v3.435h2.325c0.329,0,0.51,0.301,0.51,0.646c0,0.285-0.15,0.615-0.51,0.615h-2.325v4.334
		c0,0.36-0.391,0.525-0.795,0.525c-0.391,0-0.795-0.165-0.795-0.525V27.605z"/>
	<path fill="#7BC5A6" d="M92.229,27.59c0-0.271,0.21-0.511,0.524-0.511h2.851c1.89,0,3.449,0.735,3.449,3.061
		c0,1.784-0.915,2.67-2.114,2.97l2.1,3.944c0.045,0.075,0.06,0.165,0.06,0.226c0,0.404-0.51,0.81-0.96,0.81
		c-0.27,0-0.479-0.18-0.63-0.465l-2.189-4.29h-1.516v4.185c0,0.346-0.39,0.525-0.795,0.525c-0.39,0-0.779-0.18-0.779-0.525V27.59z
		 M93.803,28.49v3.57h1.801c1.125,0,1.859-0.48,1.859-1.785s-0.734-1.785-1.859-1.785H93.803z"/>
	<path fill="#7BC5A6" d="M105.954,31.924h2.31c0.33,0,0.525,0.301,0.525,0.646c0,0.285-0.165,0.615-0.525,0.615h-2.31v3.449h4.455
		c0.329,0,0.524,0.33,0.524,0.72c0,0.33-0.165,0.69-0.524,0.69h-5.34c-0.346,0-0.705-0.18-0.705-0.525v-9.914
		c0-0.345,0.359-0.525,0.705-0.525h5.34c0.359,0,0.524,0.36,0.524,0.69c0,0.39-0.195,0.72-0.524,0.72h-4.455V31.924z"/>
	<path fill="#7BC5A6" d="M117.548,31.924h2.31c0.33,0,0.525,0.301,0.525,0.646c0,0.285-0.165,0.615-0.525,0.615h-2.31v3.449h4.455
		c0.329,0,0.524,0.33,0.524,0.72c0,0.33-0.165,0.69-0.524,0.69h-5.34c-0.346,0-0.705-0.18-0.705-0.525v-9.914
		c0-0.345,0.359-0.525,0.705-0.525h5.34c0.359,0,0.524,0.36,0.524,0.69c0,0.39-0.195,0.72-0.524,0.72h-4.455V31.924z"/>
	<path fill="#7BC5A6" d="M128.258,38.044c-0.346,0-0.705-0.18-0.705-0.525V27.59c0-0.36,0.404-0.511,0.795-0.511
		c0.404,0,0.795,0.15,0.795,0.511v9.044h3.899c0.315,0,0.48,0.345,0.48,0.705c0,0.345-0.165,0.705-0.48,0.705H128.258z"/>
	<path fill="#7BC5A6" d="M138.353,34.79v-4.365c0-2.43,1.455-3.345,3.36-3.345c1.89,0,3.375,0.915,3.375,3.345v4.365
		c0,2.43-1.485,3.345-3.375,3.345C139.808,38.134,138.353,37.219,138.353,34.79z M143.498,30.424c0-1.319-0.675-1.935-1.784-1.935
		c-1.125,0-1.771,0.615-1.771,1.935v4.365c0,1.32,0.646,1.935,1.771,1.935c1.109,0,1.784-0.614,1.784-1.935V30.424z"/>
</g>
<g>
	<path fill="#FFFFFF" d="M40.623,22.569c0,1.406-1.289,3.003-3.236,3.003c-1.465,0-2.402-0.732-2.402-2.051
		c0-1.523,0.996-2.9,2.666-3.53c-0.264-0.117-0.498-0.19-0.777-0.19c-0.57,0-1.055,0.132-1.465,0.483
		c-0.57,0.483-1.025,1.377-1.449,2.974l-1.07,3.984h3.033l-0.191,0.601h-3.002l-5.362,20.04c-2.168,0.029-3.75,0.16-5.435,0.424
		l5.508-20.463h-2.358l0.19-0.601h2.329c0.894-3.34,2.124-5.493,3.78-6.709c1.26-0.938,2.768-1.333,4.541-1.333
		C38.852,19.2,40.623,20.504,40.623,22.569z"/>
</g>
</svg>
