<?xml version="1.0" encoding="utf-8"?>
<!-- Generator: Adobe Illustrator 16.0.0, SVG Export Plug-In . SVG Version: 6.00 Build 0)  -->
<!DOCTYPE svg PUBLIC "-//W3C//DTD SVG 1.1//EN" "http://www.w3.org/Graphics/SVG/1.1/DTD/svg11.dtd">
<svg version="1.1" id="Layer_1" xmlns="http://www.w3.org/2000/svg" xmlns:xlink="http://www.w3.org/1999/xlink" x="0px" y="0px"
	 width="67px" height="89.167px" viewBox="39.375 0 67 89.167" enable-background="new 39.375 0 67 89.167" xml:space="preserve">
<path fill="#7CC4A5" d="M98.63,14.715L76.121,1.72c-0.985-0.569-2.108-0.869-3.246-0.869c-1.138,0-2.261,0.3-3.246,0.869
	L47.121,14.715c-2.002,1.157-3.246,3.311-3.246,5.622v25.991c0,2.313,1.245,4.469,3.247,5.623l22.507,12.994
	c0.983,0.568,2.107,0.87,3.246,0.87c1.139,0,2.263-0.302,3.249-0.872l22.505-12.992c2.001-1.154,3.246-3.31,3.246-5.623V20.337
	C101.875,18.026,100.631,15.872,98.63,14.715z"/>
<g>
	<path fill="#7BC5A6" d="M40.806,76.938c0-0.345,0.359-0.524,0.705-0.524h5.265c0.358,0,0.511,0.359,0.511,0.689
		c0,0.391-0.181,0.721-0.511,0.721h-4.38v3.434h2.324c0.33,0,0.511,0.302,0.511,0.646c0,0.285-0.149,0.615-0.511,0.615h-2.324v4.334
		c0,0.36-0.391,0.524-0.795,0.524c-0.391,0-0.795-0.164-0.795-0.524V76.938z"/>
	<path fill="#7BC5A6" d="M52.085,76.923c0-0.271,0.211-0.512,0.524-0.512h2.851c1.891,0,3.449,0.735,3.449,3.062
		c0,1.784-0.914,2.67-2.113,2.97l2.1,3.944c0.045,0.074,0.061,0.164,0.061,0.226c0,0.404-0.511,0.81-0.961,0.81
		c-0.27,0-0.479-0.18-0.63-0.465l-2.188-4.29h-1.516v4.186c0,0.347-0.391,0.524-0.796,0.524c-0.39,0-0.778-0.18-0.778-0.524v-9.93
		H52.085z M53.659,77.824v3.569h1.801c1.125,0,1.859-0.479,1.859-1.785c0-1.305-0.734-1.784-1.859-1.784H53.659z"/>
	<path fill="#7BC5A6" d="M65.811,81.257h2.31c0.33,0,0.525,0.301,0.525,0.646c0,0.285-0.165,0.615-0.525,0.615h-2.31v3.449h4.455
		c0.329,0,0.524,0.33,0.524,0.72c0,0.33-0.166,0.69-0.524,0.69h-5.341c-0.346,0-0.705-0.18-0.705-0.525v-9.914
		c0-0.345,0.359-0.524,0.705-0.524h5.341c0.358,0,0.524,0.359,0.524,0.689c0,0.391-0.195,0.721-0.524,0.721h-4.455V81.257
		L65.811,81.257z"/>
	<path fill="#7BC5A6" d="M77.404,81.257h2.31c0.33,0,0.525,0.301,0.525,0.646c0,0.285-0.165,0.615-0.525,0.615h-2.31v3.449h4.455
		c0.329,0,0.524,0.33,0.524,0.72c0,0.33-0.166,0.69-0.524,0.69h-5.34c-0.347,0-0.705-0.18-0.705-0.525v-9.914
		c0-0.345,0.358-0.524,0.705-0.524h5.34c0.358,0,0.524,0.359,0.524,0.689c0,0.391-0.195,0.721-0.524,0.721h-4.455V81.257
		L77.404,81.257z"/>
	<path fill="#7BC5A6" d="M88.114,87.377c-0.346,0-0.705-0.18-0.705-0.525v-9.929c0-0.36,0.404-0.512,0.795-0.512
		c0.404,0,0.795,0.15,0.795,0.512v9.044h3.899c0.315,0,0.479,0.345,0.479,0.705c0,0.345-0.164,0.705-0.479,0.705H88.114z"/>
	<path fill="#7BC5A6" d="M98.21,84.124v-4.366c0-2.43,1.455-3.344,3.359-3.344c1.891,0,3.375,0.914,3.375,3.344v4.366
		c0,2.43-1.484,3.344-3.375,3.344C99.665,87.467,98.21,86.551,98.21,84.124z M103.354,79.757c0-1.319-0.675-1.936-1.784-1.936
		c-1.125,0-1.771,0.615-1.771,1.936v4.364c0,1.32,0.646,1.936,1.771,1.936c1.109,0,1.784-0.614,1.784-1.936V79.757z"/>
</g>
<g>
	<path fill="#FFFFFF" d="M82.22,22.569c0,1.406-1.289,3.003-3.235,3.003c-1.466,0-2.402-0.732-2.402-2.051
		c0-1.523,0.996-2.9,2.666-3.53c-0.264-0.117-0.498-0.19-0.777-0.19c-0.569,0-1.055,0.132-1.465,0.483
		c-0.57,0.483-1.025,1.377-1.449,2.974l-1.069,3.984h3.032l-0.19,0.601h-3.002l-5.362,20.04c-2.168,0.029-3.75,0.16-5.435,0.425
		l5.508-20.463H66.68l0.19-0.601h2.329c0.894-3.34,2.124-5.493,3.779-6.709c1.261-0.938,2.769-1.333,4.541-1.333
		C80.449,19.2,82.22,20.504,82.22,22.569z"/>
</g>
</svg>
