<?xml version="1.0" encoding="utf-8"?>
<!-- Generator: Adobe Illustrator 23.0.2, SVG Export Plug-In . SVG Version: 6.00 Build 0)  -->
<svg version="1.2" baseProfile="tiny" id="Calque_1"
	 xmlns="http://www.w3.org/2000/svg" xmlns:xlink="http://www.w3.org/1999/xlink" x="0px" y="0px" viewBox="0 0 217.64 46.8"
	 xml:space="preserve">
<g>
	<path fill-rule="evenodd" fill="#FEFEFF" d="M24.17,29.63L24.17,29.63c-0.19-0.64-0.44-1.25-0.71-1.85
		c-0.15-0.38-0.3-0.76-0.51-1.11c-0.06-0.13-0.11-0.27-0.17-0.4c-0.52-1.08-1.12-2.12-1.82-3.08c-0.36-0.49-0.74-0.97-1.17-1.39
		c-0.11-0.14-0.23-0.26-0.36-0.37c-0.29-0.28-0.59-0.55-0.92-0.77c-0.04-0.05-0.09-0.08-0.14-0.1l0,0c-0.04-0.03-0.07-0.06-0.1-0.08
		c-1.68-1.15-3.51-1.61-5.49-1.29c-0.1,0.01-0.2,0.02-0.29,0.06c-0.45,0.07-0.89,0.21-1.31,0.38c-0.07,0.03-0.14,0.05-0.21,0.08
		c-0.43,0.18-0.86,0.38-1.26,0.64c-0.12,0.06-0.24,0.12-0.34,0.22c-0.57,0.33-1.07,0.75-1.55,1.2c-0.04,0.03-0.08,0.07-0.12,0.1
		c-0.64,0.61-1.22,1.28-1.74,2.01c-0.43,0.6-0.83,1.23-1.16,1.89c-0.25,0.44-0.46,0.89-0.67,1.36c-0.12,0.27-0.25,0.55-0.35,0.83
		c-0.19,0.44-0.35,0.88-0.5,1.34c-0.67,1.95-1.14,3.96-1.48,6c-0.1,0.57-0.13,1.14-0.05,1.72c0.1,0.75,0.43,1.39,0.88,1.97
		c0.11,0.14,0.21,0.27,0.34,0.39c0.05-0.11,0.08-0.22,0.1-0.33c0.09-0.69,0.17-1.38,0.28-2.07c0.24-1.54,0.53-3.08,0.95-4.58
		c0.17-0.61,0.35-1.21,0.55-1.81c0.21-0.64,0.47-1.25,0.71-1.87c0.13-0.29,0.27-0.58,0.4-0.87c0.27-0.5,0.53-1,0.8-1.49
		c0.02-0.03,0.04-0.05,0.06-0.08c0.77-1.27,1.72-2.35,2.89-3.21c0.68-0.5,1.41-0.9,2.2-1.18c0.31-0.11,0.63-0.17,0.94-0.26
		c0.51-0.08,1.02-0.11,1.54-0.1c0.07,0.03,0.15,0.03,0.23,0.03c0.11,0.01,0.21,0.03,0.31,0.04c0.85,0.15,1.64,0.47,2.38,0.94
		l0.05,0.03c0.03,0.02,0.06,0.04,0.09,0.06c0.54,0.38,1.04,0.82,1.5,1.31c0.38,0.42,0.72,0.88,1.06,1.34
		c0.33,0.52,0.65,1.04,0.94,1.59c0.44,0.84,0.85,1.7,1.24,2.57c0.28,0.71,0.55,1.43,0.77,2.16l0,0.06c0.19,0.69,0.34,1.38,0.49,2.08
		c0.12,0.58,0.25,1.16,0.37,1.74c0.01,0.05,0.02,0.1,0.03,0.15c0.08,0.36,0.15,0.73,0.23,1.09c0.05,0.27,0.1,0.55,0.15,0.82
		c0.09,0.45,0.17,0.91,0.26,1.36c0.11,0.6,0.22,1.19,0.32,1.79c0.08,0.42,0.15,0.84,0.23,1.27c0.06,0.33,0.12,0.65,0.19,0.98
		c0.09,0.52,0.19,1.04,0.28,1.57c0.04,0.22,0.08,0.44,0.13,0.68c0.3-0.36,0.6-0.69,0.87-1.04c0.17-0.22,0.32-0.45,0.29-0.75
		c-0.04-0.48-0.07-0.96-0.11-1.44l0-0.03c0-0.03-0.01-0.06-0.01-0.1c-0.02-0.2-0.03-0.41-0.05-0.61c-0.07-0.62-0.13-1.23-0.2-1.85
		c-0.07-0.49-0.13-0.99-0.2-1.48c-0.01-0.2-0.06-0.39-0.09-0.59c-0.1-0.64-0.22-1.27-0.34-1.9c-0.07-0.39-0.14-0.78-0.26-1.15
		c-0.09-0.53-0.23-1.05-0.37-1.57c-0.15-0.63-0.33-1.24-0.53-1.85c-0.1-0.39-0.25-0.76-0.39-1.13C24.2,29.67,24.2,29.64,24.17,29.63
		z M17.17,10.93c0.27,0.07,0.54,0.15,0.81,0.22c0.49,0.14,0.96,0.34,1.43,0.53c0.19,0.1,0.38,0.19,0.57,0.29
		c0.28,0.16,0.55,0.32,0.83,0.49c1.76,1.12,3.21,2.62,4.49,4.32c0.29,0.39,0.57,0.8,0.85,1.2c0.29,0.48,0.59,0.95,0.86,1.44
		c0.35,0.62,0.66,1.25,0.97,1.89c0.3,0.67,0.59,1.35,0.86,2.03c0.01,0.03,0.02,0.06,0.03,0.09c0.86,2.28,1.49,4.63,2,7.02
		c0.07,0.35,0.15,0.7,0.23,1.06c0,0.04,0.01,0.08,0.01,0.12c0.08,0.45,0.17,0.89,0.24,1.34c0.11,0.64,0.21,1.29,0.32,1.93
		c0.03,0.23,0.06,0.46,0.09,0.68c0.11,0.75,0.22,1.49,0.34,2.24c0.02,0.15,0.05,0.3,0.08,0.49c0.22-0.37,0.41-0.71,0.59-1.06
		c0.11-0.23,0.24-0.45,0.3-0.71c0.04-0.1,0.08-0.2,0.12-0.31c0.12-0.37,0.21-0.75,0.22-1.15c0.04-0.47-0.01-0.94-0.1-1.4
		c-0.1-0.49-0.24-0.97-0.33-1.46c-0.14-0.77-0.3-1.53-0.45-2.3c-0.12-0.66-0.26-1.31-0.41-1.95l-0.01-0.06
		c-0.31-1.32-0.69-2.61-1.11-3.9c-0.21-0.64-0.42-1.28-0.68-1.9c-0.02-0.11-0.07-0.21-0.12-0.31c-0.01-0.03-0.02-0.06-0.03-0.09
		c-0.01-0.04-0.03-0.08-0.04-0.11c-0.48-1.22-1.03-2.41-1.65-3.56c-0.34-0.66-0.72-1.29-1.12-1.9c-0.84-1.3-1.79-2.5-2.88-3.56
		c-1.23-1.21-2.59-2.19-4.12-2.91c-0.59-0.28-1.2-0.53-1.83-0.7c-0.03-0.04-0.08-0.04-0.12-0.05c-0.61-0.16-1.22-0.3-1.84-0.39
		c-0.62-0.09-1.25-0.14-1.87-0.17c-0.41-0.02-0.82,0.03-1.23,0.05c-0.54,0.02-1.07,0.08-1.61,0.17c-0.4,0.06-0.8,0.15-1.19,0.3
		c-0.58,0.17-1.14,0.39-1.69,0.65L8.91,9.55c-0.69,0.32-1.38,0.65-2.07,0.96c-0.23,0.1-0.36,0.25-0.42,0.5
		c-0.09,0.4-0.18,0.79-0.27,1.19c-0.01,0.06,0.02,0.08,0.06,0.1c0.19,0.1,0.38,0.19,0.57,0.29c0.44,0.24,0.84,0.15,1.21-0.17
		c0.24-0.15,0.49-0.27,0.75-0.38c0.6-0.26,1.22-0.48,1.84-0.7c0.25-0.07,0.51-0.15,0.76-0.22l0.06,0c0.51-0.13,1.02-0.24,1.54-0.31
		c0.18-0.02,0.35-0.05,0.53-0.08c0.18,0.01,0.36-0.03,0.54-0.04c0.12,0,0.23,0.01,0.34-0.03c0.34,0,0.67,0.01,1.01,0.01
		c0.37,0.04,0.74,0.07,1.11,0.11C16.7,10.84,16.93,10.88,17.17,10.93z M1.29,15.63c-0.04,0.06-0.08,0.12-0.11,0.19
		C0.7,16.57,0.38,17.4,0.2,18.29c-0.13,0.62-0.18,1.24-0.16,1.88c0.01,0.24,0,0.48,0.06,0.73c0.4-0.53,0.78-1.04,1.17-1.55
		c0.2-0.26,0.39-0.52,0.58-0.78c0.11-0.15,0.23-0.29,0.34-0.44c0.35-0.48,0.71-0.96,1.06-1.44c0.12-0.16,0.25-0.32,0.36-0.49
		c0.1-0.15,0.23-0.27,0.29-0.44c0.14-0.11,0.21-0.29,0.33-0.42c0.15-0.18,0.23-0.39,0.26-0.64c0.04-0.38,0.03-0.77,0.07-1.15
		c0-0.04-0.01-0.06-0.05-0.08c-0.24-0.08-0.48-0.17-0.72-0.24c-0.15-0.05-0.31-0.07-0.45,0.06c-0.63,0.57-1.23,1.18-1.73,1.88
		C1.49,15.31,1.38,15.47,1.29,15.63z M28.17,28.96c-0.09-0.3-0.18-0.59-0.26-0.89c-0.06-0.22-0.17-0.38-0.35-0.49
		c-0.26-0.17-0.54-0.32-0.81-0.48c-0.09,0.29-0.18,0.56-0.27,0.84c-0.07,0.23-0.15,0.45-0.14,0.7c-0.01,0.04,0,0.08,0,0.12
		c-0.01,0.17,0.04,0.32,0.07,0.48c0.18,1.05,0.37,2.09,0.56,3.14c0.07,0.39,0.12,0.78,0.22,1.16c0.04,0.26,0.08,0.52,0.14,0.77
		c0.04,0.24,0.08,0.47,0.12,0.71c0.2,1.1,0.41,2.2,0.61,3.3c0.19,1,0.37,2,0.56,3c0.09,0.48,0.18,0.97,0.28,1.49
		c0.16-0.29,0.35-0.51,0.5-0.76c0.15-0.18,0.26-0.37,0.38-0.58c0.16-0.28,0.24-0.58,0.22-0.92c-0.03-0.66-0.09-1.33-0.13-1.99
		c-0.03-0.28-0.05-0.56-0.08-0.84c-0.05-0.62-0.13-1.24-0.21-1.86c-0.09-0.66-0.2-1.32-0.31-1.98c-0.18-1.04-0.39-2.07-0.66-3.09
		l0-0.06C28.5,30.15,28.35,29.55,28.17,28.96z M5.05,41.07c-0.01,0.4,0.04,0.8,0.14,1.18c0.25,0.91,0.88,1.41,1.69,1.73
		c-0.02-1.56-0.17-3.11-0.01-4.65c0-0.14,0.05-0.28,0.03-0.42c0.07-0.41,0.1-0.82,0.13-1.23l0.01-0.04
		c0.09-0.86,0.19-1.72,0.32-2.57c0.16-1.05,0.36-2.08,0.66-3.09c0.15-0.5,0.35-0.98,0.52-1.47c0.18-0.34,0.36-0.68,0.54-1.01
		l0.05-0.07c0.36-0.57,0.79-1.08,1.31-1.5c0.74-0.59,1.58-0.89,2.49-0.96c0.92-0.07,1.81,0.05,2.66,0.45
		c0.59,0.29,1.11,0.69,1.58,1.17c0.63,0.71,1.12,1.53,1.49,2.42c0.57,1.36,1,2.77,1.37,4.2c0.14,0.55,0.27,1.1,0.41,1.64
		c0.01,0.07,0.03,0.15,0.04,0.22c0.13,0.58,0.25,1.16,0.36,1.75c0.14,0.67,0.23,1.34,0.31,2.02c0.04,0.33,0.08,0.67,0.12,1
		c0,0.08-0.01,0.17,0,0.25c0.09,0.66,0.11,1.33,0.17,1.99c0.06,0.74,0.12,1.48,0.18,2.22c0.01,0.09,0.03,0.13,0.12,0.1
		c0.47-0.15,0.94-0.29,1.41-0.43c0.07-0.02,0.1-0.05,0.09-0.14c-0.04-0.59-0.08-1.18-0.12-1.77c0-0.09,0-0.17,0-0.26
		c-0.06-0.95-0.13-1.89-0.23-2.83c-0.06-0.53-0.12-1.07-0.19-1.6c-0.04-0.36-0.09-0.71-0.13-1.07c-0.02-0.11-0.03-0.21-0.05-0.32
		c-0.15-1.08-0.34-2.14-0.59-3.2c-0.31-1.31-0.68-2.6-1.2-3.84c-0.24-0.57-0.48-1.14-0.79-1.68l-0.01-0.03l-0.02-0.03
		c-0.35-0.66-0.73-1.27-1.2-1.84c-0.32-0.39-0.66-0.77-1.02-1.12c-0.35-0.35-0.75-0.64-1.16-0.89c-1.8-1.09-3.66-1.24-5.57-0.33
		c-1.04,0.5-1.9,1.28-2.63,2.21c-0.29,0.37-0.56,0.75-0.78,1.17l-0.05,0.07c-0.49,0.86-0.88,1.77-1.18,2.72
		C5.95,32.4,5.68,33.64,5.5,34.9c-0.08,0.53-0.14,1.06-0.2,1.59c-0.07,0.68-0.12,1.36-0.16,2.04c-0.03,0.63-0.08,1.26-0.07,1.89
		C5.05,40.64,5.04,40.85,5.05,41.07z M1.95,11.22C2.09,11.14,2.2,11,2.32,10.89C3.23,10.05,4.2,9.3,5.23,8.64
		c0.3-0.19,0.6-0.37,0.9-0.56c0.13-0.06,0.26-0.13,0.39-0.19C6.91,7.69,7.3,7.5,7.69,7.31C7.84,7.24,8,7.18,8.16,7.11
		c0.63-0.26,1.27-0.48,1.92-0.67c0.66-0.19,1.32-0.35,1.98-0.49C12.38,5.9,12.69,5.84,13,5.8c0.19-0.03,0.35-0.1,0.48-0.26
		c0.26-0.31,0.41-0.7,0.66-1.02c0.04-0.05,0-0.09-0.03-0.12c-0.23-0.26-0.45-0.51-0.69-0.76c-0.15-0.16-0.32-0.25-0.55-0.19
		c-1.35,0.37-2.69,0.76-4.02,1.18C8.07,4.88,7.29,5.13,6.5,5.37C6,5.53,5.51,5.69,5.07,5.98c-0.5,0.32-0.93,0.73-1.3,1.22
		C3.59,7.42,3.42,7.65,3.29,7.92L3.24,7.99C2.68,8.96,2.3,10.02,1.97,11.1C1.95,11.14,1.95,11.18,1.95,11.22l-0.01,0.01l0.01,0
		L1.95,11.22z M18.72,39.4c-0.01-0.09-0.01-0.17-0.03-0.26c-0.12-0.91-0.29-1.82-0.53-2.71c-0.29-1.14-0.69-2.24-1.24-3.27
		c-0.25-0.48-0.57-0.92-0.92-1.32c-0.81-0.91-1.79-1.4-2.99-1.32c-0.23,0.02-0.45,0.06-0.67,0.12c-0.55,0.15-1.07,0.38-1.51,0.78
		l-0.06,0.04c-0.56,0.5-0.96,1.12-1.27,1.81c-0.48,1.08-0.75,2.21-0.73,3.41c-0.06,0.89,0.03,1.12,0.83,2.08
		c0.26-0.33,0.52-0.65,0.76-1c0.12-0.17,0.17-0.35,0.16-0.57c-0.03-0.66,0.11-1.29,0.23-1.93c0.05-0.14,0.09-0.29,0.14-0.43
		c0.26-0.76,0.69-1.34,1.41-1.63c0.36-0.14,0.73-0.2,1.11-0.22c0.3,0.03,0.59,0.08,0.87,0.22c0.59,0.3,0.97,0.81,1.27,1.41
		c0.15,0.29,0.25,0.6,0.38,0.89c0.01,0.03,0.01,0.06,0.02,0.09c0.45,1.29,0.78,2.62,1,3.98c0.03,0.27,0.07,0.55,0.1,0.82
		c0.05,0.38,0.09,0.77,0.13,1.15l0,0.06c0.07,0.86,0.14,1.73,0.2,2.59c0.06,0.8,0.12,1.61,0.17,2.41c0.01,0.1,0.03,0.12,0.12,0.12
		c0.42-0.01,0.83-0.01,1.25-0.01c0.11,0,0.13-0.03,0.13-0.15c-0.02-1.82,0.05-3.65-0.15-5.46c-0.03-0.33-0.05-0.65-0.11-0.98
		C18.8,39.9,18.77,39.65,18.72,39.4z M11.04,45.74c-0.01-0.09-0.02-0.17-0.03-0.26c-0.07-1.01-0.14-2.03-0.26-3.03
		c-0.06-0.47-0.23-0.85-0.57-1.14c-0.15-0.13-0.32-0.15-0.49-0.05c-0.26,0.16-0.48,0.37-0.57,0.68c-0.3,1.02-0.24,2.01,0.31,2.92
		c0.34,0.56,0.82,0.89,1.44,0.98C10.93,45.85,11.06,45.92,11.04,45.74z"/>
	<path fill-rule="evenodd" fill="#D9ADC4" d="M18.64,0c0.02,0.03,0.05,0.03,0.08,0.03c0.33,0,0.65,0.02,0.97,0.03
		c1.26,0.04,2.49,0.24,3.68,0.68c1.36,0.5,2.61,1.24,3.77,2.16c0.59,0.46,1.15,0.97,1.69,1.49c0.12,0.11,0.22,0.24,0.33,0.36
		c-0.04,0.01-0.1-0.02-0.14,0.04c0.11,0.07,0.04,0.12-0.02,0.17C28.96,5.01,28.89,4.98,28.84,5c-0.04,0.01-0.13,0.01-0.07,0.1
		c0.03,0.04,0.07,0.06,0.03,0.11c-0.04,0.05-0.08,0.01-0.12-0.01c-0.11-0.06-0.23,0.01-0.24,0.14c-0.01,0.06-0.03,0.05-0.07,0.05
		c-0.2-0.01-0.22,0.01-0.22,0.25L28.13,5.7l-0.05-0.01c-0.07-0.16-0.14-0.12-0.2,0.01L27.82,5.7c-0.18,0.03-0.29,0.21-0.46,0.25
		l-0.01,0.03c-1.03-0.97-2.12-1.84-3.3-2.57c-1.31-0.81-2.69-1.45-4.15-1.88c-0.69-0.2-1.38-0.36-2.08-0.48
		c-0.5-0.08-1-0.14-1.5-0.17c-0.48-0.02-0.95-0.07-1.43-0.05c-0.76,0.03-1.52,0.07-2.28,0.17c-0.8,0.11-1.59,0.25-2.37,0.44
		c-0.02,0-0.04,0-0.1,0c0.25-0.14,0.49-0.22,0.71-0.31c0.88-0.35,1.79-0.6,2.71-0.79c0.45-0.09,0.9-0.15,1.35-0.2
		c0.56-0.06,1.13-0.12,1.69-0.12L16.66,0C17.32,0,17.98,0,18.64,0z"/>
	<path fill-rule="evenodd" fill="#603865" d="M33.73,20.41c0.21,0.47,0.35,0.97,0.5,1.46c0.2,0.64,0.38,1.28,0.54,1.93
		c0.15,0.6,0.26,1.2,0.27,1.82c0,0.03-0.01,0.07,0.02,0.1c0,0.59,0,1.17,0,1.76c-0.04,0.03-0.02,0.08-0.03,0.13
		c-0.02,0.77-0.08,1.55-0.06,2.32c0,0.09-0.02,0.11-0.1,0.11c-0.21,0-0.21,0.01-0.27-0.2c-0.41-1.52-0.79-3.04-1.22-4.55
		c0.07-0.04,0.11-0.09,0.1-0.18c-0.01-0.19,0.06-0.36,0.09-0.54c0.04-0.23,0.11-0.45,0.18-0.67c0.03-0.11,0.06-0.24,0.05-0.35
		c-0.01-0.08-0.03-0.13,0.02-0.2c0.03-0.04,0.06-0.11-0.05-0.11c-0.08,0-0.1-0.09-0.04-0.13c0.1-0.07,0.03-0.1-0.01-0.13
		c-0.05-0.04-0.06-0.09-0.01-0.13c0.09-0.07,0.12-0.13-0.01-0.18L33.7,22.6c0.05-0.42,0.08-0.85,0.06-1.27
		c0-0.05,0.05-0.06,0.04-0.12c-0.06-0.24-0.09-0.5-0.11-0.75C33.67,20.42,33.7,20.42,33.73,20.41z"/>
	<path fill-rule="evenodd" fill="#CB88AC" d="M0,28.71c0.03-0.22,0.05-0.44,0.08-0.67c0.1-0.88,0.34-1.72,0.64-2.54
		c0.24-0.65,0.52-1.28,0.8-1.9c0.43-0.92,0.91-1.8,1.44-2.65c0.76-1.19,1.61-2.3,2.6-3.29c0.09,0.06,0.08,0.15,0.04,0.22
		c-0.12,0.21-0.14,0.48-0.3,0.67c-0.11,0.12-0.11,0.31-0.22,0.42c-0.13,0.12-0.15,0.34-0.34,0.42c-0.02,0.01-0.03,0.07-0.04,0.11
		c-0.01,0.04-0.02,0.08-0.04,0.11c-0.24,0.33-0.43,0.7-0.69,1.01c-0.13,0.15-0.24,0.32-0.37,0.46c-0.14,0.15-0.3,0.25-0.39,0.46
		c-0.06,0.12-0.19,0.23-0.25,0.37c-0.08,0.18-0.23,0.29-0.35,0.43c-0.13,0.15-0.25,0.3-0.35,0.47c-0.08,0.14-0.23,0.22-0.29,0.37
		c-0.05,0.11-0.13,0.19-0.21,0.26c-0.16,0.15-0.26,0.32-0.27,0.56c0,0.04-0.01,0.09-0.03,0.12c-0.14,0.19-0.16,0.43-0.27,0.63
		c-0.2,0.35-0.3,0.76-0.46,1.13c-0.11,0.25-0.13,0.53-0.24,0.78c-0.02,0.05-0.04,0.16,0.01,0.19c0.08,0.04,0.07-0.08,0.11-0.12
		c0.02-0.02,0.02-0.05,0.03-0.08c0.17-0.48,0.39-0.94,0.66-1.36c0.13-0.2,0.26-0.39,0.41-0.56c0.17-0.18,0.3-0.41,0.54-0.51
		c0.16-0.07,0.29-0.23,0.35-0.37c0.06-0.15,0.16-0.25,0.23-0.39c0.04-0.08,0.13-0.09,0.17-0.15c0.12-0.18,0.3-0.3,0.45-0.46
		c0.16-0.18,0.38-0.28,0.54-0.46c0.04-0.04,0.1-0.07,0.15-0.09c0.07-0.01,0.1-0.07,0.15-0.1c0.13-0.1,0.24-0.23,0.42-0.25
		c-0.21,0.34-0.41,0.68-0.63,1.02c-0.26,0.41-0.46,0.86-0.7,1.29c-0.07,0.12-0.11,0.24-0.2,0.35c-0.18,0.04-0.37,0.02-0.55,0.1
		c-0.1,0.04-0.14,0.12-0.22,0.17c-0.11,0.07-0.24,0.11-0.3,0.26C2.1,25.17,2.04,25.2,2,25.22c-0.19,0.08-0.32,0.25-0.45,0.41
		c-0.13,0.15-0.23,0.33-0.35,0.49C1,26.43,0.8,26.74,0.64,27.07c-0.22,0.45-0.37,0.92-0.46,1.41c-0.03,0.16-0.07,0.33-0.06,0.5
		l0,0.06c-0.03,0.09-0.08,0.18-0.03,0.28v0.06c-0.03,0-0.06,0-0.08,0C0,29.16,0,28.93,0,28.71z"/>
	<path fill-rule="evenodd" fill="#374596" d="M14.9,43.85c0.05,0.61,0.11,1.23,0.15,1.84c0.03,0.37,0.06,0.75,0.11,1.12
		c-0.06,0-0.12,0-0.17,0c-0.19-0.08-0.4-0.08-0.6-0.12c-0.27-0.05-0.54-0.09-0.82-0.13c-0.06-0.01-0.12-0.01-0.13-0.11
		c-0.02-0.37-0.06-0.74-0.09-1.12c0.16-0.06,0.27-0.18,0.38-0.31c0.12-0.15,0.2-0.35,0.37-0.44c0.19-0.09,0.29-0.28,0.44-0.42
		C14.67,44.05,14.72,43.87,14.9,43.85z"/>
	<path fill-rule="evenodd" fill="#BF6599" d="M0,29.38c0.03,0,0.05,0,0.08,0c0.02,0.14-0.02,0.27-0.06,0.4l-0.01,0L0,29.78
		C0,29.65,0,29.52,0,29.38z"/>
	<path fill-rule="evenodd" fill="#BF6599" d="M16.46,10.79c-0.37-0.04-0.74-0.08-1.11-0.11c0-0.07-0.06-0.07-0.1-0.1
		c-0.11-0.07-0.25-0.02-0.34-0.12c-0.17-0.19-0.38-0.2-0.61-0.19c-0.09,0-0.12,0.02-0.08,0.12c0.03,0.1,0.1,0.17,0.12,0.28
		c-0.11,0.04-0.23,0.03-0.34,0.03c0.01-0.09-0.05-0.12-0.1-0.17c-0.22-0.23-0.51-0.2-0.77-0.2c-0.23,0-0.48,0-0.71,0.02
		c-0.22,0.02-0.44,0.05-0.66,0.07c-0.1,0.01-0.25,0.06-0.29,0.01c-0.15-0.22-0.39-0.2-0.59-0.27c-0.12-0.04-0.25-0.08-0.34-0.15
		c-0.21-0.18-0.44-0.3-0.68-0.41C9.81,9.57,9.77,9.53,9.73,9.59c-0.03,0.04,0,0.08,0.03,0.12c0.16,0.26,0.32,0.51,0.48,0.77
		c0.01,0.02,0.04,0.05-0.01,0.09c-0.38-0.4-0.85-0.67-1.25-1.05c0.55-0.26,1.11-0.48,1.69-0.65c0.02,0.11,0.04,0.21,0.16,0.25
		c0.22,0.07,0.43,0.2,0.67,0.16c0.05-0.01,0.11,0.03,0.16,0.04c0.17,0.02,0.34,0.06,0.5,0.03c0.34-0.05,0.67-0.07,1-0.02
		c0.1,0.02,0.21,0.09,0.32-0.01c0.03-0.03,0.06,0.01,0.08,0.04c0.11,0.2,0.21,0.4,0.36,0.56c0.03,0.03,0.02,0.11,0.08,0.07
		c0.05-0.03,0-0.09-0.01-0.12c-0.06-0.17-0.15-0.33-0.2-0.51c-0.03-0.11,0-0.14,0.09-0.11c0.19,0.06,0.39,0.08,0.55,0.24
		c0.04,0.04,0.11,0.04,0.16,0.05c0.18,0.04,0.36,0,0.54,0.04c0.19,0.05,0.37,0.14,0.56-0.01c0.03-0.02,0.08,0,0.13-0.01
		c0.11-0.01,0.22-0.04,0.3-0.15c0.02-0.04,0.06-0.07,0.1-0.08c0.17-0.06,0.35-0.11,0.53-0.17c0.23-0.07,0.48,0,0.71-0.09
		c0.1-0.03,0.17-0.06,0.16-0.18c0-0.09,0.02-0.13,0.11-0.07c0.04,0.03,0.09,0.03,0.12,0.08c0.18,0.25,0.43,0.14,0.65,0.12
		c0.04,0,0.03-0.05,0.04-0.09c0.63,0.17,1.24,0.42,1.83,0.7c1.53,0.72,2.89,1.7,4.12,2.91c1.09,1.07,2.04,2.26,2.88,3.56
		c0.4,0.62,0.78,1.24,1.12,1.9c-0.06-0.01-0.1,0.03-0.13,0.07c-0.21,0.23-0.49,0.27-0.75,0.24c-0.38-0.04-0.74-0.16-1.11-0.29
		c-0.11-0.04-0.21-0.09-0.33-0.08c-0.29-0.4-0.56-0.81-0.85-1.2c-1.28-1.7-2.73-3.2-4.49-4.32c-0.27-0.17-0.55-0.33-0.83-0.49
		c0-0.07,0.01-0.15,0-0.21c-0.1-0.38-0.2-0.76-0.3-1.14c-0.01-0.04-0.01-0.1-0.06-0.08c-0.05,0.01-0.02,0.06-0.02,0.1
		c0.03,0.15-0.02,0.19-0.15,0.14c-0.06-0.02-0.11-0.04-0.18-0.05c-0.29-0.05-0.58-0.11-0.86-0.17c-0.4-0.1-0.81-0.08-1.22-0.15
		c-0.07-0.01-0.2-0.02-0.26,0.11c-0.03,0.06-0.09,0.08-0.13,0c-0.03-0.06-0.09-0.1-0.15-0.08c-0.07,0.02-0.15,0.06-0.2,0.11
		c-0.04,0.04,0.02,0.1,0.01,0.16C16.45,10.73,16.46,10.76,16.46,10.79z M19.5,10.13c-0.04,0.11,0.03,0.18,0.08,0.29
		C19.6,10.29,19.52,10.22,19.5,10.13z"/>
	<path fill-rule="evenodd" fill="#5F4F9A" d="M17.17,28.58c-0.46-0.48-0.98-0.89-1.58-1.17c-0.85-0.41-1.74-0.52-2.66-0.45
		c-0.91,0.07-1.75,0.37-2.49,0.96c-0.52,0.41-0.95,0.92-1.31,1.5l-0.05,0.07c-0.07-0.11-0.11-0.22-0.19-0.33
		c-0.07-0.1-0.07-0.25-0.21-0.3l-0.04-0.06c-0.01-0.04-0.04-0.05-0.07-0.06c-0.09-0.01-0.19-0.03-0.28-0.03
		c-0.16,0.01-0.28-0.15-0.45-0.1c-0.05-0.14-0.21-0.12-0.29-0.21c0.22-0.42,0.5-0.8,0.78-1.17c0.73-0.94,1.58-1.71,2.63-2.21
		c1.91-0.91,3.76-0.76,5.57,0.33c0.42,0.25,0.81,0.55,1.16,0.89c0.36,0.35,0.7,0.73,1.02,1.12c0.46,0.57,0.85,1.19,1.2,1.84
		l0.02,0.03l0.01,0.03c-0.07,0.01-0.12-0.03-0.18-0.08c-0.14-0.13-0.32-0.22-0.49-0.24c-0.17-0.03-0.33-0.12-0.51-0.08
		c-0.03,0.01-0.06-0.01-0.06-0.05c-0.01-0.08-0.06-0.08-0.12-0.06c-0.05,0.02-0.11,0.02-0.16,0.01c-0.14-0.04-0.27-0.06-0.42-0.04
		c-0.09,0.01-0.2,0.03-0.3,0C17.55,28.66,17.36,28.63,17.17,28.58z"/>
	<path fill-rule="evenodd" fill="#A5467D" d="M20.88,15.66c0.36,0.25,0.68,0.55,0.99,0.85c0.87,0.84,1.62,1.79,2.29,2.82
		c0.59,0.92,1.12,1.88,1.57,2.88c0.12,0.28,0.25,0.55,0.38,0.83c0.04,0.08,0.07,0.17,0.03,0.26c-0.03,0.07,0.05,0.11,0.05,0.2
		c-0.02,0.19-0.03,0.39-0.07,0.58c-0.08,0.04-0.16,0.1-0.24,0c-0.04-0.04-0.09-0.04-0.1,0.04c-0.01,0.08-0.06,0.1-0.13,0.07
		c-0.04-0.01-0.06-0.01-0.09,0.02c-0.16,0.17-0.35,0.05-0.52,0.06c-0.08,0-0.21,0.01-0.27-0.12c-0.04-0.1-0.13-0.11-0.22-0.1
		c-0.61-1.26-1.32-2.46-2.16-3.56c-1.25-1.62-2.71-2.94-4.51-3.79c-0.34-0.16-0.69-0.29-1.04-0.42c-0.16-0.34-0.32-0.67-0.48-1.01
		c-0.06-0.19-0.06-0.18,0.13-0.19c0.37-0.01,0.71,0.11,1.04,0.27c0.08,0.04,0.09-0.03,0.13-0.04c0.04,0.1-0.01,0.2,0.06,0.32
		c0.04-0.21,0.15-0.27,0.31-0.24c0.03,0,0.06-0.02,0.1-0.03c0.1-0.04,0.2-0.04,0.29-0.02c0.37,0.08,0.75,0.08,1.12,0.14
		c0.35,0.06,0.71,0.12,1.05,0.22C20.7,15.72,20.78,15.73,20.88,15.66z"/>
	<path fill-rule="evenodd" fill="#906684" d="M33.73,20.41c-0.03,0.01-0.06,0.01-0.05,0.06c0.03,0.25,0.05,0.5,0.11,0.75
		c0.01,0.06-0.04,0.07-0.04,0.12c0.02,0.43,0,0.85-0.06,1.27l0.01,0.07c0.13,0.05,0.1,0.11,0.01,0.18
		c-0.05,0.04-0.03,0.09,0.01,0.13c0.04,0.03,0.11,0.06,0.01,0.13c-0.05,0.04-0.04,0.13,0.04,0.13c0.11,0,0.08,0.07,0.05,0.11
		c-0.06,0.07-0.03,0.12-0.02,0.2c0.01,0.11-0.02,0.24-0.05,0.35c-0.07,0.22-0.14,0.45-0.18,0.67c-0.03,0.18-0.11,0.35-0.09,0.54
		c0.01,0.09-0.03,0.14-0.1,0.18c-0.26-0.85-0.52-1.7-0.8-2.54c-0.97-2.83-2.15-5.56-3.7-8.08l-0.02-0.04
		c0.02-0.22,0.01-0.44-0.06-0.64c-0.08-0.24-0.03-0.48-0.09-0.72c-0.03-0.14-0.03-0.31-0.04-0.46c-0.02-0.27-0.07-0.54-0.06-0.81
		c0.02-0.31-0.05-0.61-0.06-0.91c0-0.11-0.07-0.24,0.04-0.34c0.27,0.34,0.51,0.71,0.76,1.07c0.34,0.49,0.66,1,0.97,1.51
		c0.72,1.18,1.38,2.39,1.97,3.64c0.5,1.07,0.97,2.15,1.37,3.26C33.71,20.28,33.74,20.33,33.73,20.41z"/>
	<path fill-rule="evenodd" fill="#9B4693" d="M12.76,19.19c1.98-0.32,3.81,0.14,5.49,1.29c0.04,0.02,0.07,0.05,0.1,0.08
		c-0.07,0.02-0.13-0.01-0.18-0.04c-0.13-0.1-0.27-0.17-0.42-0.24c-0.3-0.14-0.61-0.28-0.93-0.38c-0.16-0.05-0.32-0.2-0.52-0.11
		l-0.04-0.01c-0.19-0.13-0.39-0.08-0.6-0.05c-0.13,0.02-0.27,0.01-0.37,0.13l-0.04,0c-0.15-0.11-0.25,0.03-0.37,0.09
		c-0.13,0.06-0.24,0.16-0.38,0.17c-0.03,0-0.06,0-0.06,0.05c0,0.03,0.02,0.04,0.05,0.05c0.04,0.02,0.1,0.03,0.11,0.1
		c-0.1-0.01-0.22-0.06-0.29,0.02c-0.06,0.07-0.11,0.11-0.18,0.15c-0.19,0.13-0.39,0.25-0.49,0.49c-0.04-0.01-0.07-0.02-0.11-0.03
		c-0.04-0.01-0.08-0.06-0.11,0C13.41,21,13.47,21,13.5,21.03c0.11,0.08,0.25,0.11,0.35,0.22c-0.05,0.05-0.09,0-0.13-0.02
		c-0.26-0.12-0.54-0.19-0.83-0.16c-0.1,0.01-0.23,0.07-0.24,0.2c-0.01,0.13,0.01,0.28,0.14,0.35c-0.31,0.09-0.63,0.15-0.94,0.26
		c-0.79,0.28-1.52,0.68-2.2,1.18C8.49,23.91,7.54,25,6.77,26.27c-0.02,0.03-0.04,0.05-0.06,0.08c-0.01-0.09-0.07-0.08-0.13-0.08
		c-0.12-0.01-0.25,0-0.35-0.05C5.97,26.08,5.69,26,5.41,25.95C5.19,25.92,5,25.76,4.76,25.78c0.34-0.67,0.74-1.29,1.16-1.89
		c0.52-0.73,1.1-1.4,1.74-2.01c0.04-0.04,0.08-0.07,0.12-0.1c0.32-0.07,0.63-0.18,0.95-0.2c0.09-0.01,0.19,0.01,0.27-0.03
		c0.21-0.09,0.44-0.09,0.66-0.11c0.26-0.02,0.51-0.09,0.77-0.1c0.05,0,0.12-0.02,0.11-0.11c0.13,0.02,0.22,0.14,0.38,0.15
		c-0.09-0.13-0.05-0.17,0.06-0.2c0.08-0.02,0.15-0.09,0.24-0.11c0.12-0.02,0.16-0.15,0.27-0.19c0.24-0.09,0.5-0.06,0.74-0.15
		c0.21-0.08,0.43-0.04,0.64,0c0.09,0.03,0.17,0.06,0.26,0.1c0.07,0.06,0.16,0.09,0.26,0.08c-0.09-0.06-0.17-0.11-0.26-0.17
		c-0.05-0.03-0.1-0.06-0.15-0.08c-0.27-0.14-0.54-0.28-0.79-0.44c0.02-0.09,0.11-0.1,0.16-0.15c0.06-0.06,0.16-0.12,0.15-0.21
		c-0.01-0.17,0.06-0.31,0.06-0.47c0.17,0.12,0.34,0.24,0.51,0.35c0.15,0.1,0.28,0.22,0.44,0.3c0.09,0.04,0.15,0,0.2-0.06
		c0.03-0.04,0.03-0.12-0.01-0.13c-0.14-0.03-0.22-0.16-0.34-0.22c-0.15-0.07-0.3-0.17-0.44-0.27C12.87,19.3,12.77,19.29,12.76,19.19
		z"/>
	<path fill-rule="evenodd" fill="#D9ADC4" d="M4.71,21.95C4.54,21.97,4.43,22.1,4.3,22.2c-0.05,0.04-0.08,0.09-0.15,0.1
		C4.1,22.31,4.04,22.35,4,22.39c-0.16,0.18-0.38,0.28-0.54,0.46c-0.14,0.16-0.33,0.27-0.45,0.46c-0.04,0.06-0.13,0.08-0.17,0.15
		c-0.07,0.13-0.17,0.23-0.23,0.39c-0.06,0.14-0.19,0.31-0.35,0.37c-0.24,0.1-0.38,0.33-0.54,0.51c-0.16,0.17-0.29,0.36-0.41,0.56
		c-0.27,0.43-0.49,0.88-0.66,1.36c-0.01,0.03-0.01,0.07-0.03,0.08c-0.04,0.04-0.03,0.16-0.11,0.12c-0.05-0.03-0.04-0.14-0.01-0.19
		c0.11-0.25,0.13-0.53,0.24-0.78c0.16-0.37,0.26-0.78,0.46-1.13c0.11-0.2,0.14-0.45,0.27-0.63c0.02-0.03,0.03-0.08,0.03-0.12
		c0-0.23,0.11-0.41,0.27-0.56c0.08-0.08,0.16-0.15,0.21-0.26c0.06-0.15,0.21-0.23,0.29-0.37c0.1-0.17,0.22-0.32,0.35-0.47
		c0.12-0.14,0.27-0.25,0.35-0.43c0.06-0.14,0.2-0.25,0.25-0.37c0.09-0.21,0.25-0.32,0.39-0.46c0.14-0.14,0.25-0.31,0.37-0.46
		c0.26-0.31,0.45-0.68,0.69-1.01c0.03-0.03,0.04-0.07,0.04-0.11c0.01-0.04,0.02-0.1,0.04-0.11c0.18-0.08,0.21-0.3,0.34-0.42
		c0.12-0.11,0.12-0.29,0.22-0.42c0.16-0.19,0.17-0.46,0.3-0.67c0.04-0.07,0.05-0.16-0.04-0.22c0.32-0.35,0.67-0.67,1.02-0.98
		c0.59-0.51,1.21-0.97,1.85-1.39c0.1-0.07,0.21-0.13,0.31-0.19l0.03,0.05c0.3,0.05,0.59,0.19,0.9,0.17c0.06,0,0.12-0.04,0.17-0.05
		c0.07-0.01,0.32,0.28,0.34,0.39c-0.11-0.12-0.23-0.11-0.35-0.04c-0.1,0.06-0.1,0.17-0.09,0.27c0.06,0.37,0.12,0.74,0.55,0.84
		c-0.34,0.18-0.68,0.36-1.01,0.57c-0.54,0.33-1.05,0.72-1.54,1.13c-0.5,0.43-0.97,0.9-1.42,1.4c-0.55,0.62-1.06,1.29-1.52,1.99
		C4.78,21.88,4.76,21.92,4.71,21.95z"/>
	<path fill-rule="evenodd" fill="#454998" d="M5.51,28.71c-0.25,0.62-0.5,1.24-0.71,1.87c-0.2,0.6-0.38,1.2-0.55,1.81
		c-0.41,1.5-0.7,3.04-0.95,4.58c-0.11,0.69-0.19,1.38-0.28,2.07c-0.01,0.11-0.05,0.22-0.1,0.33c-0.13-0.12-0.23-0.26-0.34-0.39
		c-0.45-0.58-0.77-1.22-0.88-1.97c-0.08-0.58-0.04-1.15,0.05-1.72c0.35-2.04,0.81-4.05,1.48-6c0.16-0.45,0.32-0.9,0.5-1.34
		c0.08,0.03,0.19,0.01,0.23,0.05c0.17,0.13,0.36,0.18,0.56,0.21c0.1,0.02,0.18,0.1,0.28,0.11c0.12,0.01,0.23,0.05,0.31,0.15
		c0.05,0.05,0.11,0.12,0.18,0.12C5.41,28.59,5.46,28.65,5.51,28.71z"/>
	<path fill-rule="evenodd" fill="#D9ADC4" d="M7.69,7.31C7.3,7.5,6.91,7.69,6.52,7.89C6.39,7.95,6.26,8.01,6.14,8.08
		c-0.06-0.31-0.15-0.6-0.35-0.84C5.69,7.11,5.61,6.96,5.44,6.9C5.36,6.87,5.32,6.88,5.27,6.97c-0.05,0.1-0.11,0.22-0.2,0.29
		c-0.14,0.11-0.28,0.23-0.46,0.3C4.42,7.63,4.17,7.63,4.04,7.84L3.98,7.84c-0.11-0.06-0.21-0.02-0.3,0.04
		C3.55,7.96,3.43,8.07,3.29,7.92c0.13-0.27,0.3-0.5,0.47-0.73c0.37-0.48,0.8-0.9,1.3-1.22C5.51,5.69,6,5.53,6.5,5.37
		c0.79-0.25,1.57-0.49,2.36-0.74c1.33-0.42,2.67-0.81,4.02-1.18c0.23-0.06,0.4,0.03,0.55,0.19c0.23,0.25,0.46,0.51,0.69,0.76
		c0.03,0.03,0.07,0.06,0.03,0.12c-0.24,0.32-0.39,0.71-0.66,1.02C13.35,5.7,13.19,5.77,13,5.8c-0.31,0.04-0.62,0.1-0.93,0.15
		c-0.04-0.19-0.19-0.29-0.34-0.32c-0.22-0.05-0.46-0.02-0.69,0.04c-0.26,0.07-0.52,0.13-0.78,0.18C9.8,5.95,9.34,6.11,8.91,6.33
		C8.76,6.41,8.6,6.42,8.46,6.5C8.28,6.59,8.1,6.71,7.91,6.79C7.76,6.85,7.63,7.14,7.69,7.31z"/>
	<path fill-rule="evenodd" fill="#786CA9" d="M17.17,28.58c0.19,0.04,0.38,0.08,0.56,0.14c0.11,0.03,0.21,0.01,0.3,0
		c0.15-0.01,0.28,0,0.42,0.04c0.05,0.01,0.1,0.01,0.16-0.01c0.05-0.02,0.1-0.03,0.12,0.06c0.01,0.04,0.03,0.06,0.06,0.05
		c0.18-0.04,0.34,0.06,0.51,0.08c0.16,0.03,0.35,0.11,0.49,0.24c0.05,0.05,0.1,0.09,0.18,0.08c0.3,0.54,0.55,1.11,0.79,1.68
		c0.52,1.24,0.89,2.53,1.2,3.84c0.25,1.06,0.44,2.12,0.59,3.2c0.01,0.11,0.03,0.21,0.05,0.32c-0.03-0.01-0.05-0.02-0.05-0.05
		c-0.06-0.24-0.27-0.36-0.38-0.56l-0.06-0.06c-0.13-0.01-0.23-0.11-0.35-0.16c-0.21-0.08-0.38-0.22-0.59-0.3
		c-0.2-0.07-0.4-0.17-0.58-0.3c-0.04-0.03-0.08-0.02-0.12-0.02c-0.13-0.55-0.26-1.1-0.41-1.64c-0.37-1.43-0.8-2.84-1.37-4.2
		C18.29,30.11,17.81,29.29,17.17,28.58z"/>
	<path fill-rule="evenodd" fill="#454998" d="M15.94,35.52c-0.13-0.3-0.23-0.6-0.38-0.89c-0.31-0.59-0.69-1.11-1.27-1.41
		c-0.28-0.14-0.57-0.19-0.87-0.22l0-0.03c-0.13-0.16-0.27-0.29-0.48-0.29c-0.04,0-0.08-0.01-0.09-0.05
		c-0.01-0.04-0.02-0.09-0.06-0.1c-0.15-0.05-0.25-0.18-0.4-0.25c-0.37-0.17-0.7-0.41-1.08-0.58c-0.07-0.03-0.17,0.01-0.2-0.05
		c-0.07-0.11-0.2-0.13-0.27-0.22c0.44-0.4,0.96-0.62,1.51-0.78c0.22-0.06,0.44-0.1,0.67-0.12c0.01,0.05,0.02,0.11,0.07,0.13
		c0.21,0.14,0.4,0.3,0.63,0.42c0.16,0.09,0.32,0.17,0.48,0.24c0.14,0.06,0.27,0.15,0.41,0.2c0.23,0.08,0.46,0.12,0.68,0.2
		c0.23,0.08,0.47,0.09,0.71,0.12c0.36,0.4,0.67,0.84,0.92,1.32c0.55,1.03,0.95,2.13,1.24,3.27c-0.15,0.09-0.33-0.03-0.48,0.06
		l-0.04-0.01c-0.08-0.07-0.17-0.04-0.26-0.05c-0.05,0-0.1,0.01-0.14-0.01c-0.14-0.09-0.29-0.17-0.42-0.26
		c-0.24-0.18-0.48-0.36-0.66-0.62C16.1,35.44,16.03,35.43,15.94,35.52z"/>
	<path fill-rule="evenodd" fill="#454998" d="M28.65,30.8c0.26,1.02,0.48,2.05,0.66,3.09c0.11,0.66,0.22,1.32,0.31,1.98
		c0.09,0.62,0.16,1.24,0.21,1.86c0.02,0.28,0.05,0.56,0.08,0.84c-0.06-0.01-0.1,0.03-0.12,0.09c-0.03,0.1-0.07,0.2-0.1,0.3
		c-0.16,0.6-0.32,1.2-0.47,1.8c-0.06,0.23-0.16,0.44-0.13,0.68c0.03,0.25,0.04,0.53,0.35,0.61c-0.15,0.25-0.34,0.47-0.5,0.76
		c-0.1-0.53-0.19-1.01-0.28-1.49c-0.19-1-0.37-2-0.56-3c-0.21-1.1-0.41-2.2-0.61-3.3c-0.04-0.23-0.08-0.47-0.12-0.71
		c0.1-0.12,0.23-0.22,0.31-0.35c0.14-0.23,0.32-0.43,0.39-0.71c0.03-0.12,0.09-0.25,0.21-0.31c0.09-0.04,0.1-0.1,0.06-0.18
		c-0.1-0.18-0.06-0.35,0-0.53c0.12-0.37,0.18-0.76,0.25-1.14C28.58,31,28.53,30.87,28.65,30.8z"/>
	<path fill-rule="evenodd" fill="#BB8AA3" d="M28.61,10.73c-0.11,0.1-0.04,0.23-0.04,0.34c0.01,0.3,0.07,0.6,0.06,0.91
		c-0.01,0.27,0.04,0.54,0.06,0.81c0.01,0.16,0.01,0.32,0.04,0.46c0.05,0.24,0.01,0.49,0.09,0.72c0.07,0.2,0.08,0.42,0.06,0.64
		c-0.23-0.35-0.46-0.7-0.69-1.05c-0.27-0.41-0.56-0.81-0.85-1.21c-0.01-0.2,0-0.4-0.05-0.59c-0.06-0.23-0.08-0.46-0.14-0.68
		c-0.1-0.38-0.24-0.73-0.45-1.05c-0.2-0.31-0.45-0.54-0.78-0.67c-0.43-0.17-0.89-0.26-1.33-0.39c-0.16-0.05-0.31-0.13-0.49-0.09
		c-0.46-0.37-0.92-0.73-1.4-1.06c-0.79-0.53-1.61-0.98-2.49-1.33l-0.02-0.02c0.01-0.08,0.06-0.06,0.11-0.07
		c0.25-0.01,0.51,0,0.76-0.01c0.31-0.02,0.62-0.01,0.92,0.02c0.26,0.02,0.52,0.02,0.77,0.12c0.15,0.05,0.3,0.08,0.45,0.13
		c0.18,0.06,0.36,0.15,0.55,0.21c0.61,0.18,1.16,0.48,1.69,0.83c0.27,0.18,0.53,0.39,0.83,0.51c0.1,0.04,0.19,0.12,0.31,0.08
		c0.3,0.3,0.58,0.62,0.85,0.95c0.27,0.32,0.54,0.64,0.8,0.97C28.37,10.38,28.52,10.54,28.61,10.73z"/>
	<path fill-rule="evenodd" fill="#454998" d="M7.57,28.39c0.09,0.09,0.24,0.07,0.29,0.21c0.16-0.05,0.29,0.11,0.45,0.1
		c0.09,0,0.19,0.02,0.28,0.03c0.04,0,0.06,0.01,0.07,0.06l0.04,0.06c0.13,0.06,0.14,0.21,0.21,0.3c0.07,0.1,0.12,0.22,0.19,0.33
		c-0.18,0.34-0.36,0.68-0.54,1.01c-0.03-0.01-0.06-0.06-0.06-0.05c-0.02,0.08-0.15,0.06-0.15,0.16c0,0.03-0.02,0.05-0.04,0.05
		c-0.03,0-0.03-0.03-0.04-0.05c-0.03-0.07-0.07-0.12-0.15-0.11c-0.03,0.06,0.11,0.08,0.02,0.15c-0.05,0.04-0.08,0.12-0.16,0.04
		c-0.02-0.02-0.06-0.03-0.07,0.01c-0.06,0.15-0.22,0.16-0.32,0.23c-0.15,0.09-0.23,0.19-0.23,0.37c0,0.03,0,0.06-0.03,0.08
		C7.12,31.49,7,31.65,6.94,31.86L6.9,31.9c-0.11,0.01-0.13,0.12-0.18,0.2c-0.03,0.06-0.07,0.11-0.12,0.15
		c-0.15,0.12-0.18,0.24-0.09,0.42c0.02,0.04,0.02,0.08-0.01,0.11c-0.07,0.06-0.1,0.14-0.09,0.23c0,0.03-0.02,0.06-0.05,0.06
		c-0.05,0-0.1,0.01-0.07,0.09c-0.11,0.03-0.08,0.17-0.14,0.22c-0.13,0.11-0.11,0.21-0.02,0.32c0.04,0.05,0.04,0.08-0.02,0.12
		c-0.08,0.05-0.15,0.08-0.24,0.04L5.8,33.88l0.01,0.05c0.06,0.01,0.11,0.12,0.19,0.05c0.04-0.03,0.07-0.04,0.09,0.01
		c0.02,0.05-0.01,0.07-0.04,0.1C5.95,34.2,6,34.38,5.89,34.48l0.03,0.06c0.08,0.08,0.04,0.19,0.06,0.29
		c0.01,0.06-0.08,0.04-0.11,0.06c-0.04,0.03-0.06,0.06-0.03,0.1c0.03,0.04,0.06,0.04,0.1,0.01c0.03-0.02,0.04-0.09,0.09-0.05
		c0.04,0.03,0.07,0.11,0.05,0.15c-0.04,0.07-0.02,0.18-0.06,0.23c-0.14,0.16-0.06,0.24,0.06,0.34c0.05,0.05,0.07,0.15,0.08,0.24
		c0.01,0.07-0.07,0.03-0.1,0.06C6.02,36.01,5.98,36.05,6,36.1c0.02,0.06,0.07,0.03,0.11,0.01c0.04-0.02,0.08-0.01,0.1,0.04
		c0.02,0.05,0,0.08-0.04,0.1c-0.06,0.02-0.07,0.06-0.05,0.12c0.02,0.05,0.05,0.08,0.12,0.06c0.1-0.03,0.16-0.01,0.11,0.12
		c-0.02,0.06,0,0.1,0.03,0.15c0.13,0.22,0.24,0.44,0.38,0.66c0.08,0.12,0.15,0.24,0.27,0.33C7,38.09,6.97,38.5,6.9,38.91
		c-0.04,0-0.08,0.03-0.11,0.06c-0.41,0.36-0.83,0.71-1.21,1.11c-0.1,0.1-0.2,0.19-0.3,0.28c0-0.1,0.09-0.15,0.09-0.24
		c0.03,0,0.06-0.01,0.05-0.05L5.4,40.04c-0.03,0.01-0.03,0.04-0.04,0.07c-0.13,0.06-0.18,0.22-0.29,0.31
		c-0.01-0.63,0.04-1.26,0.07-1.89c0.04-0.68,0.09-1.36,0.16-2.04c0.06-0.53,0.12-1.06,0.2-1.59c0.18-1.26,0.45-2.5,0.84-3.72
		c0.3-0.95,0.69-1.86,1.18-2.72L7.57,28.39z"/>
	<path fill-rule="evenodd" fill="#D9ADC4" d="M16.06,5.27c-0.16-0.2-0.18-0.45-0.19-0.69c-0.01-0.28,0.02-0.55,0.11-0.81
		c0.11-0.33,0.37-0.52,0.7-0.53c0.28-0.01,0.56,0.03,0.84,0.07c0.62,0.09,1.24,0.22,1.84,0.39c0.82,0.24,1.61,0.54,2.39,0.92
		c0.74,0.37,1.45,0.8,2.13,1.28c0.03,0.02,0.05,0.04,0.08,0.07c-0.05,0.06-0.1,0.04-0.15,0.01c-0.1-0.04-0.2-0.11-0.31-0.1
		c-0.23,0.02-0.44-0.07-0.66-0.11c-0.18-0.03-0.37-0.04-0.55-0.07c-0.13-0.02-0.26-0.01-0.39-0.05c-0.17-0.05-0.35-0.03-0.52-0.05
		c-0.18-0.03-0.4,0-0.59,0.09c-0.03,0.01-0.06,0.01-0.07-0.02c-0.08-0.14-0.21-0.1-0.32-0.1c-0.25,0-0.51,0.03-0.76-0.03
		c-0.11-0.03-0.21,0.03-0.31,0c-0.23-0.09-0.48-0.06-0.72-0.1c-0.23-0.04-0.46-0.1-0.7-0.08c-0.07,0-0.15-0.02-0.22-0.03
		c-0.22-0.02-0.42-0.24-0.65-0.06h-0.03c-0.13-0.14-0.29-0.03-0.43-0.04C16.39,5.19,16.22,5.21,16.06,5.27z"/>
	<path fill-rule="evenodd" fill="#9B4693" d="M28.84,23.35c-0.27-0.68-0.56-1.36-0.86-2.03c0.08-0.05,0.16-0.09,0.16-0.23
		c0-0.07,0.09-0.11,0.13-0.08c0.13,0.1,0.18-0.01,0.24-0.09c0.02-0.03,0.04-0.08,0.09-0.06c0.04,0.02,0.08,0.05,0.08,0.1
		c0.01,0.14,0.09,0.14,0.18,0.1c0.06-0.02,0.07,0,0.08,0.04c0.03,0.08,0.06,0.14,0.15,0.07c0.03-0.02,0.04,0.02,0.05,0.05
		c0.01,0.05,0.01,0.12,0.03,0.16c0.03,0.06,0.03,0.18,0.13,0.17c0.1-0.01,0.19-0.04,0.29,0c0.05,0.02,0.04-0.03,0.04-0.07
		c-0.01-0.04,0.02-0.07,0.06-0.07c0.03-0.01,0.06,0,0.07,0.03c0.01,0.12,0.17,0.17,0.11,0.32l0.04,0.01l0,0
		c0.01,0.06,0.02,0.14,0.1,0.11c0.15-0.04,0.2,0.07,0.2,0.18c0,0.13,0.06,0.06,0.1,0.05c0.26,0.62,0.47,1.26,0.68,1.9
		c0.42,1.28,0.8,2.58,1.11,3.9l0.01,0.06c-0.09,0.03-0.08,0.12-0.08,0.18c-0.01,0.27,0,0.54-0.03,0.81l0,0.05
		c0.05,0.23-0.02,0.46-0.01,0.69c0.01,0.21-0.06,0.42,0,0.63c0.01,0.05,0.02,0.12-0.02,0.16c-0.11,0.12-0.08,0.28-0.08,0.42
		c-0.01,0.24,0.05,0.49,0.09,0.73c0.03,0.16,0.02,0.33,0.02,0.49c0,0.18-0.03,0.35,0.03,0.53c0.02,0.06,0,0.1-0.01,0.15
		c-0.19,0-0.32-0.15-0.32-0.34c0-0.08-0.02-0.16-0.07-0.23c-0.02-0.03-0.06-0.08-0.05-0.1c0.06-0.14-0.02-0.26-0.05-0.38
		c-0.04-0.19-0.09-0.37-0.08-0.57c0-0.05,0-0.1-0.06-0.1c-0.02-0.04-0.02-0.09-0.03-0.13c-0.02-0.19,0.08-0.4-0.1-0.55
		c-0.02-0.02-0.01-0.06,0-0.09c0.02-0.06,0.02-0.12-0.02-0.17c-0.03-0.05-0.03-0.1,0-0.14c0.02-0.04,0.02-0.07,0-0.12
		c-0.05-0.16,0.06-0.34-0.06-0.49c0.14-0.19-0.03-0.39,0.02-0.58c0.03-0.1,0.04-0.2-0.03-0.29l0-0.04c0.07-0.1,0.04-0.21,0.01-0.31
		c-0.04-0.14-0.07-0.26,0-0.4l0-0.06c-0.04-0.2-0.06-0.41-0.1-0.61c-0.04-0.22-0.05-0.45-0.13-0.65c-0.05-0.12-0.05-0.25-0.05-0.37
		c0-0.14-0.01-0.3-0.05-0.41c-0.07-0.21,0.05-0.45-0.12-0.62l0.01-0.07l-0.01-0.05c-0.14-0.09-0.15-0.28-0.25-0.4
		c-0.05-0.06-0.07-0.14-0.06-0.23c0.01-0.06-0.02-0.11-0.07-0.14c-0.06-0.04-0.1-0.1-0.13-0.16c-0.05-0.09-0.11-0.15-0.19-0.2
		c-0.12-0.08-0.25-0.13-0.36-0.21C29.42,23.4,29.14,23.3,28.84,23.35z"/>
	<path fill-rule="evenodd" fill="#374596" d="M18.81,40.14c0.06,0.32,0.07,0.65,0.11,0.98c0.19,1.82,0.13,3.64,0.15,5.46
		c0,0.12-0.03,0.15-0.13,0.15c-0.42,0-0.83,0-1.25,0.01c-0.09,0-0.11-0.02-0.12-0.12c-0.05-0.8-0.11-1.61-0.17-2.41
		c-0.07-0.86-0.13-1.73-0.2-2.59l0-0.06c0.08,0.01,0.12-0.05,0.17-0.1c0.33-0.36,0.66-0.71,1.03-1.03
		C18.52,40.32,18.63,40.16,18.81,40.14z"/>
	<path fill-rule="evenodd" fill="#374596" d="M10.84,31.42c0.07,0.1,0.2,0.11,0.27,0.22c0.03,0.05,0.13,0.01,0.2,0.05
		c0.37,0.17,0.71,0.41,1.08,0.58c0.15,0.07,0.25,0.19,0.4,0.25c0.04,0.01,0.05,0.06,0.06,0.1c0.01,0.04,0.04,0.05,0.09,0.05
		c0.21,0,0.35,0.14,0.48,0.29l0,0.03c-0.38,0.01-0.75,0.07-1.11,0.22c-0.72,0.29-1.15,0.87-1.41,1.63
		c-0.05,0.14-0.09,0.29-0.14,0.43c-0.11-0.02-0.15,0.09-0.22,0.15c-0.27,0.2-0.58,0.33-0.84,0.57c-0.17,0.16-0.36,0.3-0.55,0.44
		c-0.12,0.09-0.22,0.23-0.37,0.27c-0.01-1.2,0.25-2.34,0.73-3.41c0.31-0.69,0.72-1.32,1.27-1.81L10.84,31.42z"/>
	<path fill-rule="evenodd" fill="#454998" d="M14.9,43.85c-0.18,0.02-0.24,0.21-0.35,0.31c-0.15,0.14-0.25,0.33-0.44,0.42
		c-0.17,0.08-0.25,0.29-0.37,0.44c-0.11,0.13-0.22,0.25-0.38,0.31c-0.04-0.36-0.08-0.72-0.11-1.08c-0.07-0.77-0.15-1.54-0.22-2.31
		c-0.06-0.69-0.12-1.38-0.18-2.07c-0.01-0.11-0.02-0.22-0.02-0.34c0.1,0.01,0.19-0.08,0.28-0.03c0.13,0.08,0.27,0.09,0.39,0.14
		c0.22,0.1,0.45,0.2,0.61,0.39c0.13,0.16,0.3,0.19,0.48,0.17c0.09,1.03,0.18,2.06,0.27,3.09C14.87,43.48,14.89,43.66,14.9,43.85z"/>
	<path fill-rule="evenodd" fill="#374596" d="M7.03,37.68c-0.12-0.08-0.19-0.21-0.27-0.33c-0.14-0.21-0.25-0.44-0.38-0.66
		c-0.03-0.05-0.06-0.09-0.03-0.15c0.05-0.13-0.02-0.15-0.11-0.12c-0.06,0.02-0.09-0.01-0.12-0.06c-0.03-0.05-0.01-0.1,0.05-0.12
		c0.04-0.01,0.06-0.05,0.04-0.1c-0.02-0.05-0.05-0.05-0.1-0.04C6.08,36.13,6.03,36.16,6,36.1c-0.02-0.05,0.02-0.1,0.05-0.13
		c0.03-0.03,0.11,0,0.1-0.06c-0.01-0.08-0.03-0.19-0.08-0.24c-0.12-0.11-0.2-0.18-0.06-0.34c0.04-0.05,0.02-0.15,0.06-0.23
		c0.02-0.04,0-0.12-0.05-0.15C5.98,34.91,5.97,34.98,5.94,35c-0.04,0.03-0.07,0.03-0.1-0.01c-0.03-0.04-0.01-0.07,0.03-0.1
		c0.04-0.03,0.13,0,0.11-0.06c-0.02-0.1,0.02-0.21-0.06-0.29l-0.03-0.06C6,34.38,5.95,34.2,6.06,34.1c0.03-0.03,0.06-0.05,0.04-0.1
		C6.07,33.94,6.04,33.95,6,33.98c-0.08,0.07-0.13-0.04-0.19-0.05L5.8,33.88l0.06-0.01c0.09,0.04,0.16,0.01,0.24-0.04
		c0.06-0.04,0.06-0.07,0.02-0.12c-0.09-0.11-0.11-0.22,0.02-0.32c0.07-0.05,0.03-0.19,0.14-0.22c-0.02-0.08,0.02-0.09,0.07-0.09
		c0.03,0,0.05-0.03,0.05-0.06c-0.01-0.09,0.02-0.17,0.09-0.23c0.03-0.03,0.03-0.07,0.01-0.11c-0.09-0.18-0.07-0.3,0.09-0.42
		c0.05-0.04,0.09-0.09,0.12-0.15c0.04-0.08,0.07-0.19,0.18-0.2l0.03-0.04c0.07-0.21,0.19-0.37,0.37-0.48
		c0.03-0.02,0.03-0.05,0.03-0.08c0-0.18,0.08-0.27,0.23-0.37c0.11-0.07,0.27-0.07,0.32-0.23c0.01-0.03,0.05-0.03,0.07-0.01
		c0.08,0.08,0.11,0,0.16-0.04c0.09-0.07-0.05-0.09-0.02-0.15c0.08-0.01,0.12,0.04,0.15,0.11c0.01,0.02,0.01,0.05,0.04,0.05
		c0.03,0,0.05-0.03,0.04-0.05c0-0.11,0.12-0.08,0.15-0.16c0-0.02,0.04,0.04,0.06,0.05c-0.18,0.49-0.38,0.97-0.52,1.47
		c-0.29,1.01-0.5,2.05-0.66,3.09c-0.13,0.86-0.24,1.71-0.32,2.57L7.03,37.68z"/>
	<path fill-rule="evenodd" fill="#BB8AA3" d="M27.35,5.98l0.01-0.03c0.17-0.05,0.28-0.22,0.46-0.25l0.05-0.01
		c0.06-0.13,0.13-0.16,0.2-0.01l0.05,0.01l0.02-0.05c0-0.24,0.02-0.26,0.22-0.25c0.03,0,0.06,0.01,0.07-0.05
		c0.01-0.13,0.13-0.2,0.24-0.14c0.04,0.02,0.08,0.06,0.12,0.01c0.04-0.05-0.01-0.07-0.03-0.11c-0.06-0.09,0.03-0.09,0.07-0.1
		c0.06-0.02,0.12,0.01,0.18-0.04c0.06-0.06,0.13-0.1,0.02-0.17c0.04-0.06,0.1-0.02,0.14-0.04c0.54,0.52,1.03,1.1,1.51,1.68
		c0.3,0.36,0.58,0.73,0.87,1.09c0.02,0.03,0.05,0.05,0.05,0.09c-0.17,0.14-0.37,0.24-0.55,0.37c-0.39,0.26-0.8,0.48-1.18,0.76
		c-0.19-0.23-0.39-0.45-0.58-0.68c-0.59-0.71-1.23-1.38-1.89-2.02L27.35,5.98z M28.01,5.9c0-0.05-0.06-0.07-0.09-0.1
		c-0.03-0.03-0.06-0.01-0.07,0.02c-0.03,0.08-0.08,0.1-0.15,0.12C27.66,5.94,27.63,6,27.66,6.06c0.03,0.06,0.07,0.04,0.1,0
		c0.05-0.06,0.12-0.05,0.18-0.08C27.98,5.97,28.01,5.95,28.01,5.9z"/>
	<path fill-rule="evenodd" fill="#B54A8F" d="M8.98,9.53c0.39,0.39,0.87,0.65,1.25,1.05c0.05-0.04,0.03-0.07,0.01-0.09
		c-0.16-0.26-0.32-0.52-0.48-0.77C9.73,9.67,9.7,9.63,9.73,9.59c0.04-0.05,0.08-0.01,0.13,0.01C10.1,9.7,10.33,9.82,10.54,10
		c0.09,0.07,0.22,0.11,0.34,0.15c0.2,0.08,0.44,0.05,0.59,0.27c0.03,0.05,0.19,0,0.29-0.01c0.22-0.02,0.44-0.06,0.66-0.07
		c0.24-0.02,0.48-0.02,0.71-0.02c0.26,0,0.55-0.03,0.77,0.2c0.05,0.05,0.11,0.09,0.1,0.17c-0.18,0-0.36,0.05-0.54,0.04
		c-0.07-0.15-0.2-0.17-0.33-0.17c-0.09,0-0.18,0.03-0.25,0c-0.16-0.05-0.32,0.02-0.47,0c-0.19-0.02-0.37,0.07-0.56,0.07
		c-0.15,0-0.28,0.07-0.43,0.09c-0.05,0.01-0.07,0.05-0.09,0.09c-0.06,0.11-0.04,0.21,0.01,0.31c-0.25,0.07-0.51,0.15-0.76,0.22
		c-0.1-0.02-0.16-0.11-0.22-0.18c-0.36-0.39-0.8-0.52-1.28-0.46c-0.4,0.05-0.79,0.16-1.13,0.42c-0.15,0.11-0.29,0.23-0.4,0.39
		c-0.12,0.18-0.09,0.57,0.05,0.67c0.13,0.09,0.26,0.16,0.39,0.24c-0.37,0.32-0.77,0.41-1.21,0.17c-0.19-0.1-0.38-0.2-0.57-0.29
		c-0.04-0.02-0.07-0.04-0.06-0.1c0.09-0.4,0.18-0.79,0.27-1.19c0.06-0.25,0.19-0.4,0.42-0.5c0.7-0.31,1.38-0.64,2.07-0.96L8.98,9.53
		z"/>
	<path fill-rule="evenodd" fill="#B54A8F" d="M28.84,23.35c0.31-0.05,0.59,0.06,0.84,0.23c0.12,0.08,0.25,0.13,0.36,0.21
		c0.08,0.05,0.15,0.12,0.19,0.2c0.03,0.06,0.07,0.12,0.13,0.16c0.05,0.03,0.08,0.08,0.07,0.14c-0.01,0.09,0.01,0.17,0.06,0.23
		c0.1,0.12,0.11,0.3,0.25,0.4l0.01,0.05l-0.01,0.07c0.18,0.17,0.06,0.42,0.12,0.62c0.04,0.11,0.05,0.27,0.05,0.41
		c0,0.12,0,0.25,0.05,0.37c0.08,0.21,0.09,0.44,0.13,0.65c0.04,0.2,0.06,0.41,0.1,0.61l0,0.06c-0.07,0.13-0.04,0.26,0,0.4
		c0.03,0.1,0.06,0.21-0.01,0.31l0,0.04c0.07,0.09,0.06,0.18,0.03,0.29c-0.06,0.19,0.11,0.39-0.02,0.58
		c0.12,0.15,0.01,0.33,0.06,0.49c0.02,0.05,0.02,0.08,0,0.12c-0.02,0.05-0.03,0.1,0,0.14c0.04,0.05,0.04,0.11,0.02,0.17
		c-0.01,0.03-0.02,0.07,0,0.09c0.18,0.16,0.08,0.37,0.1,0.55c0.01,0.05,0.01,0.09,0.03,0.13c-0.03,0.13-0.15,0.23-0.15,0.33
		c0,0.19-0.09,0.1-0.16,0.1c-0.08-0.35-0.15-0.7-0.23-1.06c-0.5-2.39-1.14-4.74-2-7.02C28.85,23.4,28.84,23.37,28.84,23.35z"/>
	<path fill-rule="evenodd" fill="#454998" d="M11.04,45.74c0.01,0.18-0.11,0.1-0.17,0.1c-0.62-0.09-1.1-0.43-1.44-0.98
		c-0.56-0.91-0.62-1.9-0.31-2.92c0.09-0.31,0.31-0.52,0.57-0.68c0.17-0.1,0.34-0.08,0.49,0.05c0.35,0.29,0.52,0.68,0.57,1.14
		c0.12,1.01,0.19,2.02,0.26,3.03C11.02,45.57,11.03,45.66,11.04,45.74z"/>
	<path fill-rule="evenodd" fill="#CB88AC" d="M16.06,5.27c0.16-0.06,0.33-0.08,0.5-0.06c0.14,0.02,0.3-0.1,0.43,0.04h0.03
		c0.23-0.18,0.44,0.05,0.65,0.06c0.07,0,0.16,0.03,0.22,0.03c0.24-0.01,0.47,0.04,0.7,0.08c0.24,0.04,0.48,0.01,0.72,0.1
		c0.1,0.03,0.2-0.02,0.31,0c0.25,0.06,0.51,0.03,0.76,0.03c0.11,0,0.24-0.04,0.32,0.1c0.02,0.03,0.04,0.04,0.07,0.02
		c0.19-0.09,0.42-0.11,0.59-0.09c0.17,0.03,0.35,0,0.52,0.05c0.13,0.04,0.26,0.02,0.39,0.05c0.18,0.03,0.37,0.04,0.55,0.07
		c0.22,0.04,0.43,0.13,0.66,0.11c0.11-0.01,0.21,0.05,0.31,0.1c0.06,0.02,0.11,0.05,0.15-0.01c0.39,0.25,0.74,0.55,1.1,0.85
		c0.52,0.44,1.01,0.91,1.48,1.4l0.05,0.07c-0.12,0.04-0.21-0.04-0.31-0.08c-0.3-0.12-0.56-0.33-0.83-0.51
		c-0.53-0.35-1.08-0.65-1.69-0.83c-0.19-0.06-0.36-0.14-0.55-0.21c-0.15-0.05-0.31-0.08-0.45-0.13c-0.25-0.09-0.52-0.09-0.77-0.12
		c-0.31-0.03-0.62-0.04-0.92-0.02c-0.26,0.02-0.51,0-0.76,0.01c-0.05,0-0.1-0.01-0.11,0.07c-0.42-0.15-0.85-0.3-1.28-0.42
		c-0.61-0.16-1.22-0.27-1.84-0.33c-0.22-0.02-0.45-0.05-0.65-0.15C16.26,5.51,16.14,5.42,16.06,5.27z"/>
	<path fill-rule="evenodd" fill="#B54A8F" d="M0.02,29.79c0.04-0.13,0.08-0.26,0.06-0.4v-0.06c0.02-0.09,0.14-0.17,0.03-0.28l0-0.06
		c0.05,0,0.06-0.04,0.08-0.08c0.07-0.23,0.12-0.45,0.2-0.68c0.13-0.38,0.3-0.74,0.5-1.08c0.18-0.31,0.4-0.59,0.62-0.88
		c0.19-0.25,0.44-0.43,0.68-0.63c0.18-0.15,0.42-0.18,0.64-0.24c-0.63,1.45-1.17,2.95-1.61,4.48C1,30.66,0.79,31.43,0.57,32.2
		c-0.01,0.04-0.03,0.09-0.05,0.16C0.24,31.51,0.06,30.66,0.02,29.79z"/>
	<path fill-rule="evenodd" fill="#B54A8F" d="M15.85,16.01c-0.64-0.11-1.29-0.18-1.94-0.17c0-0.05-0.03-0.08-0.06-0.1
		c-0.21-0.13-0.43-0.23-0.65-0.33c-0.29-0.13-0.6-0.21-0.87-0.41c-0.05-0.04-0.2-0.12-0.03-0.22c0.03-0.02,0.02-0.05,0.01-0.08
		c-0.01-0.03,0.01-0.05,0.04-0.04c0.12,0.05,0.27-0.01,0.39,0.09c0.07,0.07,0.17,0.06,0.25,0.08c0.03,0.01,0.08,0.03,0.1-0.03
		c0.01-0.04-0.03-0.06-0.06-0.08c-0.16-0.07-0.31-0.16-0.47-0.23c-0.33-0.13-0.64-0.32-0.99-0.42c-0.05-0.01-0.16-0.05-0.15-0.17
		c0.66-0.22,1.34-0.36,2.03-0.44c0.45-0.05,0.9-0.06,1.35-0.06c0.11,0,0.2,0.04,0.31,0.04c0.03,0.09,0.03,0.19,0.07,0.28
		c0.11,0.25,0.2,0.51,0.28,0.78c0.07,0.24,0.08,0.51,0.31,0.67c0,0.23,0.05,0.45,0.1,0.68C15.88,15.91,15.9,15.96,15.85,16.01z
		 M14.69,15.05c-0.05,0-0.1-0.01-0.14,0c-0.05,0.01-0.12,0.06-0.08,0.12c0.05,0.09,0.07,0.21,0.16,0.28
		c0.18,0.14,0.35,0.27,0.56,0.35c0.07,0.03,0.14,0.03,0.2-0.02c0.04-0.04,0.05-0.09,0.03-0.14c-0.06-0.14-0.05-0.3-0.06-0.45
		c0-0.07-0.04-0.12-0.09-0.11C15.07,15.1,14.88,15.05,14.69,15.05z M13.18,14.78l-0.01,0.03l0.02,0.01l0.01-0.02L13.18,14.78z"/>
	<path fill-rule="evenodd" fill="#A5467D" d="M29.91,21.77l-0.04-0.01c0.06-0.14-0.1-0.2-0.11-0.32c0-0.04-0.04-0.04-0.07-0.03
		c-0.04,0.01-0.06,0.03-0.06,0.07c0.01,0.04,0.01,0.09-0.04,0.07c-0.1-0.04-0.2-0.01-0.29,0c-0.11,0.01-0.1-0.1-0.13-0.17
		c-0.02-0.05-0.02-0.11-0.03-0.16c-0.01-0.03-0.02-0.07-0.05-0.05c-0.1,0.07-0.12,0.01-0.15-0.07c-0.01-0.04-0.03-0.07-0.08-0.04
		c-0.09,0.04-0.17,0.04-0.18-0.1c0-0.05-0.03-0.09-0.08-0.1c-0.05-0.02-0.06,0.03-0.09,0.06c-0.06,0.08-0.11,0.2-0.24,0.09
		c-0.04-0.03-0.13,0-0.13,0.08c0.01,0.13-0.08,0.17-0.16,0.23c-0.31-0.64-0.62-1.28-0.97-1.89c-0.27-0.49-0.57-0.97-0.86-1.44
		c0.12-0.01,0.22,0.05,0.33,0.08c0.36,0.13,0.73,0.25,1.11,0.29c0.27,0.02,0.54-0.01,0.75-0.24c0.04-0.04,0.07-0.08,0.13-0.07
		c0.62,1.14,1.17,2.33,1.65,3.56c0.01,0.04,0.03,0.08,0.04,0.11c-0.03,0-0.05,0.02-0.05,0.05c0.01,0.04,0.05,0.03,0.08,0.04
		c0.05,0.1,0.1,0.2,0.12,0.31c-0.05,0.02-0.1,0.08-0.1-0.05c-0.01-0.11-0.06-0.22-0.2-0.18C29.92,21.9,29.92,21.83,29.91,21.77
		c0.03,0,0.06-0.01,0.05-0.05l-0.03-0.02C29.9,21.71,29.91,21.74,29.91,21.77z M29.33,21.35l-0.01,0.03l0.02,0.01l0.01-0.02
		L29.33,21.35z"/>
	<path fill-rule="evenodd" fill="#454998" d="M22.72,39.37c0.06,0.53,0.13,1.07,0.19,1.6c0.1,0.94,0.16,1.89,0.23,2.83
		c0.01,0.09,0,0.17,0,0.26c-0.09-0.01-0.17-0.06-0.26,0.02c-0.02,0.02-0.07,0.01-0.08-0.02c-0.02-0.12-0.29-0.14-0.13-0.34v-0.01
		c-0.11-0.15-0.1-0.32-0.11-0.49l-0.02-0.04c-0.1-0.06-0.1-0.11,0.02-0.14c0.04-0.01,0.02-0.05,0-0.07
		c-0.02-0.03-0.03-0.06-0.02-0.1c0.02-0.15-0.07-0.25-0.12-0.38c-0.06-0.14-0.19-0.21-0.25-0.33c-0.03-0.06-0.08-0.09-0.15-0.1
		c-0.12-0.03-0.26-0.04-0.29-0.23c0-0.04-0.03-0.08-0.06-0.05c-0.12,0.11-0.27-0.01-0.39,0.07c-0.04-0.33-0.08-0.67-0.12-1
		c-0.08-0.68-0.17-1.35-0.31-2.02c0.18-0.18,0.64-0.28,0.89-0.12c0.05,0.04,0.06,0.12,0.13,0.14c0.2,0.06,0.33,0.26,0.52,0.34
		C22.5,39.23,22.61,39.31,22.72,39.37z"/>
	<path fill-rule="evenodd" fill="#374596" d="M15.94,35.52c0.09-0.09,0.16-0.09,0.23,0.02c0.18,0.26,0.42,0.44,0.66,0.62
		c0.13,0.1,0.28,0.18,0.42,0.26c0.04,0.02,0.09,0.01,0.14,0.01c0.09,0.01,0.18-0.02,0.26,0.05l0.04,0.01
		c0.15-0.1,0.33,0.02,0.48-0.06c0.24,0.89,0.4,1.79,0.53,2.71c0.01,0.09,0.02,0.17,0.03,0.26c-0.06-0.01-0.11,0.02-0.17,0.03
		c-0.32,0.11-0.64,0.21-0.98,0.18c-0.12-0.01-0.25-0.06-0.37-0.03c-0.09,0.02-0.17,0.02-0.25,0c-0.21-1.36-0.55-2.69-1-3.98
		C15.95,35.58,15.95,35.55,15.94,35.52z"/>
	<path fill-rule="evenodd" fill="#374596" d="M19.97,25.28c-0.34-0.46-0.68-0.92-1.06-1.34c0.1-0.01,0.07-0.08,0.03-0.13
		c-0.07-0.1-0.1-0.22-0.12-0.34c-0.01-0.09-0.03-0.19-0.15-0.19c-0.03,0-0.04-0.03-0.03-0.06l0.03-0.02
		c0.07,0.05,0.2-0.03,0.21,0.14c0,0.05,0.06,0.1,0.1,0.15c0.03-0.07-0.02-0.11-0.02-0.16c-0.01-0.05-0.06-0.1-0.01-0.14
		c0.04-0.03,0.1,0,0.15,0.03c0.05,0.03,0.05,0.1,0.11,0.11c0.32,0.09,0.57,0.3,0.85,0.47c0.06,0.04,0.12,0.07,0.2,0.07
		c0-0.06-0.04-0.06-0.06-0.08c-0.08-0.07-0.19-0.07-0.24-0.18c-0.03-0.08-0.07-0.11-0.17-0.1c-0.12,0.01-0.19-0.13-0.3-0.19
		c0.18,0.02,0.32-0.17,0.51-0.05c0.09,0.06,0.19,0.07,0.29,0.11c0.05,0.02,0.09,0.02,0.07-0.06c-0.02-0.08,0-0.19,0.07-0.19
		c0.13,0.01,0.12-0.07,0.12-0.15c0.05,0.03,0.08,0.09,0.11,0.14c0.53,0.83,1.02,1.7,1.51,2.56c0.21,0.4,0.42,0.8,0.63,1.2
		c-0.13,0.03-0.25,0.02-0.33-0.11c-0.02-0.04-0.06-0.04-0.1-0.04c-0.1,0.01-0.24,0.04-0.27-0.06c-0.06-0.17-0.18,0.05-0.23-0.07
		l-0.02-0.02c-0.01-0.14-0.11-0.13-0.2-0.13c-0.04,0-0.08-0.01-0.12-0.05c-0.02-0.03-0.04-0.09-0.1-0.06
		c-0.05,0.03,0.01,0.09-0.03,0.12c-0.03,0-0.04-0.02-0.04-0.04c0-0.11-0.02-0.19-0.15-0.14l-0.07-0.05
		c-0.09-0.02-0.14-0.17-0.26-0.1c-0.14-0.15-0.27-0.3-0.42-0.43C20.29,25.57,20.16,25.38,19.97,25.28z M20.53,23.46
		c-0.01-0.03-0.04-0.06-0.08-0.06c-0.03,0-0.05,0.01-0.05,0.04c0.01,0.04,0.02,0.08,0.07,0.08C20.5,23.52,20.53,23.51,20.53,23.46z
		 M20.48,24.04c-0.03-0.1-0.09-0.11-0.15-0.11l-0.01,0.04C20.37,24,20.42,24.02,20.48,24.04z M19.01,23.25
		c0.02,0.07,0.04,0.11,0.11,0.1C19.11,23.29,19.08,23.27,19.01,23.25z M19.31,23.55l0.01-0.03l-0.02-0.01l-0.01,0.02L19.31,23.55z"
		/>
	<path fill-rule="evenodd" fill="#CB88AC" d="M18.52,8.97c0,0.04,0,0.09-0.04,0.09c-0.23,0.02-0.47,0.13-0.65-0.12
		c-0.03-0.05-0.08-0.05-0.12-0.08c-0.08-0.07-0.11-0.03-0.11,0.07c0.01,0.12-0.06,0.15-0.16,0.18c-0.23,0.08-0.48,0.01-0.71,0.09
		c-0.18,0.05-0.35,0.11-0.53,0.17c-0.04,0.01-0.08,0.04-0.1,0.08c-0.07,0.12-0.18,0.14-0.3,0.15c-0.04,0.01-0.1-0.01-0.13,0.01
		c-0.19,0.15-0.37,0.05-0.56,0.01c-0.17-0.04-0.36,0-0.54-0.04c-0.06-0.01-0.12-0.01-0.16-0.05c-0.15-0.16-0.36-0.18-0.55-0.24
		c-0.09-0.03-0.12,0-0.09,0.11c0.05,0.18,0.14,0.34,0.2,0.51c0.01,0.04,0.06,0.09,0.01,0.12c-0.06,0.04-0.05-0.04-0.08-0.07
		c-0.15-0.17-0.25-0.37-0.36-0.56c-0.02-0.03-0.04-0.07-0.08-0.04c-0.1,0.09-0.21,0.02-0.32,0.01c-0.34-0.05-0.67-0.03-1,0.02
		c-0.16,0.03-0.34-0.02-0.5-0.03c-0.06-0.01-0.11-0.05-0.16-0.04c-0.25,0.04-0.45-0.09-0.67-0.16c-0.11-0.04-0.14-0.14-0.16-0.25
		c0.39-0.15,0.79-0.24,1.19-0.3c0.53-0.09,1.07-0.14,1.61-0.17c0.41-0.02,0.82-0.06,1.23-0.05c0.63,0.03,1.25,0.07,1.87,0.17
		c0.63,0.09,1.24,0.23,1.84,0.39C18.45,8.93,18.49,8.93,18.52,8.97z"/>
	<path fill-rule="evenodd" fill="#374596" d="M21.28,41.84c0.12-0.09,0.27,0.04,0.39-0.07c0.03-0.03,0.06,0.02,0.06,0.05
		c0.02,0.19,0.16,0.2,0.29,0.23c0.07,0.01,0.11,0.04,0.15,0.1c0.07,0.12,0.2,0.19,0.25,0.33c0.05,0.12,0.14,0.23,0.12,0.38
		c-0.01,0.04,0,0.07,0.02,0.1c0.02,0.02,0.04,0.06,0,0.07c-0.12,0.04-0.11,0.08-0.02,0.14l0.02,0.04c0.01,0.17,0,0.35,0.11,0.49
		v0.01c-0.17,0.2,0.1,0.22,0.13,0.34c0.01,0.03,0.06,0.04,0.08,0.02c0.08-0.08,0.17-0.03,0.26-0.02c0.04,0.59,0.08,1.18,0.12,1.77
		c0.01,0.09-0.02,0.12-0.09,0.14c-0.47,0.14-0.94,0.28-1.41,0.43c-0.09,0.03-0.12-0.01-0.12-0.1c-0.06-0.74-0.12-1.48-0.18-2.22
		c-0.06-0.66-0.08-1.33-0.17-1.99C21.27,42.01,21.28,41.92,21.28,41.84z"/>
	<path fill-rule="evenodd" fill="#CB88AC" d="M3.29,7.92c0.14,0.15,0.26,0.04,0.38-0.04c0.09-0.06,0.19-0.11,0.3-0.04l0.06,0.01
		c0.13-0.22,0.38-0.21,0.57-0.29c0.18-0.07,0.32-0.19,0.46-0.3c0.09-0.07,0.15-0.18,0.2-0.29c0.04-0.09,0.09-0.1,0.17-0.07
		c0.16,0.06,0.25,0.21,0.35,0.33c0.19,0.24,0.28,0.54,0.35,0.84c-0.3,0.19-0.6,0.37-0.9,0.56c-1.03,0.66-2,1.41-2.91,2.25
		C2.2,11,2.09,11.14,1.95,11.22l0,0c0-0.04,0-0.08,0.01-0.12c0.33-1.08,0.71-2.14,1.28-3.11L3.29,7.92z"/>
	<path fill-rule="evenodd" fill="#A3609F" d="M24.44,38.91c-0.09-0.45-0.18-0.91-0.26-1.36c-0.05-0.27-0.1-0.55-0.15-0.82
		c0.05-0.04,0-0.16,0.09-0.15c0.26,0.03,0.36-0.15,0.43-0.36c0.17-0.5,0.32-1,0.49-1.5c0.08-0.23,0.18-0.45,0.46-0.46
		c0.11,0.38,0.18,0.77,0.26,1.15c0.12,0.63,0.24,1.26,0.34,1.9c0.03,0.2,0.08,0.39,0.09,0.59c-0.05,0.01-0.09,0.04-0.13,0.08
		c-0.17,0.17-0.33,0.35-0.56,0.45c-0.28,0.11-0.37,0.27-0.31,0.54c-0.1-0.16-0.22-0.15-0.33-0.1
		C24.71,38.92,24.57,38.91,24.44,38.91z"/>
	<path fill-rule="evenodd" fill="#374596" d="M14.59,40.21c-0.18,0.02-0.34-0.01-0.48-0.17c-0.16-0.2-0.39-0.29-0.61-0.39
		c-0.12-0.06-0.27-0.07-0.39-0.14c-0.09-0.06-0.19,0.03-0.28,0.03c-0.06-0.7-0.11-1.41-0.17-2.11c-0.02-0.28,0.03-0.53,0.16-0.77
		c0.14-0.25,0.29-0.51,0.43-0.76c0.03-0.05,0.04-0.07,0.1-0.03c0.22,0.18,0.44,0.36,0.67,0.53c0.26,0.2,0.27,0.5,0.3,0.79
		c0.1,0.99,0.19,1.99,0.29,2.98L14.59,40.21z"/>
	<path fill-rule="evenodd" fill="#454998" d="M6.87,39.33c-0.16,1.54-0.01,3.09,0.01,4.65c-0.8-0.32-1.43-0.81-1.69-1.73
		c-0.11-0.39-0.15-0.78-0.14-1.18c0.05,0,0.08-0.05,0.11-0.09c0.15-0.19,0.33-0.36,0.48-0.54c0.23-0.27,0.49-0.51,0.75-0.75
		C6.55,39.57,6.69,39.41,6.87,39.33z"/>
	<path fill-rule="evenodd" fill="#B54A8F" d="M20.88,15.66c-0.09,0.07-0.18,0.06-0.29,0.03c-0.35-0.1-0.7-0.16-1.05-0.22
		c-0.37-0.06-0.75-0.06-1.12-0.14c-0.1-0.02-0.2-0.02-0.29,0.02c-0.03,0.01-0.07,0.03-0.1,0.03c-0.16-0.03-0.27,0.03-0.31,0.24
		c-0.07-0.12-0.02-0.22-0.06-0.32c-0.04,0.02-0.05,0.08-0.13,0.04c-0.33-0.17-0.67-0.28-1.04-0.27c-0.19,0-0.19,0-0.13,0.19
		c-0.07,0.01-0.13-0.05-0.2-0.03c-0.04-0.01-0.08-0.02-0.11-0.03c-0.04-0.14-0.01-0.3-0.12-0.41c-0.03-0.03-0.04-0.08-0.01-0.11
		c0.05-0.06,0.02-0.12-0.02-0.16c-0.04-0.05-0.06-0.1-0.08-0.16c-0.09-0.22-0.17-0.44-0.26-0.65c-0.02-0.04-0.03-0.1-0.09-0.11
		c0-0.05-0.04-0.09-0.03-0.15c0.04,0,0.07,0.01,0.11,0.01l0.06,0.01c0.9,0.08,1.77,0.31,2.62,0.65c0.93,0.37,1.79,0.87,2.59,1.48
		L20.88,15.66z"/>
	<path fill-rule="evenodd" fill="#603865" d="M32.65,9.56c0.77,1.84,1.26,3.76,1.47,5.77c-0.05-0.03-0.07-0.08-0.09-0.13
		c-0.81-1.53-1.68-3.01-2.65-4.43l-0.02-0.04l0.04-0.02c0.22-0.3,0.46-0.58,0.74-0.82C32.29,9.76,32.45,9.62,32.65,9.56z"/>
	<path fill-rule="evenodd" fill="#7E4C97" d="M1.61,15.17c0.5-0.7,1.09-1.31,1.73-1.88c0.14-0.12,0.3-0.1,0.45-0.06
		c0.24,0.07,0.48,0.16,0.72,0.24c0.04,0.01,0.05,0.04,0.05,0.08c-0.04,0.38-0.03,0.77-0.07,1.15c-0.03,0.24-0.11,0.45-0.26,0.64
		c-0.11,0.14-0.19,0.31-0.33,0.42c-0.12,0.03-0.24-0.18-0.37-0.01L3.5,15.74c-0.4-0.16-0.83-0.21-1.2-0.45l-0.01-0.01l0.01,0.01
		c-0.01,0.03-0.01,0.06-0.04,0.05C2.04,15.27,1.81,15.27,1.61,15.17z"/>
	<path fill-rule="evenodd" fill="#5F4F9A" d="M28.65,30.8c-0.12,0.07-0.06,0.2-0.08,0.3c-0.07,0.39-0.12,0.77-0.25,1.14
		c-0.06,0.17-0.09,0.35,0,0.53c0.04,0.08,0.03,0.14-0.06,0.18c-0.12,0.06-0.18,0.19-0.21,0.31c-0.07,0.28-0.25,0.48-0.39,0.71
		c-0.08,0.14-0.21,0.23-0.31,0.35c-0.07-0.25-0.11-0.51-0.14-0.77c0.05-0.06,0.11-0.12,0.15-0.18c0.12-0.16,0.25-0.31,0.29-0.52
		c0.03-0.12,0.04-0.25,0.2-0.27l0.05-0.07c0.05-0.09,0.07-0.19,0.19-0.21c0.05-0.01,0.02-0.07,0.01-0.1
		c-0.12-0.29-0.23-0.6-0.37-0.88c-0.27-0.54-0.51-1.1-0.81-1.62c-0.18-0.32-0.35-0.65-0.56-0.94c-0.01-0.04-0.02-0.08,0-0.12
		c0.11-0.06,0.11-0.06,0.27,0.02l0.04,0.01c0.25-0.01,0.43,0.23,0.67,0.2c0.08,0.16,0.21,0.17,0.35,0.14l0.01,0
		c0.08,0.19,0.2,0.05,0.31,0.04c0.06-0.01,0.14-0.01,0.17-0.1c0.18,0.58,0.33,1.18,0.47,1.78L28.65,30.8z"/>
	<path fill-rule="evenodd" fill="#7E4C97" d="M32.03,32.81c0-0.05,0.03-0.09,0.01-0.15c-0.05-0.17-0.02-0.35-0.03-0.53
		c0-0.16,0.01-0.33-0.02-0.49c-0.04-0.24-0.1-0.49-0.09-0.73c0-0.13-0.03-0.29,0.08-0.42c0.04-0.04,0.03-0.11,0.02-0.16
		c-0.06-0.21,0.01-0.42,0-0.63c-0.01-0.23,0.06-0.46,0.01-0.69l0-0.05c0.04-0.27,0.03-0.54,0.03-0.81c0-0.06-0.01-0.15,0.08-0.18
		c0.15,0.65,0.28,1.3,0.41,1.95c0.14,0.77,0.31,1.53,0.45,2.3c0.09,0.49,0.23,0.97,0.33,1.46c0.09,0.46,0.14,0.93,0.1,1.4
		c-0.08,0.01-0.13-0.01-0.16-0.1c-0.02-0.04-0.05-0.08-0.09-0.12c-0.13-0.17-0.31-0.27-0.4-0.49c-0.11-0.25-0.3-0.45-0.39-0.72
		c-0.07-0.21-0.19-0.4-0.24-0.61c-0.01-0.06-0.02-0.11-0.08-0.12C32.03,32.89,32.03,32.85,32.03,32.81z"/>
	<path fill-rule="evenodd" fill="#5F4F9A" d="M17.26,22.53c-0.74-0.47-1.53-0.79-2.38-0.94c0.09-0.07,0.19-0.09,0.27-0.19
		c0.04-0.05,0.08-0.13,0.18-0.11c0.07,0.01,0.09-0.07,0.04-0.11c-0.12-0.12,0-0.15,0.05-0.2c0.05-0.05,0.17-0.02,0.13-0.16
		c-0.01-0.03,0.04-0.03,0.07-0.03c0.06,0.01,0.12,0.02,0.16,0.06c0.11,0.11,0.22,0.07,0.32-0.02c0.03-0.03,0.06-0.06,0.1-0.06
		c0.21,0.01,0.37-0.19,0.59-0.18c0.14,0.01,0.3-0.09,0.42,0.08c0.04,0.05,0.14,0.07,0.17-0.04c0.02-0.07,0.05-0.06,0.1-0.04
		c0.16,0.07,0.31,0.12,0.48,0.17c0.31,0.09,0.59,0.26,0.91,0.34l0.06,0.06c0.14,0.14,0.29,0.27,0.5,0.27
		c0.14,0.11,0.25,0.23,0.36,0.37c-0.01,0.09,0.08,0.11,0.09,0.19c-0.04,0.01-0.07,0.09-0.11,0.05c-0.07-0.06-0.15-0.06-0.22-0.09
		c-0.15-0.06-0.28-0.16-0.44-0.19c-0.14-0.02-0.28-0.06-0.41-0.11c-0.09-0.03-0.15-0.17-0.22,0.01l-0.04-0.01
		c-0.17-0.04-0.32,0.15-0.49,0.06l-0.01,0c-0.07,0.15-0.18,0.05-0.27,0.04c-0.06-0.01-0.13-0.1-0.17-0.01
		c-0.04,0.09,0.08,0.07,0.11,0.12c0.02,0.03,0.08,0.05,0.06,0.11c-0.01,0.03-0.03,0.04-0.06,0.04c-0.05,0-0.07-0.05-0.07-0.1
		l-0.02-0.03c-0.07,0.17-0.07,0.17-0.19,0.08c-0.03,0.22,0.17,0.23,0.27,0.33c-0.07,0.05-0.26-0.12-0.2,0.13
		c0.01,0.04-0.03,0.03-0.05,0.02C17.26,22.44,17.26,22.49,17.26,22.53z"/>
	<path fill-rule="evenodd" fill="#5F4F9A" d="M1.85,18.57c-0.19,0.26-0.39,0.52-0.58,0.78C0.88,19.86,0.5,20.38,0.1,20.9
		c-0.06-0.25-0.05-0.49-0.06-0.73c-0.02-0.63,0.03-1.26,0.16-1.88c0.18-0.89,0.5-1.72,0.98-2.48c0.1,0.02,0.16,0.04,0.12,0.19
		c-0.02,0.09-0.04,0.17-0.09,0.25c-0.03,0.06-0.04,0.11,0,0.18c0.07,0.1,0.1,0.21,0.04,0.33c-0.02,0.04-0.03,0.08,0.01,0.11
		c0.08,0.06,0.1,0.14,0.06,0.24c-0.02,0.05,0.02,0.08,0.04,0.12c0.09,0.17,0.16,0.35,0.2,0.53c0.02,0.11,0.01,0.22,0.05,0.33
		c0.05,0.12,0.14,0.23,0.14,0.38C1.76,18.53,1.81,18.55,1.85,18.57z M1.15,16.73c0.04,0,0.05-0.01,0.05-0.03l-0.03-0.04L1.13,16.7
		L1.15,16.73z"/>
	<path fill-rule="evenodd" fill="#A3609F" d="M22.91,31.6c-0.22-0.73-0.49-1.45-0.77-2.16c0.1-0.02,0.16,0.07,0.23,0.1
		c0.04,0.01,0.07,0.08,0.11,0.04c0.04-0.05-0.02-0.09-0.04-0.13c-0.11-0.23-0.25-0.45-0.39-0.66l-0.02-0.07
		c0.16-0.13,0.02-0.22-0.04-0.31c-0.09-0.14-0.12-0.21-0.12-0.33c0.19,0.18,0.34,0.38,0.49,0.6c0.04,0.06,0.07,0.11,0.14,0.11
		c0.09-0.01,0.01-0.11,0.07-0.15l0.04,0.05c0.21,0.44,0.39,0.89,0.52,1.36c0.03,0.09,0.06,0.15,0.14,0.19
		c0.24,0.12,0.48,0.23,0.7,0.36c0.19,0.12,0.39,0.17,0.6,0.22c0.21,0.61,0.38,1.22,0.53,1.85c-0.27-0.03-0.55-0.11-0.82-0.09
		c-0.04,0-0.08,0-0.11-0.01c-0.22-0.08-0.42-0.22-0.64-0.29c-0.14-0.04-0.17-0.15-0.17-0.31c0.01-0.29,0.02-0.57-0.03-0.86
		c-0.02-0.14,0.01-0.33-0.09-0.41c-0.15-0.12-0.18-0.28-0.24-0.44c-0.02-0.04-0.01-0.11-0.11-0.1c0.1,0.16,0.05,0.33,0.08,0.49
		c0.06,0.27,0.13,0.54,0.17,0.82c0.02,0.13-0.01,0.17-0.13,0.15C22.98,31.63,22.95,31.62,22.91,31.6z"/>
	<path fill-rule="evenodd" fill="#BF6599" d="M11.41,13.91c-0.01,0.12,0.1,0.15,0.15,0.17c0.35,0.1,0.66,0.29,0.99,0.42
		c0.17,0.06,0.31,0.15,0.47,0.23c0.03,0.01,0.07,0.04,0.06,0.08c-0.01,0.06-0.06,0.04-0.1,0.03c-0.08-0.03-0.18-0.02-0.25-0.08
		c-0.11-0.1-0.26-0.04-0.39-0.09c-0.02-0.01-0.05,0.01-0.04,0.04c0.01,0.03,0.01,0.07-0.01,0.08c-0.17,0.1-0.02,0.19,0.03,0.22
		c0.26,0.2,0.58,0.28,0.87,0.41c0.22,0.1,0.44,0.2,0.65,0.33c0.03,0.02,0.06,0.05,0.06,0.1c-0.52,0.03-1.04,0.09-1.55,0.19
		c-0.01-0.12-0.11-0.08-0.17-0.1c-0.33-0.14-0.66-0.27-1.02-0.3c-0.03,0-0.06-0.01-0.08-0.03c-0.08-0.04-0.16-0.09-0.25-0.14
		c-0.18-0.09-0.38-0.11-0.56-0.22c-0.1-0.06-0.24-0.1-0.37-0.12C9.79,15.1,9.74,14.9,9.58,15l-0.01-0.01
		c-0.06-0.08-0.17-0.12-0.22-0.22C10.02,14.42,10.7,14.12,11.41,13.91z M12.22,14.63l0.01-0.02l-0.02-0.01l-0.01,0.02L12.22,14.63z"
		/>
	<path fill-rule="evenodd" fill="#906684" d="M32.65,9.56c-0.2,0.06-0.36,0.2-0.52,0.33c-0.28,0.24-0.52,0.52-0.74,0.82l-0.04,0.02
		c-0.28-0.38-0.55-0.77-0.83-1.15c-0.21-0.29-0.43-0.57-0.65-0.86c0.38-0.28,0.79-0.5,1.18-0.76c0.18-0.12,0.38-0.22,0.55-0.37
		C32.04,8.2,32.37,8.87,32.65,9.56z"/>
	<path fill-rule="evenodd" fill="#7E4C97" d="M19.42,21.43c-0.21,0-0.35-0.13-0.5-0.27l-0.06-0.06c-0.31-0.08-0.6-0.26-0.91-0.34
		c-0.17-0.04-0.32-0.1-0.48-0.17c-0.05-0.02-0.08-0.03-0.1,0.04c-0.03,0.11-0.13,0.08-0.17,0.04c-0.13-0.17-0.28-0.07-0.42-0.08
		c-0.22-0.02-0.37,0.18-0.59,0.18c-0.03,0-0.07,0.04-0.1,0.06c-0.1,0.09-0.2,0.13-0.32,0.02c-0.04-0.04-0.1-0.05-0.16-0.06
		c-0.03,0-0.08,0-0.07,0.03c0.04,0.14-0.08,0.11-0.13,0.16c-0.06,0.05-0.18,0.09-0.05,0.2c0.05,0.05,0.03,0.13-0.04,0.11
		c-0.1-0.02-0.14,0.06-0.18,0.11c-0.07,0.09-0.18,0.12-0.27,0.19c-0.1-0.01-0.21-0.03-0.31-0.04c-0.23-0.18-0.48-0.31-0.74-0.44
		c-0.07-0.03-0.14-0.06-0.18-0.14c0.1-0.24,0.3-0.36,0.49-0.49c0.07-0.05,0.13-0.09,0.18-0.15c0.07-0.08,0.19-0.03,0.29-0.02
		c0-0.08-0.06-0.08-0.11-0.1c-0.02-0.01-0.05-0.02-0.05-0.05c0-0.04,0.03-0.04,0.06-0.05c0.15-0.01,0.26-0.11,0.38-0.17
		c0.12-0.06,0.22-0.2,0.37-0.09l0.04,0c0.1-0.12,0.24-0.12,0.37-0.13c0.2-0.02,0.41-0.08,0.6,0.05l0.04,0.01
		c0.19-0.09,0.35,0.06,0.52,0.11c0.32,0.1,0.62,0.24,0.93,0.38c0.15,0.07,0.29,0.14,0.42,0.24c0.05,0.04,0.11,0.06,0.18,0.04l0,0
		c0,0.12,0.07,0.1,0.14,0.1C18.83,20.88,19.13,21.15,19.42,21.43z"/>
	<path fill-rule="evenodd" fill="#A3609F" d="M32.03,32.81c0,0.04,0,0.08,0,0.13c-0.05,0.1,0,0.12,0.08,0.12
		c0.05,0.22,0.17,0.41,0.24,0.61c0.09,0.27,0.28,0.47,0.39,0.72c0.1,0.22,0.27,0.32,0.4,0.49c0.03,0.04,0.07,0.07,0.09,0.12
		c0.03,0.09,0.09,0.11,0.16,0.1c-0.01,0.4-0.1,0.78-0.22,1.15c-0.03,0.1-0.08,0.2-0.12,0.31c-0.07,0.01-0.13-0.02-0.18-0.08
		c-0.11-0.13-0.25-0.24-0.34-0.38c-0.1-0.15-0.26-0.23-0.33-0.4c-0.09-0.21-0.26-0.35-0.38-0.53c-0.06-0.08-0.1-0.18-0.17-0.25
		c-0.11-0.64-0.21-1.29-0.32-1.93c-0.08-0.45-0.16-0.89-0.24-1.34c-0.01-0.04-0.01-0.08-0.01-0.12c0.07,0,0.16,0.09,0.16-0.1
		c0-0.1,0.13-0.2,0.15-0.33c0.06,0.01,0.06,0.06,0.06,0.1c-0.01,0.2,0.05,0.38,0.08,0.57c0.02,0.12,0.1,0.24,0.05,0.38
		c-0.01,0.02,0.03,0.07,0.05,0.1c0.05,0.07,0.07,0.15,0.07,0.23C31.71,32.65,31.84,32.8,32.03,32.81z"/>
	<path fill-rule="evenodd" fill="#454998" d="M17.26,22.53c0-0.04,0-0.09,0.06-0.08c0.02,0,0.06,0.01,0.05-0.02
		c-0.06-0.26,0.12-0.08,0.2-0.13c-0.09-0.1-0.29-0.11-0.27-0.33c0.12,0.09,0.12,0.09,0.19-0.08l0.02,0.03c0,0.05,0.02,0.09,0.07,0.1
		c0.02,0,0.05-0.01,0.06-0.04c0.02-0.06-0.03-0.08-0.06-0.11c-0.03-0.05-0.16-0.03-0.11-0.12c0.04-0.09,0.11,0.01,0.17,0.01
		c0.09,0.01,0.2,0.11,0.27-0.04l0.01,0c0.18,0.1,0.32-0.09,0.49-0.06l0.04,0.01c0.07-0.18,0.13-0.04,0.22-0.01
		c0.13,0.05,0.27,0.09,0.41,0.11c0.16,0.03,0.29,0.13,0.44,0.19c0.07,0.03,0.16,0.03,0.22,0.09c0.04,0.03,0.07-0.04,0.11-0.05
		c0.19,0.26,0.38,0.52,0.54,0.8c-0.07,0.02-0.09,0.07-0.07,0.14c0.03,0.09,0.12,0.08,0.19,0.08l0,0c-0.01,0.08,0.01,0.16-0.12,0.15
		c-0.07-0.01-0.09,0.1-0.07,0.19c0.02,0.08-0.01,0.08-0.07,0.06c-0.1-0.04-0.2-0.05-0.29-0.11c-0.18-0.12-0.33,0.07-0.51,0.05
		c0.11,0.06,0.18,0.2,0.3,0.19c0.1-0.01,0.14,0.03,0.17,0.1c0.05,0.11,0.17,0.11,0.24,0.18c0.02,0.02,0.06,0.03,0.06,0.08
		c-0.08,0-0.14-0.03-0.2-0.07c-0.27-0.18-0.53-0.39-0.85-0.47c-0.06-0.02-0.06-0.09-0.11-0.11c-0.05-0.03-0.1-0.06-0.15-0.03
		c-0.05,0.04,0,0.09,0.01,0.14c0.01,0.05,0.06,0.08,0.02,0.16c-0.04-0.06-0.1-0.1-0.1-0.15c-0.01-0.16-0.14-0.08-0.21-0.14
		l-0.03,0.02c-0.01,0.03,0,0.05,0.03,0.06c0.12,0.01,0.14,0.1,0.15,0.19c0.01,0.12,0.05,0.24,0.12,0.34
		c0.03,0.05,0.07,0.12-0.03,0.13c-0.46-0.49-0.95-0.93-1.5-1.31c0-0.04,0-0.08-0.04-0.1c-0.03-0.01-0.04,0.01-0.05,0.04L17.26,22.53
		z"/>
	<path fill-rule="evenodd" fill="#7E4C97" d="M24.58,30.83c-0.21-0.05-0.41-0.1-0.6-0.22c-0.23-0.14-0.46-0.25-0.7-0.36
		c-0.08-0.04-0.12-0.1-0.14-0.19c-0.13-0.47-0.32-0.92-0.52-1.36l-0.04-0.05c-0.05,0.04,0.02,0.14-0.07,0.15
		c-0.07,0-0.1-0.05-0.14-0.11c-0.14-0.21-0.3-0.41-0.49-0.6c-0.01,0.12,0.02,0.19,0.12,0.33c0.07,0.09,0.2,0.18,0.04,0.31l0.02,0.07
		c0.14,0.21,0.28,0.43,0.39,0.66c0.02,0.04,0.08,0.09,0.04,0.13c-0.04,0.04-0.07-0.03-0.11-0.04c-0.08-0.03-0.14-0.12-0.23-0.1
		c-0.38-0.87-0.79-1.73-1.24-2.57c-0.29-0.55-0.61-1.07-0.94-1.59c0.2,0.1,0.32,0.29,0.49,0.44c0.15,0.13,0.28,0.29,0.42,0.43
		c0.18,0.22,0.36,0.45,0.55,0.66c0.08,0.09,0.11,0.23,0.22,0.29c0,0.05,0.03,0.07,0.05,0.1c0.21,0.29,0.42,0.58,0.6,0.89
		c0.04,0.06,0.05,0.21,0.18,0.1l0.05,0.04c-0.01,0.18,0.17,0.18,0.24,0.2c0.18,0.05,0.34,0.14,0.48,0.27
		c0.04,0.03,0.11,0.07,0.16,0.04c0.06-0.03-0.06-0.08,0.02-0.15c0.08,0.17,0.16,0.37,0.39,0.33c0.09,0.2,0.18,0.4,0.28,0.59
		c0.02,0.04,0.03,0.1,0.09,0.11l0,0c0,0.03,0.01,0.05,0.03,0.07C24.33,30.08,24.48,30.44,24.58,30.83z M21.96,28.6l-0.01,0.02
		l0.02,0.01l0.01-0.03L21.96,28.6z"/>
	<path fill-rule="evenodd" fill="#454998" d="M8.77,36.69c0.16-0.04,0.25-0.18,0.37-0.27c0.19-0.14,0.38-0.28,0.55-0.44
		c0.26-0.23,0.57-0.36,0.84-0.57c0.07-0.05,0.11-0.17,0.22-0.15c-0.13,0.64-0.26,1.27-0.23,1.93c0.01,0.22-0.05,0.4-0.16,0.57
		c-0.24,0.35-0.5,0.67-0.76,1C8.8,37.81,8.71,37.58,8.77,36.69z"/>
	<path fill-rule="evenodd" fill="#CB88AC" d="M22.91,31.6c0.04,0.01,0.07,0.02,0.11,0.03c0.12,0.02,0.15-0.03,0.13-0.15
		c-0.04-0.28-0.11-0.55-0.17-0.82c-0.04-0.15,0.02-0.33-0.08-0.49c0.1-0.01,0.09,0.06,0.11,0.1c0.06,0.16,0.09,0.32,0.24,0.44
		c0.1,0.08,0.07,0.27,0.09,0.41c0.05,0.28,0.04,0.57,0.03,0.86c0,0.15,0.03,0.27,0.17,0.31c0.23,0.07,0.42,0.21,0.64,0.29
		c0.03,0.01,0.08,0.01,0.11,0.01c0,0.07,0.05,0.11,0.09,0.15c0.11,0.1,0.21,0.21,0.3,0.32c0.16,0.2,0.19,0.46,0.07,0.68
		c-0.11,0.2-0.22,0.4-0.3,0.62c-0.13,0.33-0.26,0.65-0.45,0.94c-0.06,0.09-0.13,0.15-0.22,0.19c-0.12-0.58-0.24-1.16-0.37-1.74
		c-0.15-0.7-0.3-1.4-0.49-2.08L22.91,31.6z"/>
	<path fill-rule="evenodd" fill="#7E4C97" d="M1.85,18.57c-0.04-0.01-0.09-0.04-0.09-0.09c-0.01-0.15-0.09-0.25-0.14-0.38
		C1.57,18,1.59,17.88,1.57,17.78c-0.04-0.19-0.11-0.37-0.2-0.53c-0.02-0.04-0.06-0.07-0.04-0.12c0.04-0.1,0.02-0.18-0.06-0.24
		c-0.04-0.03-0.02-0.07-0.01-0.11c0.05-0.12,0.02-0.23-0.04-0.33c-0.05-0.07-0.03-0.12,0-0.18c0.04-0.08,0.06-0.16,0.09-0.25
		c0.04-0.14-0.02-0.17-0.12-0.19c0.04-0.06,0.08-0.12,0.11-0.19c0.14,0,0.27,0.08,0.39,0.09c0.22,0.02,0.4,0.13,0.61,0.18
		c0.05,0.01,0.1,0,0.15,0.03c0.33,0.18,0.54,0.51,0.81,0.76c-0.35,0.48-0.7,0.96-1.06,1.44C2.08,18.28,1.97,18.42,1.85,18.57z"/>
	<path fill-rule="evenodd" fill="#7E4C97" d="M4.76,25.78c0.23-0.02,0.42,0.14,0.65,0.18c0.28,0.04,0.56,0.13,0.82,0.26
		c0.1,0.05,0.23,0.04,0.35,0.05c0.06,0.01,0.12,0,0.13,0.08c-0.27,0.5-0.53,1-0.8,1.49c-0.06-0.04-0.07-0.17-0.18-0.14
		c-0.14,0.04-0.25-0.06-0.38-0.06c-0.12,0-0.2-0.11-0.3-0.13c-0.1-0.02-0.19-0.09-0.3-0.08c-0.06,0.01-0.08-0.05-0.04-0.11
		c0.02-0.02,0.02-0.05,0-0.06l-0.05,0.02c-0.09,0.11-0.17,0.06-0.26,0.01c-0.1-0.06-0.16-0.18-0.3-0.16
		C4.3,26.67,4.51,26.21,4.76,25.78z"/>
	<path fill-rule="evenodd" fill="#CB88AC" d="M24.1,8.89c0.17-0.04,0.33,0.04,0.49,0.09c0.44,0.13,0.89,0.22,1.33,0.39
		c0.33,0.13,0.58,0.36,0.78,0.67c0.21,0.32,0.35,0.67,0.45,1.05c0.06,0.23,0.08,0.46,0.14,0.68c0.05,0.19,0.04,0.4,0.05,0.59
		c-0.65-0.86-1.35-1.66-2.09-2.42C24.87,9.57,24.48,9.23,24.1,8.89z"/>
	<path fill-rule="evenodd" fill="#374596" d="M26.63,41.96c0.04,0.48,0.08,0.96,0.11,1.44c0.02,0.3-0.13,0.53-0.29,0.75
		c-0.27,0.36-0.58,0.68-0.87,1.04c-0.04-0.24-0.09-0.46-0.13-0.68c-0.09-0.52-0.19-1.04-0.28-1.57c0.12-0.01,0.2-0.19,0.35-0.1
		l0.04-0.02c0.18-0.24,0.44-0.38,0.63-0.61c0.03-0.03,0.06-0.07,0.1-0.08c0.06-0.01,0.09-0.05,0.1-0.11c0.01-0.17,0.1-0.21,0.24-0.2
		c0,0.03,0.01,0.06,0.01,0.1l-0.01,0.01L26.63,41.96z"/>
	<path fill-rule="evenodd" fill="#786CA9" d="M26.36,28.77c0.21,0.29,0.38,0.62,0.56,0.94c0.3,0.52,0.54,1.08,0.81,1.62
		c0.14,0.28,0.25,0.58,0.37,0.88c0.01,0.04,0.04,0.09-0.01,0.1c-0.12,0.02-0.14,0.12-0.19,0.21l-0.05,0.07
		c-0.16,0.02-0.18,0.15-0.2,0.27c-0.04,0.21-0.17,0.36-0.29,0.52c-0.05,0.06-0.1,0.12-0.15,0.18c-0.1-0.38-0.15-0.78-0.22-1.16
		c-0.19-1.04-0.38-2.09-0.56-3.14C26.4,29.09,26.35,28.93,26.36,28.77z"/>
	<path fill-rule="evenodd" fill="#A5467D" d="M7.98,12.43c-0.13-0.08-0.26-0.16-0.39-0.24c-0.14-0.1-0.17-0.49-0.05-0.67
		c0.11-0.16,0.25-0.28,0.4-0.39c0.34-0.26,0.73-0.37,1.13-0.42c0.48-0.06,0.93,0.06,1.28,0.46c0.06,0.07,0.12,0.16,0.22,0.18
		c-0.62,0.22-1.24,0.43-1.84,0.7C8.47,12.16,8.22,12.28,7.98,12.43z"/>
	<path fill-rule="evenodd" fill="#BF6599" d="M23.78,35.49c0.09-0.04,0.16-0.1,0.22-0.19c0.2-0.29,0.33-0.61,0.45-0.94
		c0.08-0.22,0.19-0.42,0.3-0.62c0.12-0.23,0.1-0.48-0.07-0.68c-0.1-0.12-0.19-0.23-0.3-0.32c-0.04-0.04-0.1-0.07-0.09-0.15
		c0.28-0.02,0.55,0.06,0.83,0.09c0.15,0.52,0.29,1.04,0.37,1.57c-0.28,0.01-0.38,0.23-0.46,0.46c-0.17,0.5-0.32,1-0.49,1.5
		c-0.07,0.21-0.17,0.39-0.43,0.36c-0.09-0.01-0.04,0.11-0.09,0.15c-0.08-0.36-0.15-0.73-0.23-1.09
		C23.79,35.59,23.79,35.54,23.78,35.49z"/>
	<path fill-rule="evenodd" fill="#5F4F9A" d="M26.37,39.37c0.07,0.62,0.13,1.23,0.2,1.85c-0.08-0.04-0.12,0.05-0.2,0.05
		c-0.15-0.01-0.29,0.05-0.39,0.16c-0.06,0.06-0.08,0.17-0.18,0.05c-0.03-0.04-0.09,0.01-0.11,0.04c-0.08,0.16-0.19,0.27-0.37,0.27
		L25.3,41.8c-0.11,0.06-0.21,0.11-0.32,0.17c-0.08-0.42-0.15-0.84-0.23-1.27c0.08-0.03,0.13-0.1,0.17-0.16
		c0.06-0.08,0.12-0.14,0.2-0.2c0.16-0.13,0.32-0.26,0.48-0.4c0.04-0.03,0.06-0.06,0.11-0.04c0.08,0.03,0.11-0.03,0.09-0.09
		c-0.04-0.12,0.03-0.16,0.11-0.19c0.07-0.02,0.12-0.07,0.16-0.12C26.15,39.4,26.25,39.36,26.37,39.37z"/>
	<path fill-rule="evenodd" fill="#5F4F9A" d="M22.72,39.37c-0.11-0.06-0.22-0.13-0.33-0.19c-0.19-0.08-0.31-0.28-0.52-0.34
		c-0.06-0.02-0.07-0.1-0.13-0.14c-0.24-0.16-0.71-0.06-0.89,0.12c-0.11-0.58-0.23-1.17-0.36-1.75c-0.02-0.07-0.03-0.15-0.04-0.22
		c0.04,0,0.09-0.01,0.12,0.02c0.18,0.13,0.38,0.23,0.58,0.3c0.21,0.08,0.39,0.23,0.59,0.3c0.12,0.04,0.22,0.15,0.35,0.16l0.06,0.06
		c0.11,0.2,0.31,0.33,0.38,0.56c0.01,0.03,0.03,0.04,0.05,0.05C22.63,38.65,22.68,39.01,22.72,39.37z"/>
	<path fill-rule="evenodd" fill="#7E4C97" d="M26.37,39.37c-0.12-0.02-0.22,0.03-0.3,0.13c-0.04,0.05-0.09,0.1-0.16,0.12
		c-0.08,0.03-0.15,0.07-0.11,0.19c0.02,0.06-0.01,0.12-0.09,0.09c-0.05-0.02-0.08,0.01-0.11,0.04c-0.16,0.13-0.32,0.26-0.48,0.4
		c-0.07,0.06-0.14,0.12-0.2,0.2c-0.05,0.06-0.09,0.13-0.17,0.16c-0.11-0.6-0.22-1.19-0.32-1.79c0.14,0,0.27,0.01,0.41-0.05
		c0.11-0.05,0.23-0.06,0.33,0.1c-0.05-0.27,0.03-0.43,0.31-0.54c0.23-0.09,0.39-0.28,0.56-0.45c0.04-0.04,0.08-0.07,0.13-0.08
		C26.24,38.39,26.31,38.88,26.37,39.37z"/>
	<path fill-rule="evenodd" fill="#CB88AC" d="M9.35,14.78c0.05,0.1,0.16,0.13,0.22,0.22L9.58,15c0.15-0.1,0.21,0.1,0.33,0.12
		c0.13,0.02,0.28,0.07,0.37,0.12c0.18,0.11,0.38,0.12,0.56,0.22c0.08,0.04,0.16,0.09,0.25,0.14c0.03,0.01,0.05,0.02,0.08,0.03
		c0.36,0.03,0.69,0.16,1.02,0.3c0.06,0.02,0.16-0.02,0.17,0.1c-0.3,0.09-0.6,0.16-0.9,0.26c-0.39,0.12-0.78,0.29-1.16,0.46
		c-0.42-0.1-0.49-0.47-0.55-0.84c-0.01-0.1-0.01-0.21,0.09-0.27c0.11-0.07,0.23-0.08,0.35,0.04c-0.02-0.11-0.27-0.4-0.34-0.39
		c-0.06,0.01-0.11,0.04-0.17,0.05c-0.31,0.03-0.6-0.12-0.9-0.17l-0.03-0.05C8.95,15,9.14,14.87,9.35,14.78z M10.4,15.83l-0.05-0.04
		c-0.03-0.01-0.03,0.02-0.02,0.04l0.04,0.03L10.4,15.83z"/>
	<path fill-rule="evenodd" fill="#454998" d="M16.96,39.59c0.08,0.02,0.16,0.03,0.25,0c0.12-0.03,0.25,0.02,0.37,0.03
		c0.34,0.03,0.66-0.08,0.98-0.18c0.06-0.02,0.11-0.04,0.17-0.03c0.05,0.24,0.08,0.49,0.09,0.74c-0.19,0.01-0.3,0.18-0.42,0.29
		c-0.36,0.32-0.69,0.68-1.03,1.03c-0.05,0.05-0.09,0.11-0.17,0.1c-0.04-0.38-0.09-0.77-0.13-1.15
		C17.03,40.13,16.99,39.86,16.96,39.59z"/>
	<path fill-rule="evenodd" fill="#454998" d="M28.17,28.96c-0.03,0.09-0.11,0.09-0.17,0.1c-0.1,0.01-0.22,0.16-0.31-0.04l-0.01,0
		c-0.14,0.02-0.27,0.02-0.35-0.14c-0.25,0.02-0.43-0.22-0.67-0.2l-0.04-0.01c-0.16-0.08-0.16-0.08-0.27-0.02
		c-0.01-0.25,0.07-0.47,0.14-0.7c0.09-0.28,0.17-0.55,0.27-0.84c0.27,0.16,0.55,0.31,0.81,0.48c0.17,0.11,0.29,0.27,0.35,0.49
		C28,28.37,28.09,28.67,28.17,28.96z"/>
	<path fill-rule="evenodd" fill="#CB88AC" d="M7.69,7.31C7.63,7.14,7.76,6.85,7.91,6.79C8.1,6.71,8.28,6.59,8.46,6.5
		c0.14-0.08,0.3-0.09,0.45-0.17c0.43-0.23,0.89-0.38,1.36-0.48c0.26-0.05,0.52-0.12,0.78-0.18c0.23-0.06,0.46-0.08,0.69-0.04
		c0.14,0.03,0.3,0.12,0.34,0.32c-0.67,0.14-1.33,0.3-1.98,0.49C9.43,6.63,8.79,6.85,8.16,7.11C8,7.18,7.84,7.24,7.69,7.31z"/>
	<path fill-rule="evenodd" fill="#CB88AC" d="M31.66,34.9c0.07,0.07,0.12,0.16,0.17,0.25c0.12,0.18,0.3,0.32,0.38,0.53
		c0.07,0.17,0.24,0.25,0.33,0.4c0.09,0.14,0.23,0.25,0.34,0.38c0.05,0.06,0.1,0.09,0.18,0.08c-0.06,0.26-0.19,0.48-0.3,0.71
		c-0.18,0.35-0.37,0.69-0.59,1.06c-0.03-0.18-0.06-0.33-0.08-0.49c-0.11-0.75-0.23-1.49-0.34-2.24
		C31.72,35.36,31.69,35.13,31.66,34.9z"/>
	<path fill-rule="evenodd" fill="#374596" d="M29.43,42.06c-0.3-0.08-0.31-0.36-0.35-0.61c-0.03-0.24,0.07-0.46,0.13-0.68
		c0.16-0.6,0.31-1.2,0.47-1.8c0.03-0.1,0.07-0.2,0.1-0.3c0.02-0.06,0.06-0.1,0.12-0.09c0.04,0.66,0.1,1.32,0.13,1.99
		c0.01,0.34-0.06,0.64-0.22,0.92C29.69,41.69,29.58,41.88,29.43,42.06z"/>
	<path fill-rule="evenodd" fill="#A3609F" d="M12.88,20.72c-0.21-0.04-0.43-0.08-0.64,0c-0.24,0.09-0.49,0.06-0.74,0.15
		c-0.11,0.04-0.15,0.17-0.27,0.19c-0.08,0.02-0.15,0.08-0.24,0.11c-0.11,0.03-0.15,0.08-0.06,0.2c-0.16-0.01-0.25-0.13-0.38-0.15
		c-0.29-0.12-0.56-0.3-0.85-0.42c-0.13-0.05-0.28-0.08-0.36-0.23c0.1-0.1,0.22-0.16,0.34-0.22c0.13,0,0.26-0.04,0.38,0
		c0.19,0.05,0.37,0.05,0.55,0c0.18-0.05,0.35,0,0.53-0.01c0.13-0.01,0.26,0.02,0.39-0.01c0.2-0.06,0.4,0,0.6,0.03
		c0.25,0.04,0.46,0.23,0.7,0.31C12.87,20.67,12.87,20.69,12.88,20.72z"/>
	<path fill-rule="evenodd" fill="#BF6599" d="M2.83,25.41c-0.22,0.06-0.46,0.09-0.64,0.24c-0.24,0.19-0.49,0.38-0.68,0.63
		c-0.22,0.28-0.44,0.56-0.62,0.88c-0.2,0.34-0.37,0.7-0.5,1.08c-0.08,0.22-0.13,0.45-0.2,0.68c-0.01,0.04-0.03,0.08-0.08,0.08
		c-0.01-0.17,0.04-0.33,0.06-0.5c0.08-0.5,0.23-0.97,0.46-1.41C0.8,26.74,1,26.43,1.2,26.12c0.11-0.17,0.22-0.34,0.35-0.49
		C1.68,25.47,1.81,25.3,2,25.22c0.04-0.02,0.1-0.05,0.11-0.09c0.06-0.14,0.19-0.19,0.3-0.26c0.08-0.04,0.13-0.12,0.22-0.17
		c0.18-0.08,0.37-0.06,0.55-0.1C3.1,24.89,2.94,25.13,2.83,25.41z"/>
	<path fill-rule="evenodd" fill="#5F4F9A" d="M4.1,27.13c0.13-0.02,0.2,0.11,0.3,0.16c0.09,0.05,0.18,0.1,0.26-0.01l0.05-0.02
		c0.03,0.01,0.02,0.04,0,0.06c-0.04,0.06-0.02,0.11,0.04,0.11c0.11-0.01,0.2,0.05,0.3,0.08c0.1,0.02,0.18,0.13,0.3,0.13
		c0.13,0,0.24,0.1,0.38,0.06c0.11-0.03,0.12,0.1,0.18,0.14c-0.13,0.29-0.27,0.58-0.4,0.87c-0.05-0.07-0.1-0.12-0.2-0.11
		c-0.07,0.01-0.13-0.06-0.18-0.12c-0.09-0.1-0.19-0.14-0.31-0.15c-0.1-0.01-0.18-0.08-0.28-0.11c-0.2-0.04-0.39-0.08-0.56-0.21
		C3.93,27.98,3.82,28,3.75,27.96C3.85,27.68,3.97,27.4,4.1,27.13z"/>
	<path fill-rule="evenodd" fill="#5F4F9A" d="M16,31.85c-0.24-0.02-0.48-0.04-0.71-0.12c-0.22-0.08-0.46-0.12-0.68-0.2
		c-0.14-0.05-0.27-0.14-0.41-0.2c-0.16-0.07-0.33-0.15-0.48-0.24c-0.22-0.12-0.42-0.28-0.63-0.42c-0.04-0.03-0.06-0.08-0.07-0.13
		C14.21,30.45,15.19,30.93,16,31.85z"/>
	<path fill-rule="evenodd" fill="#454998" d="M24.99,41.97c0.11-0.06,0.21-0.11,0.32-0.17l0.01-0.01c0.18,0,0.29-0.11,0.37-0.27
		c0.02-0.03,0.08-0.08,0.11-0.04c0.1,0.12,0.12,0.01,0.18-0.05c0.11-0.12,0.25-0.17,0.39-0.16c0.08,0,0.12-0.08,0.2-0.05
		c0.02,0.2,0.03,0.41,0.05,0.61c-0.14-0.02-0.23,0.03-0.24,0.2c0,0.07-0.04,0.1-0.1,0.11c-0.05,0.01-0.08,0.04-0.1,0.08
		c-0.19,0.23-0.45,0.37-0.63,0.61l-0.04,0.02c-0.15-0.09-0.23,0.09-0.35,0.1C25.11,42.62,25.05,42.3,24.99,41.97z"/>
	<path fill-rule="evenodd" fill="#786CA9" d="M3.25,16.69c-0.27-0.25-0.48-0.57-0.81-0.76c-0.05-0.03-0.1-0.01-0.15-0.03
		c-0.2-0.05-0.39-0.16-0.61-0.18c-0.12-0.01-0.25-0.09-0.39-0.09c0.09-0.16,0.2-0.32,0.32-0.46c0.21,0.1,0.43,0.1,0.64,0.17
		c0.03,0.01,0.04-0.02,0.04-0.05l0,0c0.37,0.24,0.81,0.29,1.2,0.45l0.03,0.01c0.13-0.17,0.25,0.04,0.37,0.01
		c-0.06,0.17-0.19,0.3-0.29,0.44C3.5,16.37,3.37,16.52,3.25,16.69z"/>
	<path fill-rule="evenodd" fill="#B54A8F" d="M9.35,20.56c0.07,0.15,0.23,0.18,0.36,0.23c0.29,0.12,0.56,0.3,0.85,0.42
		c0.01,0.09-0.05,0.11-0.11,0.11c-0.26,0.02-0.51,0.08-0.77,0.1c-0.22,0.02-0.45,0.02-0.66,0.11c-0.08,0.03-0.18,0.02-0.27,0.03
		c-0.33,0.02-0.64,0.13-0.95,0.2C8.27,21.31,8.78,20.89,9.35,20.56z"/>
	<path fill-rule="evenodd" fill="#A5467D" d="M19.41,11.68c-0.47-0.19-0.94-0.4-1.43-0.53c-0.27-0.08-0.54-0.15-0.81-0.22
		c0.03-0.07-0.07-0.16,0.01-0.23c0.07-0.05,0.14-0.1,0.22-0.09c0.11,0.01,0.22,0.06,0.33,0.02c0.19-0.06,0.37,0.07,0.56,0.04
		c0.1-0.01,0.22,0.04,0.28,0.15c0.02,0.03,0.05,0.07,0.08,0.05c0.14-0.06,0.27-0.01,0.4,0.05c0.04,0.02,0.07,0,0.1-0.02
		c0.17-0.1,0.3,0.08,0.47,0.08c0.06,0-0.07,0.12-0.02,0.2c0.02,0.04,0,0.08-0.04,0.1c-0.05,0.03-0.04,0.08-0.01,0.11
		c0.11,0.11,0.02,0.17-0.06,0.22C19.47,11.64,19.43,11.64,19.41,11.68z"/>
	<path fill-rule="evenodd" fill="#A3609F" d="M20.41,22.79c-0.16-0.29-0.35-0.55-0.54-0.8c-0.01-0.07-0.1-0.1-0.09-0.19
		c0.43,0.42,0.81,0.9,1.17,1.39c0.71,0.96,1.3,2,1.82,3.08c0.06,0.13,0.11,0.27,0.17,0.4c-0.17-0.05-0.24-0.23-0.33-0.36
		c-0.14-0.19-0.25-0.4-0.38-0.59c-0.02-0.03-0.03-0.09-0.08-0.03c-0.49-0.86-0.98-1.72-1.51-2.56c-0.03-0.05-0.06-0.1-0.11-0.14l0,0
		C20.49,22.93,20.45,22.86,20.41,22.79z"/>
	<path fill-rule="evenodd" fill="#BF6599" d="M12.88,20.72c0-0.03-0.01-0.05-0.04-0.06c-0.24-0.08-0.45-0.27-0.7-0.31
		c-0.2-0.03-0.4-0.09-0.6-0.03c-0.13,0.04-0.26,0.01-0.39,0.01c-0.18,0.01-0.36-0.04-0.53,0.01c-0.18,0.05-0.36,0.05-0.55,0
		c-0.12-0.03-0.25,0-0.38,0c0.4-0.26,0.83-0.46,1.26-0.64c0.07-0.03,0.14-0.06,0.21-0.08c0.32,0.24,0.68,0.4,1.03,0.57
		c0.25,0.17,0.52,0.31,0.79,0.44c0.05,0.03,0.1,0.05,0.15,0.08c0,0.03,0,0.06,0,0.09C13.05,20.78,12.96,20.75,12.88,20.72z"/>
	<path fill-rule="evenodd" fill="#B54A8F" d="M19.41,11.68c0.02-0.04,0.06-0.05,0.09-0.07c0.08-0.05,0.17-0.11,0.06-0.22
		c-0.03-0.04-0.04-0.08,0.01-0.11c0.03-0.02,0.06-0.06,0.04-0.1c-0.04-0.08,0.08-0.2,0.02-0.2c-0.16,0.01-0.3-0.18-0.47-0.08
		c-0.03,0.02-0.06,0.04-0.1,0.02c-0.13-0.06-0.26-0.1-0.4-0.05c-0.03,0.01-0.06-0.02-0.08-0.05c-0.06-0.11-0.18-0.16-0.28-0.15
		c-0.19,0.02-0.37-0.11-0.56-0.04c-0.12,0.04-0.22,0-0.33-0.02c-0.08-0.01-0.15,0.04-0.22,0.09c-0.09,0.07,0.02,0.15-0.01,0.23
		c-0.24-0.05-0.48-0.09-0.71-0.14c0-0.03,0-0.06,0-0.09c0.01-0.06-0.05-0.12-0.01-0.16c0.06-0.05,0.13-0.08,0.2-0.11
		c0.07-0.02,0.12,0.02,0.15,0.08c0.04,0.08,0.11,0.07,0.13,0c0.06-0.13,0.18-0.13,0.26-0.11c0.4,0.07,0.82,0.05,1.22,0.15
		c0.29,0.07,0.58,0.12,0.86,0.17c0.06,0.01,0.12,0.03,0.18,0.05c0.13,0.05,0.17,0.01,0.15-0.14c-0.01-0.04-0.03-0.09,0.02-0.1
		c0.05-0.01,0.05,0.05,0.06,0.08c0.1,0.38,0.21,0.76,0.3,1.14c0.02,0.07,0,0.14,0,0.21C19.79,11.88,19.6,11.78,19.41,11.68z"/>
	<path fill-rule="evenodd" fill="#5F4F9A" d="M6.87,39.33c-0.19,0.08-0.32,0.23-0.47,0.36c-0.26,0.23-0.52,0.48-0.75,0.75
		c-0.16,0.18-0.33,0.35-0.48,0.54c-0.03,0.04-0.06,0.08-0.11,0.09c-0.01-0.22,0-0.43,0.02-0.65c0.11-0.09,0.15-0.25,0.29-0.31l0,0
		c0,0.09-0.08,0.14-0.09,0.24c0.1-0.09,0.21-0.18,0.3-0.28c0.38-0.4,0.8-0.75,1.21-1.11c0.03-0.03,0.07-0.05,0.11-0.06
		C6.92,39.05,6.88,39.19,6.87,39.33z"/>
	<path fill-rule="evenodd" fill="#B54A8F" d="M12.19,20.19c-0.35-0.17-0.71-0.33-1.03-0.57c0.43-0.16,0.86-0.31,1.31-0.38
		c0,0.06,0.07,0.07,0.09,0.12c0,0.16-0.08,0.3-0.06,0.47c0.01,0.09-0.09,0.15-0.15,0.21C12.3,20.1,12.21,20.11,12.19,20.19z"/>
	<path fill-rule="evenodd" fill="#9B4693" d="M24.55,24.05c0.09-0.01,0.18,0,0.22,0.1c0.06,0.13,0.19,0.12,0.27,0.12
		c0.17-0.01,0.37,0.11,0.52-0.06c0.03-0.03,0.06-0.03,0.09-0.02c0.06,0.02,0.12,0.01,0.13-0.07c0.01-0.08,0.06-0.09,0.1-0.04
		c0.08,0.1,0.16,0.04,0.24,0c-0.05,0.28-0.1,0.56-0.14,0.85c-0.01,0.08-0.04,0.1-0.11,0.06c-0.37-0.2-0.74-0.39-1.11-0.58
		C24.61,24.33,24.59,24.18,24.55,24.05z M25.91,24.23l-0.02-0.01l-0.01,0.03l0.02,0.01L25.91,24.23z"/>
	<path fill-rule="evenodd" fill="#A5467D" d="M11.32,11.13c-0.05-0.1-0.07-0.21-0.01-0.31c0.02-0.04,0.04-0.08,0.09-0.09
		c0.14-0.02,0.28-0.09,0.43-0.09c0.19,0,0.37-0.09,0.56-0.07c0.16,0.02,0.31-0.06,0.47,0c0.08,0.03,0.17,0,0.25,0
		c0.13,0,0.26,0.02,0.33,0.17c-0.18,0.03-0.35,0.06-0.53,0.08c-0.52,0.07-1.03,0.18-1.54,0.31L11.32,11.13z"/>
	<path fill-rule="evenodd" fill="#7E4C97" d="M12.8,21.62c-0.14-0.08-0.15-0.23-0.14-0.35c0.01-0.12,0.14-0.19,0.24-0.2
		c0.29-0.02,0.56,0.04,0.83,0.16c0.04,0.02,0.08,0.07,0.13,0.02c0.18,0.06,0.33,0.17,0.49,0.28C13.82,21.51,13.31,21.54,12.8,21.62z
		"/>
	<path fill-rule="evenodd" fill="#BF6599" d="M15.46,13.6c0.06,0,0.07,0.06,0.09,0.11c0.09,0.22,0.18,0.43,0.26,0.65
		c0.02,0.06,0.04,0.11,0.08,0.16c0.04,0.04,0.07,0.1,0.02,0.16c-0.03,0.04-0.02,0.08,0.01,0.11c0.11,0.12,0.08,0.27,0.12,0.41
		c-0.1,0.11-0.18,0.01-0.26-0.03c-0.23-0.16-0.24-0.43-0.31-0.67c-0.08-0.26-0.16-0.52-0.28-0.78c-0.04-0.09-0.04-0.19-0.07-0.28
		c0.04,0,0.08,0,0.12-0.01c-0.03,0.12,0.09,0.15,0.13,0.23c0.09,0.21,0.16,0.42,0.25,0.63c0.05,0.12,0.07,0.25,0.17,0.34
		c0.04-0.06,0.01-0.09,0-0.13C15.69,14.2,15.55,13.91,15.46,13.6z"/>
	<path fill-rule="evenodd" fill="#A3609F" d="M15.77,15.17c0.08,0.04,0.16,0.14,0.26,0.03c0.04,0.01,0.08,0.02,0.11,0.03
		c0.13,0.3,0.21,0.62,0.31,0.92c-0.2-0.05-0.41-0.1-0.61-0.15c0.06-0.05,0.04-0.1,0.03-0.16C15.82,15.62,15.77,15.4,15.77,15.17z"/>
	<path fill-rule="evenodd" fill="#BF6599" d="M22.16,25.69c0.05-0.06,0.06,0,0.08,0.03c0.13,0.2,0.24,0.4,0.38,0.59
		c0.1,0.13,0.16,0.31,0.33,0.36c0.21,0.35,0.36,0.73,0.51,1.11c-0.1,0.01-0.12-0.1-0.18-0.15c-0.06-0.06-0.09-0.18-0.19-0.18
		c-0.1-0.19-0.2-0.37-0.29-0.56C22.58,26.49,22.37,26.09,22.16,25.69z"/>
	<path fill-rule="evenodd" fill="#A3609F" d="M12.56,19.37c-0.01-0.05-0.09-0.06-0.09-0.12c0.09-0.04,0.19-0.05,0.29-0.06
		c0.01,0.11,0.11,0.11,0.17,0.15c0.14,0.1,0.29,0.19,0.44,0.27c0.12,0.06,0.2,0.18,0.34,0.22c0.04,0.01,0.05,0.1,0.01,0.13
		c-0.05,0.06-0.11,0.1-0.2,0.06c-0.16-0.08-0.29-0.21-0.44-0.3C12.9,19.6,12.73,19.48,12.56,19.37z"/>
	<path fill-rule="evenodd" fill="#CB88AC" d="M23.09,27.44c0.11,0.01,0.13,0.12,0.19,0.18c0.05,0.06,0.07,0.16,0.18,0.15
		c0.27,0.6,0.52,1.22,0.71,1.85c-0.06-0.01-0.06-0.07-0.09-0.11c-0.09-0.2-0.19-0.4-0.28-0.59c-0.1-0.16-0.16-0.35-0.24-0.51
		c-0.11-0.21-0.19-0.44-0.33-0.63c-0.01-0.08-0.05-0.15-0.11-0.19l-0.01-0.02C23.11,27.53,23.1,27.48,23.09,27.44z"/>
	<path fill-rule="evenodd" fill="#B54A8F" d="M14.34,10.67c-0.01-0.1-0.08-0.18-0.12-0.28c-0.04-0.11-0.01-0.12,0.08-0.12
		c0.22,0,0.44,0,0.61,0.19c0.09,0.11,0.23,0.06,0.34,0.12c0.04,0.02,0.1,0.03,0.1,0.1C15.01,10.68,14.67,10.67,14.34,10.67z"/>
	<path fill-rule="evenodd" fill="#9B4693" d="M16.46,16.16c-0.11-0.31-0.18-0.63-0.31-0.92c0.07-0.02,0.13,0.04,0.2,0.03
		c0.16,0.34,0.32,0.67,0.48,1.01C16.71,16.24,16.58,16.21,16.46,16.16z"/>
	<path fill-rule="evenodd" fill="#CB88AC" d="M15.46,13.6c0.09,0.31,0.23,0.6,0.31,0.92c0.01,0.04,0.05,0.07,0,0.13
		c-0.1-0.09-0.12-0.22-0.17-0.34c-0.08-0.21-0.15-0.43-0.25-0.63c-0.04-0.08-0.16-0.11-0.13-0.23c0.07,0,0.13,0,0.2,0.01
		C15.42,13.5,15.45,13.55,15.46,13.6z"/>
	<path fill-rule="evenodd" fill="#A3609F" d="M14.34,21.52c-0.16-0.1-0.31-0.22-0.49-0.28c-0.1-0.11-0.23-0.14-0.35-0.22
		c-0.03-0.02-0.1-0.03-0.08-0.09c0.03-0.06,0.07-0.01,0.11,0c0.04,0.01,0.07,0.02,0.11,0.03c0.04,0.08,0.11,0.1,0.18,0.14
		c0.25,0.13,0.51,0.26,0.74,0.44C14.49,21.55,14.41,21.55,14.34,21.52z"/>
	<path fill-rule="evenodd" fill="#9B4693" d="M18.5,20.66c-0.07,0-0.14,0.02-0.14-0.1C18.41,20.58,18.46,20.61,18.5,20.66z"/>
	<path fill-rule="evenodd" fill="#9B4693" d="M30.19,21.8c-0.03,0-0.07,0.01-0.08-0.04c-0.01-0.04,0.02-0.05,0.05-0.05
		C30.17,21.74,30.18,21.77,30.19,21.8z"/>
	<path fill-rule="evenodd" fill="#5F4F9A" d="M17.32,22.56c0.01-0.02,0.02-0.05,0.05-0.04c0.04,0.02,0.04,0.06,0.04,0.1
		C17.38,22.6,17.35,22.58,17.32,22.56z"/>
	<path fill-rule="evenodd" fill="#CB88AC" d="M15.6,13.47l-0.06-0.01L15.6,13.47z"/>
	<path fill-rule="evenodd" fill="#CB88AC" d="M24.2,29.7c-0.02-0.02-0.03-0.04-0.03-0.07C24.2,29.64,24.2,29.67,24.2,29.7z"/>
	<path fill-rule="evenodd" fill="#786CA9" d="M19.95,29.23l-0.02-0.03L19.95,29.23z"/>
	<polygon fill-rule="evenodd" fill="#CB88AC" points="1.95,11.22 1.94,11.23 1.94,11.24 1.95,11.22 	"/>
	<polygon fill-rule="evenodd" fill="#454998" points="26.63,41.96 26.62,41.94 26.63,41.93 	"/>
	<path fill-rule="evenodd" fill="#BF6599" d="M0.12,29.04c0.1,0.11-0.02,0.19-0.03,0.28C0.03,29.22,0.08,29.13,0.12,29.04z"/>
	<path fill-rule="evenodd" fill="#B54A8F" d="M19.5,10.13c0.02,0.09,0.1,0.16,0.08,0.29C19.53,10.31,19.46,10.24,19.5,10.13z"/>
	<path fill-rule="evenodd" fill="#A3609F" d="M13.13,20.81c0-0.03,0-0.06,0-0.09c0.08,0.06,0.17,0.11,0.26,0.17
		C13.29,20.9,13.21,20.88,13.13,20.81z"/>
	<path fill-rule="evenodd" fill="#5F4F9A" d="M5.36,40.11c0-0.03,0-0.06,0.04-0.07l0.02,0.02C5.42,40.1,5.39,40.11,5.36,40.11
		L5.36,40.11z"/>
	<path fill-rule="evenodd" fill="#D9ADC4" d="M28.01,5.9c0,0.06-0.03,0.07-0.07,0.09C27.88,6.01,27.81,6,27.76,6.06
		c-0.03,0.04-0.07,0.06-0.1,0c-0.02-0.05,0-0.12,0.05-0.13c0.07-0.01,0.12-0.04,0.15-0.12c0.01-0.03,0.04-0.05,0.07-0.02
		C27.95,5.83,28.01,5.84,28.01,5.9z"/>
	<path fill-rule="evenodd" fill="#A5467D" d="M14.69,15.05c0.19,0,0.38,0.05,0.58,0.03c0.05-0.01,0.09,0.04,0.09,0.11
		c0.01,0.15,0,0.3,0.06,0.45c0.02,0.05,0.01,0.1-0.03,0.14c-0.06,0.06-0.14,0.05-0.2,0.02c-0.21-0.08-0.38-0.22-0.56-0.35
		c-0.09-0.07-0.11-0.19-0.16-0.28c-0.03-0.06,0.03-0.1,0.08-0.12C14.59,15.04,14.64,15.05,14.69,15.05z"/>
	<polygon fill-rule="evenodd" fill="#BF6599" points="13.18,14.78 13.21,14.79 13.2,14.82 13.17,14.81 	"/>
	<path fill-rule="evenodd" fill="#9B4693" d="M29.91,21.77c0-0.03-0.01-0.06,0.03-0.08l0.03,0.02
		C29.97,21.76,29.94,21.76,29.91,21.77L29.91,21.77z"/>
	<polygon fill-rule="evenodd" fill="#9B4693" points="29.33,21.35 29.35,21.36 29.34,21.39 29.32,21.38 	"/>
	<path fill-rule="evenodd" fill="#454998" d="M23.09,27.44c0.01,0.04,0.02,0.08,0.03,0.12c-0.11,0-0.23,0.15-0.33-0.04l-0.08-0.02
		c-0.09,0.04-0.13-0.02-0.13-0.09c-0.01-0.13-0.12-0.11-0.15-0.09c-0.19,0.12-0.29-0.05-0.42-0.12c-0.11-0.06-0.21-0.2-0.36-0.11
		c-0.12-0.06-0.14-0.2-0.22-0.29c-0.19-0.21-0.37-0.44-0.55-0.66c0.12-0.07,0.17,0.08,0.26,0.1l0.07,0.05
		c0.13-0.05,0.15,0.03,0.15,0.14c0,0.02,0.01,0.04,0.04,0.04c0.04-0.03-0.03-0.09,0.03-0.12c0.06-0.03,0.08,0.03,0.1,0.06
		c0.03,0.04,0.08,0.05,0.12,0.05c0.1,0,0.19-0.01,0.2,0.13l0.02,0.02c0.05,0.11,0.17-0.11,0.23,0.07c0.03,0.09,0.17,0.07,0.27,0.06
		c0.04,0,0.08,0,0.1,0.04c0.08,0.14,0.2,0.14,0.33,0.11C22.89,27.07,22.99,27.26,23.09,27.44z M21.73,26.57
		c-0.06-0.03-0.1-0.04-0.13,0.01C21.65,26.61,21.68,26.62,21.73,26.57z"/>
	<path fill-rule="evenodd" fill="#454998" d="M20.53,23.46c0,0.05-0.02,0.06-0.05,0.06c-0.05,0-0.07-0.04-0.07-0.08
		c-0.01-0.03,0.02-0.04,0.05-0.04C20.49,23.4,20.52,23.43,20.53,23.46z"/>
	<path fill-rule="evenodd" fill="#454998" d="M20.48,24.04c-0.06-0.02-0.11-0.05-0.17-0.07l0.01-0.04
		C20.39,23.94,20.45,23.94,20.48,24.04z"/>
	<path fill-rule="evenodd" fill="#454998" d="M19.01,23.25c0.07,0.01,0.1,0.04,0.11,0.1C19.05,23.36,19.04,23.32,19.01,23.25z"/>
	<polygon fill-rule="evenodd" fill="#454998" points="19.31,23.55 19.28,23.53 19.29,23.51 19.31,23.52 	"/>
	<polygon fill-rule="evenodd" fill="#786CA9" points="2.29,15.29 2.28,15.28 2.29,15.29 	"/>
	<path fill-rule="evenodd" fill="#9B4693" d="M32.12,33.05c-0.08,0-0.14-0.02-0.08-0.12C32.1,32.94,32.11,33,32.12,33.05z"/>
	<path fill-rule="evenodd" fill="#7E4C97" d="M1.15,16.73L1.13,16.7l0.03-0.03l0.03,0.04C1.2,16.72,1.19,16.73,1.15,16.73z"/>
	<polygon fill-rule="evenodd" fill="#B54A8F" points="12.22,14.63 12.2,14.62 12.21,14.6 12.23,14.61 	"/>
	<path fill-rule="evenodd" fill="#374596" d="M20.41,22.79c0.04,0.07,0.08,0.14,0.12,0.21c-0.07,0-0.16,0.02-0.19-0.08
		C20.32,22.86,20.34,22.81,20.41,22.79z"/>
	<path fill-rule="evenodd" fill="#5F4F9A" d="M21.65,27.1c0.15-0.09,0.25,0.06,0.36,0.11c0.14,0.07,0.23,0.24,0.42,0.12
		c0.03-0.02,0.14-0.05,0.15,0.09c0,0.06,0.04,0.13,0.13,0.09l0.08,0.02c0.1,0.18,0.22,0.03,0.33,0.04l0.01,0.02
		c-0.03,0.02-0.08,0.07-0.04,0.08c0.07,0.02,0.08,0.11,0.15,0.11c0.14,0.19,0.22,0.42,0.33,0.63c0.09,0.17,0.14,0.35,0.24,0.51
		c-0.23,0.05-0.31-0.15-0.39-0.33c-0.08,0.07,0.04,0.12-0.02,0.15c-0.05,0.03-0.12-0.01-0.16-0.04c-0.14-0.12-0.3-0.21-0.48-0.27
		c-0.07-0.02-0.24-0.02-0.24-0.2l-0.05-0.04c-0.13,0.11-0.14-0.04-0.18-0.1c-0.18-0.31-0.39-0.6-0.6-0.89
		C21.68,27.17,21.65,27.15,21.65,27.1z"/>
	<polygon fill-rule="evenodd" fill="#A3609F" points="21.96,28.6 21.98,28.61 21.97,28.63 21.95,28.62 	"/>
	<path fill-rule="evenodd" fill="#D9ADC4" d="M10.4,15.83l-0.03,0.03l-0.04-0.03c-0.01-0.02,0-0.04,0.02-0.04L10.4,15.83z"/>
	<polygon fill-rule="evenodd" fill="#A5467D" points="25.91,24.23 25.9,24.25 25.88,24.24 25.89,24.21 	"/>
	<path fill-rule="evenodd" fill="#454998" d="M23.23,27.78c-0.07-0.01-0.08-0.1-0.15-0.11c-0.04-0.01,0.01-0.06,0.04-0.08
		C23.19,27.63,23.22,27.7,23.23,27.78z"/>
	<path fill-rule="evenodd" fill="#374596" d="M21.73,26.57c-0.05,0.05-0.09,0.04-0.13,0.01C21.64,26.54,21.68,26.54,21.73,26.57z"/>
</g>
<g>
	<g>
		<path fill="#B54A8F" d="M63.7,7.35h-2.1l-0.05,0.08l-16.7,25.33v1.24v0.18h17.21v6.34h1.46h0.18v-6.34H67v-1.36v-0.18h-3.3V7.35z
			 M46.94,32.63L62.06,9.71v22.93H46.94z"/>
		<path fill="#B54A8F" d="M82.47,6.76c-3.46,0-6.29,1.31-8.45,3.9l0,0c-1.44,1.71-2.16,4.04-2.16,6.95V30.7
			c0,3.12,1.03,5.63,3.11,7.46l0.12-0.14l-0.12,0.14c2.22,1.96,4.78,2.95,7.64,2.95c3.03,0,5.69-1.12,7.95-3.35
			c1.81-1.77,2.71-4.14,2.71-7.06V17.22c0-2.96-1.03-5.46-3.08-7.46C88.15,7.76,85.56,6.76,82.47,6.76z M91.63,17.2v13.52
			c0,2.59-0.85,4.7-2.55,6.36c-1.7,1.66-3.88,2.49-6.56,2.49c-2.62,0-4.76-0.84-6.46-2.51c-1.71-1.68-2.55-3.78-2.55-6.33V17.45
			c0-2.76,0.83-4.96,2.48-6.63c1.65-1.67,3.82-2.51,6.54-2.51c2.65,0,4.82,0.84,6.54,2.51C90.78,12.5,91.63,14.61,91.63,17.2z"/>
		<path fill="#B54A8F" d="M115.77,7.35h-2.1l-0.05,0.08l-16.7,25.33v1.24v0.18h17.21v6.34h1.46h0.18v-6.34h3.3v-1.36v-0.18h-3.3
			V7.35z M99,32.63l15.12-22.93v22.93H99z"/>
		<g>
			<path fill="#374596" d="M151.52,40.56h-13.34c-4.21,0-7.56-1.06-10.06-3.18c-1.94-1.65-3.31-3.89-4.12-6.73
				c-0.53-1.86-0.79-3.89-0.79-6.09c0-0.41,0.01-0.73,0.02-0.98c0.02-0.24,0.04-0.45,0.07-0.63V7.35h7.42v15.59
				c0,2.81,0.59,5.17,1.77,7.1c1.36,2.22,3.26,3.33,5.67,3.33h13.34V40.56z"/>
			<path fill="#374596" d="M187.61,40.56h-7.91l-8.73-25.57c-0.05-0.26-0.24-0.39-0.57-0.39c-0.35,0-0.58,0.13-0.69,0.39
				l-8.56,25.57h-8.01c0.62-2.09,1.6-5.23,2.93-9.43c1.49-4.65,2.96-9.09,4.39-13.32c1.58-4.62,2.55-7.21,2.91-7.76
				c0.67-0.93,1.64-1.64,2.9-2.13c1.26-0.49,2.62-0.73,4.1-0.73c1.46,0,2.83,0.24,4.09,0.73c1.27,0.49,2.22,1.2,2.86,2.13
				c0.41,0.54,1.4,3.12,2.96,7.74c1.1,3.25,2.55,7.69,4.34,13.33C185.61,34.25,186.61,37.41,187.61,40.56z"/>
			<path fill="#374596" d="M215.52,23.97c0.66,0.84,1.16,1.82,1.5,2.95c0.35,1.14,0.52,2.3,0.52,3.49c0,2.73-0.76,5.05-2.27,6.98
				c-1.68,2.14-3.94,3.21-6.78,3.21h-19.06v-7h17.82c0.8,0,1.45-0.32,1.95-0.95c0.44-0.57,0.67-1.26,0.67-2.08
				c0-0.8-0.21-1.46-0.64-2c-0.48-0.6-1.13-0.9-1.97-0.9h-17.82v-7.4h17.82c0.84,0,1.5-0.3,1.97-0.9c0.43-0.54,0.64-1.2,0.64-2
				c0-0.81-0.21-1.5-0.64-2.07c-0.48-0.64-1.13-0.95-1.97-0.95h-17.82v-7h19.06c2.83,0,5.1,1.09,6.83,3.28
				c1.55,1.96,2.32,4.31,2.32,7.04c0,1.2-0.18,2.36-0.53,3.45C216.75,22.21,216.22,23.16,215.52,23.97z"/>
		</g>
	</g>
</g>
</svg>
