<?xml version="1.0" encoding="utf-8"?>
<svg version="1.1" id="Calque_1" xmlns="http://www.w3.org/2000/svg" xmlns:xlink="http://www.w3.org/1999/xlink" x="0px" y="0px"
	 viewBox="0 0 35.1 46.8" style="enable-background:new 0 0 35.1 46.8;" xml:space="preserve">
<style type="text/css">
	.st0{fill-rule:evenodd;clip-rule:evenodd;fill:#FEFEFF;}
	.st1{fill-rule:evenodd;clip-rule:evenodd;fill:#D9ADC4;}
	.st2{fill-rule:evenodd;clip-rule:evenodd;fill:#603865;}
	.st3{fill-rule:evenodd;clip-rule:evenodd;fill:#CB88AC;}
	.st4{fill-rule:evenodd;clip-rule:evenodd;fill:#374596;}
	.st5{fill-rule:evenodd;clip-rule:evenodd;fill:#BF6599;}
	.st6{fill-rule:evenodd;clip-rule:evenodd;fill:#5F4F9A;}
	.st7{fill-rule:evenodd;clip-rule:evenodd;fill:#A5467D;}
	.st8{fill-rule:evenodd;clip-rule:evenodd;fill:#906684;}
	.st9{fill-rule:evenodd;clip-rule:evenodd;fill:#9B4693;}
	.st10{fill-rule:evenodd;clip-rule:evenodd;fill:#454998;}
	.st11{fill-rule:evenodd;clip-rule:evenodd;fill:#786CA9;}
	.st12{fill-rule:evenodd;clip-rule:evenodd;fill:#BB8AA3;}
	.st13{fill-rule:evenodd;clip-rule:evenodd;fill:#B54A8F;}
	.st14{fill-rule:evenodd;clip-rule:evenodd;fill:#A3609F;}
	.st15{fill-rule:evenodd;clip-rule:evenodd;fill:#7E4C97;}
</style>
<g>
	<path class="st0" d="M24.2,29.6L24.2,29.6c-0.2-0.6-0.4-1.2-0.7-1.9c-0.1-0.4-0.3-0.8-0.5-1.1c-0.1-0.1-0.1-0.3-0.2-0.4
		c-0.5-1.1-1.1-2.1-1.8-3.1c-0.4-0.5-0.7-1-1.2-1.4c-0.1-0.1-0.2-0.3-0.4-0.4c-0.3-0.3-0.6-0.5-0.9-0.8c0,0-0.1-0.1-0.1-0.1l0,0
		c0,0-0.1-0.1-0.1-0.1c-1.7-1.1-3.5-1.6-5.5-1.3c-0.1,0-0.2,0-0.3,0.1c-0.4,0.1-0.9,0.2-1.3,0.4c-0.1,0-0.1,0-0.2,0.1
		c-0.4,0.2-0.9,0.4-1.3,0.6c-0.1,0.1-0.2,0.1-0.3,0.2c-0.6,0.3-1.1,0.8-1.6,1.2c0,0-0.1,0.1-0.1,0.1c-0.6,0.6-1.2,1.3-1.7,2
		c-0.4,0.6-0.8,1.2-1.2,1.9c-0.2,0.4-0.5,0.9-0.7,1.4C4,27.4,3.9,27.7,3.8,28c-0.2,0.4-0.3,0.9-0.5,1.3c-0.7,2-1.1,4-1.5,6
		c-0.1,0.6-0.1,1.1,0,1.7c0.1,0.8,0.4,1.4,0.9,2c0.1,0.1,0.2,0.3,0.3,0.4C3,39.3,3,39.2,3.1,39c0.1-0.7,0.2-1.4,0.3-2.1
		c0.2-1.5,0.5-3.1,0.9-4.6c0.2-0.6,0.3-1.2,0.6-1.8c0.2-0.6,0.5-1.2,0.7-1.9c0.1-0.3,0.3-0.6,0.4-0.9c0.3-0.5,0.5-1,0.8-1.5
		c0,0,0,0,0.1-0.1c0.8-1.3,1.7-2.4,2.9-3.2c0.7-0.5,1.4-0.9,2.2-1.2c0.3-0.1,0.6-0.2,0.9-0.3c0.5-0.1,1-0.1,1.5-0.1
		c0.1,0,0.1,0,0.2,0c0.1,0,0.2,0,0.3,0c0.9,0.1,1.6,0.5,2.4,0.9l0,0c0,0,0.1,0,0.1,0.1c0.5,0.4,1,0.8,1.5,1.3
		c0.4,0.4,0.7,0.9,1.1,1.3c0.3,0.5,0.6,1,0.9,1.6c0.4,0.8,0.9,1.7,1.2,2.6c0.3,0.7,0.5,1.4,0.8,2.2v0.1c0.2,0.7,0.3,1.4,0.5,2.1
		c0.1,0.6,0.2,1.2,0.4,1.7c0,0,0,0.1,0,0.2c0.1,0.4,0.1,0.7,0.2,1.1c0,0.3,0.1,0.5,0.1,0.8c0.1,0.5,0.2,0.9,0.3,1.4
		c0.1,0.6,0.2,1.2,0.3,1.8c0.1,0.4,0.1,0.8,0.2,1.3c0.1,0.3,0.1,0.7,0.2,1c0.1,0.5,0.2,1,0.3,1.6c0,0.2,0.1,0.4,0.1,0.7
		c0.3-0.4,0.6-0.7,0.9-1c0.2-0.2,0.3-0.5,0.3-0.8c0-0.5-0.1-1-0.1-1.4v0c0,0,0-0.1,0-0.1c0-0.2,0-0.4,0-0.6
		c-0.1-0.6-0.1-1.2-0.2-1.8c-0.1-0.5-0.1-1-0.2-1.5c0-0.2-0.1-0.4-0.1-0.6c-0.1-0.6-0.2-1.3-0.3-1.9c-0.1-0.4-0.1-0.8-0.3-1.2
		c-0.1-0.5-0.2-1-0.4-1.6c-0.1-0.6-0.3-1.2-0.5-1.9C24.5,30.4,24.4,30.1,24.2,29.6C24.2,29.7,24.2,29.6,24.2,29.6z M17.2,10.9
		c0.3,0.1,0.5,0.1,0.8,0.2c0.5,0.1,1,0.3,1.4,0.5c0.2,0.1,0.4,0.2,0.6,0.3c0.3,0.2,0.5,0.3,0.8,0.5c1.8,1.1,3.2,2.6,4.5,4.3
		c0.3,0.4,0.6,0.8,0.9,1.2c0.3,0.5,0.6,1,0.9,1.4c0.4,0.6,0.7,1.2,1,1.9c0.3,0.7,0.6,1.4,0.9,2c0,0,0,0.1,0,0.1c0.9,2.3,1.5,4.6,2,7
		c0.1,0.4,0.1,0.7,0.2,1.1c0,0,0,0.1,0,0.1c0.1,0.4,0.2,0.9,0.2,1.3c0.1,0.6,0.2,1.3,0.3,1.9c0,0.2,0.1,0.5,0.1,0.7
		c0.1,0.8,0.2,1.5,0.3,2.2c0,0.2,0,0.3,0.1,0.5c0.2-0.4,0.4-0.7,0.6-1.1c0.1-0.2,0.2-0.5,0.3-0.7c0-0.1,0.1-0.2,0.1-0.3
		c0.1-0.4,0.2-0.8,0.2-1.2c0-0.5,0-0.9-0.1-1.4c-0.1-0.5-0.2-1-0.3-1.5c-0.1-0.8-0.3-1.5-0.5-2.3c-0.1-0.7-0.3-1.3-0.4-2l0-0.1
		c-0.3-1.3-0.7-2.6-1.1-3.9c-0.2-0.6-0.4-1.3-0.7-1.9c0-0.1-0.1-0.2-0.1-0.3c0,0,0-0.1,0-0.1c0,0,0-0.1,0-0.1
		c-0.5-1.2-1-2.4-1.6-3.6c-0.3-0.7-0.7-1.3-1.1-1.9c-0.8-1.3-1.8-2.5-2.9-3.6c-1.2-1.2-2.6-2.2-4.1-2.9c-0.6-0.3-1.2-0.5-1.8-0.7
		c0,0-0.1,0-0.1-0.1c-0.6-0.2-1.2-0.3-1.8-0.4c-0.6-0.1-1.2-0.1-1.9-0.2c-0.4,0-0.8,0-1.2,0.1c-0.5,0-1.1,0.1-1.6,0.2
		c-0.4,0.1-0.8,0.1-1.2,0.3C10.1,9.1,9.5,9.3,9,9.5l-0.1,0c-0.7,0.3-1.4,0.6-2.1,1c-0.2,0.1-0.4,0.2-0.4,0.5
		c-0.1,0.4-0.2,0.8-0.3,1.2c0,0.1,0,0.1,0.1,0.1c0.2,0.1,0.4,0.2,0.6,0.3c0.4,0.2,0.8,0.1,1.2-0.2c0.2-0.1,0.5-0.3,0.7-0.4
		c0.6-0.3,1.2-0.5,1.8-0.7c0.2-0.1,0.5-0.1,0.8-0.2h0.1c0.5-0.1,1-0.2,1.5-0.3c0.2,0,0.4-0.1,0.5-0.1c0.2,0,0.4,0,0.5,0
		c0.1,0,0.2,0,0.3,0c0.3,0,0.7,0,1,0c0.4,0,0.7,0.1,1.1,0.1C16.7,10.8,16.9,10.9,17.2,10.9z M1.3,15.6c0,0.1-0.1,0.1-0.1,0.2
		c-0.5,0.8-0.8,1.6-1,2.5C0.1,18.9,0,19.5,0,20.2c0,0.2,0,0.5,0.1,0.7c0.4-0.5,0.8-1,1.2-1.5c0.2-0.3,0.4-0.5,0.6-0.8
		c0.1-0.1,0.2-0.3,0.3-0.4c0.3-0.5,0.7-1,1.1-1.4c0.1-0.2,0.2-0.3,0.4-0.5c0.1-0.1,0.2-0.3,0.3-0.4c0.1-0.1,0.2-0.3,0.3-0.4
		c0.2-0.2,0.2-0.4,0.3-0.6c0-0.4,0-0.8,0.1-1.1c0,0,0-0.1-0.1-0.1c-0.2-0.1-0.5-0.2-0.7-0.2c-0.2-0.1-0.3-0.1-0.5,0.1
		c-0.6,0.6-1.2,1.2-1.7,1.9C1.5,15.3,1.4,15.5,1.3,15.6z M28.2,29c-0.1-0.3-0.2-0.6-0.3-0.9c-0.1-0.2-0.2-0.4-0.4-0.5
		c-0.3-0.2-0.5-0.3-0.8-0.5c-0.1,0.3-0.2,0.6-0.3,0.8c-0.1,0.2-0.1,0.5-0.1,0.7c0,0,0,0.1,0,0.1c0,0.2,0,0.3,0.1,0.5
		c0.2,1,0.4,2.1,0.6,3.1c0.1,0.4,0.1,0.8,0.2,1.2c0,0.3,0.1,0.5,0.1,0.8c0,0.2,0.1,0.5,0.1,0.7c0.2,1.1,0.4,2.2,0.6,3.3
		c0.2,1,0.4,2,0.6,3c0.1,0.5,0.2,1,0.3,1.5c0.2-0.3,0.4-0.5,0.5-0.8c0.1-0.2,0.3-0.4,0.4-0.6c0.2-0.3,0.2-0.6,0.2-0.9
		c0-0.7-0.1-1.3-0.1-2c0-0.3,0-0.6-0.1-0.8c0-0.6-0.1-1.2-0.2-1.9c-0.1-0.7-0.2-1.3-0.3-2c-0.2-1-0.4-2.1-0.7-3.1v-0.1
		C28.5,30.1,28.4,29.5,28.2,29z M5.1,41.1c0,0.4,0,0.8,0.1,1.2c0.2,0.9,0.9,1.4,1.7,1.7c0-1.6-0.2-3.1,0-4.7c0-0.1,0.1-0.3,0-0.4
		C7,38.5,7,38.1,7,37.7l0,0c0.1-0.9,0.2-1.7,0.3-2.6C7.5,34,7.7,33,8,32c0.1-0.5,0.4-1,0.5-1.5c0.2-0.3,0.4-0.7,0.5-1l0.1-0.1
		c0.4-0.6,0.8-1.1,1.3-1.5c0.7-0.6,1.6-0.9,2.5-1c0.9-0.1,1.8,0,2.7,0.5c0.6,0.3,1.1,0.7,1.6,1.2c0.6,0.7,1.1,1.5,1.5,2.4
		c0.6,1.4,1,2.8,1.4,4.2c0.1,0.5,0.3,1.1,0.4,1.6c0,0.1,0,0.2,0,0.2c0.1,0.6,0.2,1.2,0.4,1.8c0.1,0.7,0.2,1.3,0.3,2
		c0,0.3,0.1,0.7,0.1,1c0,0.1,0,0.2,0,0.2c0.1,0.7,0.1,1.3,0.2,2c0.1,0.7,0.1,1.5,0.2,2.2c0,0.1,0,0.1,0.1,0.1
		c0.5-0.2,0.9-0.3,1.4-0.4c0.1,0,0.1,0,0.1-0.1c0-0.6-0.1-1.2-0.1-1.8c0-0.1,0-0.2,0-0.3c-0.1-1-0.1-1.9-0.2-2.8
		c-0.1-0.5-0.1-1.1-0.2-1.6c0-0.4-0.1-0.7-0.1-1.1c0-0.1,0-0.2,0-0.3c-0.1-1.1-0.3-2.1-0.6-3.2c-0.3-1.3-0.7-2.6-1.2-3.8
		c-0.2-0.6-0.5-1.1-0.8-1.7l0,0l0,0c-0.4-0.7-0.7-1.3-1.2-1.8c-0.3-0.4-0.7-0.8-1-1.1c-0.4-0.4-0.8-0.6-1.2-0.9
		c-1.8-1.1-3.7-1.2-5.6-0.3c-1,0.5-1.9,1.3-2.6,2.2C8,27.6,7.8,28,7.6,28.4l-0.1,0.1c-0.5,0.9-0.9,1.8-1.2,2.7
		c-0.4,1.2-0.6,2.4-0.8,3.7c-0.1,0.5-0.1,1.1-0.2,1.6c-0.1,0.7-0.1,1.4-0.2,2c0,0.6-0.1,1.3-0.1,1.9C5.1,40.6,5,40.8,5.1,41.1z
		 M2,11.2c0.1-0.1,0.2-0.2,0.4-0.3c0.9-0.8,1.9-1.6,2.9-2.2c0.3-0.2,0.6-0.4,0.9-0.6C6.3,8,6.4,7.9,6.5,7.9c0.4-0.2,0.8-0.4,1.2-0.6
		C7.8,7.2,8,7.2,8.2,7.1c0.6-0.3,1.3-0.5,1.9-0.7c0.7-0.2,1.3-0.3,2-0.5c0.3,0,0.6-0.1,0.9-0.1c0.2,0,0.4-0.1,0.5-0.3
		c0.3-0.3,0.4-0.7,0.7-1c0-0.1,0-0.1,0-0.1c-0.2-0.3-0.4-0.5-0.7-0.8c-0.1-0.2-0.3-0.2-0.6-0.2c-1.4,0.4-2.7,0.8-4,1.2
		C8.1,4.9,7.3,5.1,6.5,5.4C6,5.5,5.5,5.7,5.1,6C4.6,6.3,4.1,6.7,3.8,7.2C3.6,7.4,3.4,7.7,3.3,7.9l0,0.1C2.7,9,2.3,10,2,11.1
		C2,11.1,2,11.2,2,11.2L2,11.2L2,11.2L2,11.2z M18.7,39.4c0-0.1,0-0.2,0-0.3c-0.1-0.9-0.3-1.8-0.5-2.7c-0.3-1.1-0.7-2.2-1.2-3.3
		c-0.2-0.5-0.6-0.9-0.9-1.3c-0.8-0.9-1.8-1.4-3-1.3c-0.2,0-0.4,0.1-0.7,0.1c-0.6,0.1-1.1,0.4-1.5,0.8l-0.1,0c-0.6,0.5-1,1.1-1.3,1.8
		c-0.5,1.1-0.8,2.2-0.7,3.4c-0.1,0.9,0,1.1,0.8,2.1c0.3-0.3,0.5-0.7,0.8-1c0.1-0.2,0.2-0.3,0.2-0.6c0-0.7,0.1-1.3,0.2-1.9
		c0.1-0.1,0.1-0.3,0.1-0.4c0.3-0.8,0.7-1.3,1.4-1.6c0.4-0.1,0.7-0.2,1.1-0.2c0.3,0,0.6,0.1,0.9,0.2c0.6,0.3,1,0.8,1.3,1.4
		c0.1,0.3,0.2,0.6,0.4,0.9c0,0,0,0.1,0,0.1c0.4,1.3,0.8,2.6,1,4c0,0.3,0.1,0.5,0.1,0.8c0,0.4,0.1,0.8,0.1,1.2v0.1
		c0.1,0.9,0.1,1.7,0.2,2.6c0.1,0.8,0.1,1.6,0.2,2.4c0,0.1,0,0.1,0.1,0.1c0.4,0,0.8,0,1.2,0c0.1,0,0.1,0,0.1-0.2c0-1.8,0-3.7-0.1-5.5
		c0-0.3,0-0.7-0.1-1C18.8,39.9,18.8,39.7,18.7,39.4z M11,45.7c0-0.1,0-0.2,0-0.3c-0.1-1-0.1-2-0.3-3c-0.1-0.5-0.2-0.8-0.6-1.1
		c-0.1-0.1-0.3-0.2-0.5,0c-0.3,0.2-0.5,0.4-0.6,0.7c-0.3,1-0.2,2,0.3,2.9c0.3,0.6,0.8,0.9,1.4,1C10.9,45.8,11.1,45.9,11,45.7z"/>
	<path class="st1" d="M18.6,0C18.7,0,18.7,0,18.6,0c0.4,0,0.7,0,1,0.1c1.3,0,2.5,0.2,3.7,0.7C24.7,1.2,26,2,27.1,2.9
		c0.6,0.5,1.1,1,1.7,1.5C29,4.5,29,4.6,29.2,4.8c0,0-0.1,0-0.1,0c0.1,0.1,0,0.1,0,0.2c0,0-0.1,0-0.2,0c0,0-0.1,0-0.1,0.1
		c0,0,0.1,0.1,0,0.1c0,0.1-0.1,0-0.1,0c-0.1-0.1-0.2,0-0.2,0.1c0,0.1,0,0.1-0.1,0.1c-0.2,0-0.2,0-0.2,0.2l0,0.1l0,0
		c-0.1-0.2-0.1-0.1-0.2,0h-0.1c-0.2,0-0.3,0.2-0.5,0.2l0,0c-1-1-2.1-1.8-3.3-2.6c-1.3-0.8-2.7-1.5-4.1-1.9c-0.7-0.2-1.4-0.4-2.1-0.5
		c-0.5-0.1-1-0.1-1.5-0.2c-0.5,0-0.9-0.1-1.4-0.1c-0.8,0-1.5,0.1-2.3,0.2c-0.8,0.1-1.6,0.2-2.4,0.4c0,0,0,0-0.1,0
		c0.2-0.1,0.5-0.2,0.7-0.3c0.9-0.4,1.8-0.6,2.7-0.8c0.4-0.1,0.9-0.2,1.4-0.2C15.5,0.1,16,0,16.6,0l0.1,0C17.3,0,18,0,18.6,0z"/>
	<path class="st2" d="M33.7,20.4c0.2,0.5,0.3,1,0.5,1.5c0.2,0.6,0.4,1.3,0.5,1.9c0.2,0.6,0.3,1.2,0.3,1.8c0,0,0,0.1,0,0.1
		c0,0.6,0,1.2,0,1.8c0,0,0,0.1,0,0.1c0,0.8-0.1,1.5-0.1,2.3c0,0.1,0,0.1-0.1,0.1c-0.2,0-0.2,0-0.3-0.2c-0.4-1.5-0.8-3-1.2-4.6
		c0.1,0,0.1-0.1,0.1-0.2c0-0.2,0.1-0.4,0.1-0.5c0-0.2,0.1-0.5,0.2-0.7c0-0.1,0.1-0.2,0-0.4c0-0.1,0-0.1,0-0.2c0,0,0.1-0.1,0-0.1
		c-0.1,0-0.1-0.1,0-0.1c0.1-0.1,0-0.1,0-0.1c0,0-0.1-0.1,0-0.1c0.1-0.1,0.1-0.1,0-0.2l0-0.1c0-0.4,0.1-0.9,0.1-1.3c0,0,0-0.1,0-0.1
		C33.7,21,33.7,20.7,33.7,20.4C33.7,20.4,33.7,20.4,33.7,20.4z"/>
	<path class="st3" d="M0,28.7c0-0.2,0.1-0.4,0.1-0.7c0.1-0.9,0.3-1.7,0.6-2.5c0.2-0.6,0.5-1.3,0.8-1.9C2,22.7,2.4,21.8,3,21
		c0.8-1.2,1.6-2.3,2.6-3.3c0.1,0.1,0.1,0.1,0,0.2c-0.1,0.2-0.1,0.5-0.3,0.7c-0.1,0.1-0.1,0.3-0.2,0.4c-0.1,0.1-0.2,0.3-0.3,0.4
		c0,0,0,0.1,0,0.1c0,0,0,0.1,0,0.1c-0.2,0.3-0.4,0.7-0.7,1c-0.1,0.1-0.2,0.3-0.4,0.5c-0.1,0.1-0.3,0.2-0.4,0.5
		C3.2,21.7,3,21.8,3,21.9c-0.1,0.2-0.2,0.3-0.3,0.4c-0.1,0.1-0.2,0.3-0.3,0.5C2.2,22.9,2,23,2,23.2c0,0.1-0.1,0.2-0.2,0.3
		c-0.2,0.1-0.3,0.3-0.3,0.6c0,0,0,0.1,0,0.1c-0.1,0.2-0.2,0.4-0.3,0.6c-0.2,0.4-0.3,0.8-0.5,1.1c-0.1,0.2-0.1,0.5-0.2,0.8
		c0,0,0,0.2,0,0.2c0.1,0,0.1-0.1,0.1-0.1c0,0,0,0,0-0.1c0.2-0.5,0.4-0.9,0.7-1.4c0.1-0.2,0.3-0.4,0.4-0.6c0.2-0.2,0.3-0.4,0.5-0.5
		c0.2-0.1,0.3-0.2,0.3-0.4c0.1-0.1,0.2-0.2,0.2-0.4c0-0.1,0.1-0.1,0.2-0.1c0.1-0.2,0.3-0.3,0.5-0.5c0.2-0.2,0.4-0.3,0.5-0.5
		c0,0,0.1-0.1,0.2-0.1c0.1,0,0.1-0.1,0.2-0.1C4.4,22.1,4.5,22,4.7,22c-0.2,0.3-0.4,0.7-0.6,1c-0.3,0.4-0.5,0.9-0.7,1.3
		c-0.1,0.1-0.1,0.2-0.2,0.4c-0.2,0-0.4,0-0.5,0.1c-0.1,0-0.1,0.1-0.2,0.2C2.3,25,2.2,25,2.1,25.1c0,0-0.1,0.1-0.1,0.1
		c-0.2,0.1-0.3,0.2-0.5,0.4c-0.1,0.1-0.2,0.3-0.4,0.5c-0.2,0.3-0.4,0.6-0.6,1c-0.2,0.5-0.4,0.9-0.5,1.4c0,0.2-0.1,0.3-0.1,0.5V29
		c0,0.1-0.1,0.2,0,0.3v0.1c0,0-0.1,0-0.1,0C0,29.2,0,28.9,0,28.7z"/>
	<path class="st4" d="M14.9,43.8c0.1,0.6,0.1,1.2,0.1,1.8c0,0.4,0.1,0.8,0.1,1.1c-0.1,0-0.1,0-0.2,0c-0.2-0.1-0.4-0.1-0.6-0.1
		c-0.3,0-0.5-0.1-0.8-0.1c-0.1,0-0.1,0-0.1-0.1c0-0.4-0.1-0.7-0.1-1.1c0.2-0.1,0.3-0.2,0.4-0.3c0.1-0.2,0.2-0.3,0.4-0.4
		c0.2-0.1,0.3-0.3,0.4-0.4C14.7,44,14.7,43.9,14.9,43.8z"/>
	<path class="st5" d="M0,29.4C0,29.4,0.1,29.4,0,29.4c0.1,0.1,0.1,0.3,0,0.4h0l0,0C0,29.6,0,29.5,0,29.4z"/>
	<path class="st5" d="M16.5,10.8c-0.4,0-0.7-0.1-1.1-0.1c0-0.1-0.1-0.1-0.1-0.1c-0.1-0.1-0.2,0-0.3-0.1c-0.2-0.2-0.4-0.2-0.6-0.2
		c-0.1,0-0.1,0-0.1,0.1c0,0.1,0.1,0.2,0.1,0.3c-0.1,0-0.2,0-0.3,0c0-0.1-0.1-0.1-0.1-0.2c-0.2-0.2-0.5-0.2-0.8-0.2
		c-0.2,0-0.5,0-0.7,0c-0.2,0-0.4,0.1-0.7,0.1c-0.1,0-0.2,0.1-0.3,0c-0.1-0.2-0.4-0.2-0.6-0.3c-0.1,0-0.2-0.1-0.3-0.1
		c-0.2-0.2-0.4-0.3-0.7-0.4c0,0-0.1-0.1-0.1,0c0,0,0,0.1,0,0.1c0.2,0.3,0.3,0.5,0.5,0.8c0,0,0,0.1,0,0.1C9.8,10.2,9.4,9.9,9,9.5
		c0.6-0.3,1.1-0.5,1.7-0.6c0,0.1,0,0.2,0.2,0.2c0.2,0.1,0.4,0.2,0.7,0.2c0.1,0,0.1,0,0.2,0c0.2,0,0.3,0.1,0.5,0c0.3-0.1,0.7-0.1,1,0
		c0.1,0,0.2,0.1,0.3,0c0,0,0.1,0,0.1,0c0.1,0.2,0.2,0.4,0.4,0.6c0,0,0,0.1,0.1,0.1c0.1,0,0-0.1,0-0.1c-0.1-0.2-0.1-0.3-0.2-0.5
		c0-0.1,0-0.1,0.1-0.1c0.2,0.1,0.4,0.1,0.6,0.2c0,0,0.1,0,0.2,0.1c0.2,0,0.4,0,0.5,0c0.2,0.1,0.4,0.1,0.6,0c0,0,0.1,0,0.1,0
		c0.1,0,0.2,0,0.3-0.1c0,0,0.1-0.1,0.1-0.1c0.2-0.1,0.4-0.1,0.5-0.2c0.2-0.1,0.5,0,0.7-0.1c0.1,0,0.2-0.1,0.2-0.2
		c0-0.1,0-0.1,0.1-0.1c0,0,0.1,0,0.1,0.1C18,9.1,18.3,9,18.5,9c0,0,0-0.1,0-0.1c0.6,0.2,1.2,0.4,1.8,0.7c1.5,0.7,2.9,1.7,4.1,2.9
		c1.1,1.1,2,2.3,2.9,3.6c0.4,0.6,0.8,1.2,1.1,1.9c-0.1,0-0.1,0-0.1,0.1c-0.2,0.2-0.5,0.3-0.8,0.2c-0.4,0-0.7-0.2-1.1-0.3
		c-0.1,0-0.2-0.1-0.3-0.1c-0.3-0.4-0.6-0.8-0.9-1.2c-1.3-1.7-2.7-3.2-4.5-4.3c-0.3-0.2-0.5-0.3-0.8-0.5c0-0.1,0-0.1,0-0.2
		c-0.1-0.4-0.2-0.8-0.3-1.1c0,0,0-0.1-0.1-0.1c0,0,0,0.1,0,0.1c0,0.1,0,0.2-0.1,0.1c-0.1,0-0.1,0-0.2-0.1c-0.3-0.1-0.6-0.1-0.9-0.2
		c-0.4-0.1-0.8-0.1-1.2-0.1c-0.1,0-0.2,0-0.3,0.1c0,0.1-0.1,0.1-0.1,0c0-0.1-0.1-0.1-0.1-0.1c-0.1,0-0.1,0.1-0.2,0.1
		c0,0,0,0.1,0,0.2C16.5,10.7,16.5,10.8,16.5,10.8z M19.5,10.1c0,0.1,0,0.2,0.1,0.3C19.6,10.3,19.5,10.2,19.5,10.1z"/>
	<path class="st6" d="M17.2,28.6c-0.5-0.5-1-0.9-1.6-1.2c-0.9-0.4-1.7-0.5-2.7-0.5c-0.9,0.1-1.8,0.4-2.5,1c-0.5,0.4-0.9,0.9-1.3,1.5
		l-0.1,0.1C9,29.4,9,29.3,8.9,29.2c-0.1-0.1-0.1-0.2-0.2-0.3l0-0.1c0,0,0,0-0.1-0.1c-0.1,0-0.2,0-0.3,0c-0.2,0-0.3-0.1-0.4-0.1
		c-0.1-0.1-0.2-0.1-0.3-0.2c0.2-0.4,0.5-0.8,0.8-1.2c0.7-0.9,1.6-1.7,2.6-2.2c1.9-0.9,3.8-0.8,5.6,0.3c0.4,0.2,0.8,0.5,1.2,0.9
		c0.4,0.4,0.7,0.7,1,1.1c0.5,0.6,0.9,1.2,1.2,1.8l0,0l0,0c-0.1,0-0.1,0-0.2-0.1c-0.1-0.1-0.3-0.2-0.5-0.2c-0.2,0-0.3-0.1-0.5-0.1
		c0,0-0.1,0-0.1,0c0-0.1-0.1-0.1-0.1-0.1c0,0-0.1,0-0.2,0c-0.1,0-0.3-0.1-0.4,0c-0.1,0-0.2,0-0.3,0C17.5,28.7,17.4,28.6,17.2,28.6z"
		/>
	<path class="st7" d="M20.9,15.7c0.4,0.2,0.7,0.5,1,0.9c0.9,0.8,1.6,1.8,2.3,2.8c0.6,0.9,1.1,1.9,1.6,2.9c0.1,0.3,0.2,0.5,0.4,0.8
		c0,0.1,0.1,0.2,0,0.3c0,0.1,0,0.1,0,0.2c0,0.2,0,0.4-0.1,0.6c-0.1,0-0.2,0.1-0.2,0c0,0-0.1,0-0.1,0c0,0.1-0.1,0.1-0.1,0.1
		c0,0-0.1,0-0.1,0c-0.2,0.2-0.4,0-0.5,0.1c-0.1,0-0.2,0-0.3-0.1c0-0.1-0.1-0.1-0.2-0.1c-0.6-1.3-1.3-2.5-2.2-3.6
		c-1.2-1.6-2.7-2.9-4.5-3.8c-0.3-0.2-0.7-0.3-1-0.4c-0.2-0.3-0.3-0.7-0.5-1c-0.1-0.2-0.1-0.2,0.1-0.2c0.4,0,0.7,0.1,1,0.3
		c0.1,0,0.1,0,0.1,0c0,0.1,0,0.2,0.1,0.3c0-0.2,0.1-0.3,0.3-0.2c0,0,0.1,0,0.1,0c0.1,0,0.2,0,0.3,0c0.4,0.1,0.8,0.1,1.1,0.1
		c0.4,0.1,0.7,0.1,1,0.2C20.7,15.7,20.8,15.7,20.9,15.7z"/>
	<path class="st8" d="M33.7,20.4C33.7,20.4,33.7,20.4,33.7,20.4c0,0.3,0,0.6,0.1,0.8c0,0.1,0,0.1,0,0.1c0,0.4,0,0.9-0.1,1.3l0,0.1
		c0.1,0,0.1,0.1,0,0.2c0,0,0,0.1,0,0.1c0,0,0.1,0.1,0,0.1c0,0,0,0.1,0,0.1c0.1,0,0.1,0.1,0,0.1c-0.1,0.1,0,0.1,0,0.2
		c0,0.1,0,0.2,0,0.4c-0.1,0.2-0.1,0.5-0.2,0.7c0,0.2-0.1,0.4-0.1,0.5c0,0.1,0,0.1-0.1,0.2c-0.3-0.9-0.5-1.7-0.8-2.5
		c-1-2.8-2.1-5.6-3.7-8.1l0,0c0-0.2,0-0.4-0.1-0.6c-0.1-0.2,0-0.5-0.1-0.7c0-0.1,0-0.3,0-0.5c0-0.3-0.1-0.5-0.1-0.8
		c0-0.3,0-0.6-0.1-0.9c0-0.1-0.1-0.2,0-0.3c0.3,0.3,0.5,0.7,0.8,1.1c0.3,0.5,0.7,1,1,1.5c0.7,1.2,1.4,2.4,2,3.6
		c0.5,1.1,1,2.1,1.4,3.3C33.7,20.3,33.7,20.3,33.7,20.4z"/>
	<path class="st9" d="M12.8,19.2c2-0.3,3.8,0.1,5.5,1.3c0,0,0.1,0,0.1,0.1c-0.1,0-0.1,0-0.2,0c-0.1-0.1-0.3-0.2-0.4-0.2
		c-0.3-0.1-0.6-0.3-0.9-0.4c-0.2,0-0.3-0.2-0.5-0.1l0,0c-0.2-0.1-0.4-0.1-0.6,0c-0.1,0-0.3,0-0.4,0.1h0c-0.1-0.1-0.2,0-0.4,0.1
		c-0.1,0.1-0.2,0.2-0.4,0.2c0,0-0.1,0-0.1,0c0,0,0,0,0.1,0c0,0,0.1,0,0.1,0.1c-0.1,0-0.2-0.1-0.3,0c-0.1,0.1-0.1,0.1-0.2,0.1
		c-0.2,0.1-0.4,0.2-0.5,0.5c0,0-0.1,0-0.1,0s-0.1-0.1-0.1,0c0,0.1,0.1,0.1,0.1,0.1c0.1,0.1,0.2,0.1,0.4,0.2c-0.1,0-0.1,0-0.1,0
		c-0.3-0.1-0.5-0.2-0.8-0.2c-0.1,0-0.2,0.1-0.2,0.2c0,0.1,0,0.3,0.1,0.4c-0.3,0.1-0.6,0.1-0.9,0.3c-0.8,0.3-1.5,0.7-2.2,1.2
		c-1.2,0.8-2.1,1.9-2.9,3.2c0,0,0,0-0.1,0.1c0-0.1-0.1-0.1-0.1-0.1c-0.1,0-0.2,0-0.3,0C6,26.1,5.7,26,5.4,26c-0.2,0-0.4-0.2-0.6-0.2
		c0.3-0.7,0.7-1.3,1.2-1.9c0.5-0.7,1.1-1.4,1.7-2c0,0,0.1-0.1,0.1-0.1c0.3-0.1,0.6-0.2,0.9-0.2c0.1,0,0.2,0,0.3,0
		c0.2-0.1,0.4-0.1,0.7-0.1c0.3,0,0.5-0.1,0.8-0.1c0.1,0,0.1,0,0.1-0.1c0.1,0,0.2,0.1,0.4,0.1c-0.1-0.1-0.1-0.2,0.1-0.2
		c0.1,0,0.1-0.1,0.2-0.1c0.1,0,0.2-0.1,0.3-0.2c0.2-0.1,0.5-0.1,0.7-0.1c0.2-0.1,0.4,0,0.6,0c0.1,0,0.2,0.1,0.3,0.1
		c0.1,0.1,0.2,0.1,0.3,0.1c-0.1-0.1-0.2-0.1-0.3-0.2c-0.1,0-0.1-0.1-0.1-0.1c-0.3-0.1-0.5-0.3-0.8-0.4c0-0.1,0.1-0.1,0.2-0.1
		c0.1-0.1,0.2-0.1,0.1-0.2c0-0.2,0.1-0.3,0.1-0.5c0.2,0.1,0.3,0.2,0.5,0.4c0.1,0.1,0.3,0.2,0.4,0.3c0.1,0,0.1,0,0.2-0.1
		c0,0,0-0.1,0-0.1c-0.1,0-0.2-0.2-0.3-0.2c-0.1-0.1-0.3-0.2-0.4-0.3C12.9,19.3,12.8,19.3,12.8,19.2z"/>
	<path class="st1" d="M4.7,22c-0.2,0-0.3,0.1-0.4,0.2c-0.1,0-0.1,0.1-0.2,0.1c-0.1,0-0.1,0-0.2,0.1c-0.2,0.2-0.4,0.3-0.5,0.5
		C3.3,23,3.1,23.1,3,23.3c0,0.1-0.1,0.1-0.2,0.1c-0.1,0.1-0.2,0.2-0.2,0.4c-0.1,0.1-0.2,0.3-0.3,0.4c-0.2,0.1-0.4,0.3-0.5,0.5
		c-0.2,0.2-0.3,0.4-0.4,0.6c-0.3,0.4-0.5,0.9-0.7,1.4c0,0,0,0.1,0,0.1c0,0,0,0.2-0.1,0.1c-0.1,0,0-0.1,0-0.2
		c0.1-0.2,0.1-0.5,0.2-0.8c0.2-0.4,0.3-0.8,0.5-1.1c0.1-0.2,0.1-0.5,0.3-0.6c0,0,0-0.1,0-0.1c0-0.2,0.1-0.4,0.3-0.6
		c0.1-0.1,0.2-0.1,0.2-0.3C2,23,2.2,22.9,2.3,22.8c0.1-0.2,0.2-0.3,0.3-0.5c0.1-0.1,0.3-0.2,0.3-0.4c0.1-0.1,0.2-0.2,0.2-0.4
		c0.1-0.2,0.2-0.3,0.4-0.5c0.1-0.1,0.2-0.3,0.4-0.5c0.3-0.3,0.4-0.7,0.7-1c0,0,0-0.1,0-0.1c0,0,0-0.1,0-0.1C4.9,19.3,5,19.1,5.1,19
		c0.1-0.1,0.1-0.3,0.2-0.4c0.2-0.2,0.2-0.5,0.3-0.7c0-0.1,0.1-0.2,0-0.2c0.3-0.4,0.7-0.7,1-1c0.6-0.5,1.2-1,1.8-1.4
		c0.1-0.1,0.2-0.1,0.3-0.2l0,0.1c0.3,0.1,0.6,0.2,0.9,0.2c0.1,0,0.1,0,0.2-0.1c0.1,0,0.3,0.3,0.3,0.4c-0.1-0.1-0.2-0.1-0.4,0
		c-0.1,0.1-0.1,0.2-0.1,0.3c0.1,0.4,0.1,0.7,0.6,0.8c-0.3,0.2-0.7,0.4-1,0.6c-0.5,0.3-1.1,0.7-1.5,1.1c-0.5,0.4-1,0.9-1.4,1.4
		c-0.6,0.6-1.1,1.3-1.5,2C4.8,21.9,4.8,21.9,4.7,22z"/>
	<path class="st10" d="M5.5,28.7c-0.2,0.6-0.5,1.2-0.7,1.9c-0.2,0.6-0.4,1.2-0.6,1.8c-0.4,1.5-0.7,3-1,4.6C3.2,37.7,3.1,38.4,3,39
		c0,0.1,0,0.2-0.1,0.3c-0.1-0.1-0.2-0.3-0.3-0.4c-0.5-0.6-0.8-1.2-0.9-2c-0.1-0.6,0-1.2,0-1.7c0.4-2,0.8-4,1.5-6
		c0.2-0.5,0.3-0.9,0.5-1.3c0.1,0,0.2,0,0.2,0c0.2,0.1,0.4,0.2,0.6,0.2c0.1,0,0.2,0.1,0.3,0.1c0.1,0,0.2,0,0.3,0.1
		c0.1,0,0.1,0.1,0.2,0.1C5.4,28.6,5.5,28.6,5.5,28.7z"/>
	<path class="st1" d="M7.7,7.3C7.3,7.5,6.9,7.7,6.5,7.9C6.4,7.9,6.3,8,6.1,8.1C6.1,7.8,6,7.5,5.8,7.2C5.7,7.1,5.6,7,5.4,6.9
		c-0.1,0-0.1,0-0.2,0.1C5.2,7.1,5.2,7.2,5.1,7.3C4.9,7.4,4.8,7.5,4.6,7.6C4.4,7.6,4.2,7.6,4,7.8H4c-0.1-0.1-0.2,0-0.3,0
		C3.5,8,3.4,8.1,3.3,7.9c0.1-0.3,0.3-0.5,0.5-0.7C4.1,6.7,4.6,6.3,5.1,6C5.5,5.7,6,5.5,6.5,5.4c0.8-0.2,1.6-0.5,2.4-0.7
		c1.3-0.4,2.7-0.8,4-1.2c0.2-0.1,0.4,0,0.6,0.2c0.2,0.2,0.5,0.5,0.7,0.8c0,0,0.1,0.1,0,0.1c-0.2,0.3-0.4,0.7-0.7,1
		c-0.1,0.2-0.3,0.2-0.5,0.3c-0.3,0-0.6,0.1-0.9,0.2c0-0.2-0.2-0.3-0.3-0.3c-0.2-0.1-0.5,0-0.7,0c-0.3,0.1-0.5,0.1-0.8,0.2
		C9.8,5.9,9.3,6.1,8.9,6.3C8.8,6.4,8.6,6.4,8.5,6.5C8.3,6.6,8.1,6.7,7.9,6.8C7.8,6.8,7.6,7.1,7.7,7.3z"/>
	<path class="st11" d="M17.2,28.6c0.2,0,0.4,0.1,0.6,0.1c0.1,0,0.2,0,0.3,0c0.1,0,0.3,0,0.4,0c0,0,0.1,0,0.2,0c0,0,0.1,0,0.1,0.1
		c0,0,0,0.1,0.1,0c0.2,0,0.3,0.1,0.5,0.1c0.2,0,0.4,0.1,0.5,0.2c0,0,0.1,0.1,0.2,0.1c0.3,0.5,0.5,1.1,0.8,1.7
		c0.5,1.2,0.9,2.5,1.2,3.8c0.2,1.1,0.4,2.1,0.6,3.2c0,0.1,0,0.2,0,0.3c0,0,0,0,0,0c-0.1-0.2-0.3-0.4-0.4-0.6l-0.1-0.1
		c-0.1,0-0.2-0.1-0.4-0.2c-0.2-0.1-0.4-0.2-0.6-0.3c-0.2-0.1-0.4-0.2-0.6-0.3c0,0-0.1,0-0.1,0c-0.1-0.5-0.3-1.1-0.4-1.6
		c-0.4-1.4-0.8-2.8-1.4-4.2C18.3,30.1,17.8,29.3,17.2,28.6z"/>
	<path class="st10" d="M15.9,35.5c-0.1-0.3-0.2-0.6-0.4-0.9c-0.3-0.6-0.7-1.1-1.3-1.4C14,33.1,13.7,33,13.4,33v0
		c-0.1-0.2-0.3-0.3-0.5-0.3c0,0-0.1,0-0.1,0s0-0.1-0.1-0.1c-0.1,0-0.2-0.2-0.4-0.2c-0.4-0.2-0.7-0.4-1.1-0.6c-0.1,0-0.2,0-0.2,0
		c-0.1-0.1-0.2-0.1-0.3-0.2c0.4-0.4,1-0.6,1.5-0.8c0.2-0.1,0.4-0.1,0.7-0.1c0,0,0,0.1,0.1,0.1c0.2,0.1,0.4,0.3,0.6,0.4
		c0.2,0.1,0.3,0.2,0.5,0.2c0.1,0.1,0.3,0.1,0.4,0.2c0.2,0.1,0.5,0.1,0.7,0.2c0.2,0.1,0.5,0.1,0.7,0.1c0.4,0.4,0.7,0.8,0.9,1.3
		c0.5,1,1,2.1,1.2,3.3c-0.1,0.1-0.3,0-0.5,0.1l0,0c-0.1-0.1-0.2,0-0.3,0c0,0-0.1,0-0.1,0c-0.1-0.1-0.3-0.2-0.4-0.3
		c-0.2-0.2-0.5-0.4-0.7-0.6C16.1,35.4,16,35.4,15.9,35.5z"/>
	<path class="st10" d="M28.6,30.8c0.3,1,0.5,2,0.7,3.1c0.1,0.7,0.2,1.3,0.3,2c0.1,0.6,0.2,1.2,0.2,1.9c0,0.3,0,0.6,0.1,0.8
		c-0.1,0-0.1,0-0.1,0.1c0,0.1-0.1,0.2-0.1,0.3c-0.2,0.6-0.3,1.2-0.5,1.8c-0.1,0.2-0.2,0.4-0.1,0.7c0,0.2,0,0.5,0.4,0.6
		c-0.1,0.2-0.3,0.5-0.5,0.8c-0.1-0.5-0.2-1-0.3-1.5c-0.2-1-0.4-2-0.6-3c-0.2-1.1-0.4-2.2-0.6-3.3c0-0.2-0.1-0.5-0.1-0.7
		c0.1-0.1,0.2-0.2,0.3-0.3c0.1-0.2,0.3-0.4,0.4-0.7c0-0.1,0.1-0.2,0.2-0.3c0.1,0,0.1-0.1,0.1-0.2c-0.1-0.2-0.1-0.3,0-0.5
		c0.1-0.4,0.2-0.8,0.2-1.1C28.6,31,28.5,30.9,28.6,30.8z"/>
	<path class="st12" d="M28.6,10.7c-0.1,0.1,0,0.2,0,0.3c0,0.3,0.1,0.6,0.1,0.9c0,0.3,0,0.5,0.1,0.8c0,0.2,0,0.3,0,0.5
		c0,0.2,0,0.5,0.1,0.7c0.1,0.2,0.1,0.4,0.1,0.6c-0.2-0.4-0.5-0.7-0.7-1.1c-0.3-0.4-0.6-0.8-0.9-1.2c0-0.2,0-0.4,0-0.6
		c-0.1-0.2-0.1-0.5-0.1-0.7c-0.1-0.4-0.2-0.7-0.5-1.1c-0.2-0.3-0.5-0.5-0.8-0.7C25.5,9.2,25,9.1,24.6,9c-0.2-0.1-0.3-0.1-0.5-0.1
		c-0.5-0.4-0.9-0.7-1.4-1.1c-0.8-0.5-1.6-1-2.5-1.3l0,0c0-0.1,0.1-0.1,0.1-0.1c0.2,0,0.5,0,0.8,0c0.3,0,0.6,0,0.9,0
		c0.3,0,0.5,0,0.8,0.1c0.1,0.1,0.3,0.1,0.5,0.1c0.2,0.1,0.4,0.2,0.5,0.2c0.6,0.2,1.2,0.5,1.7,0.8c0.3,0.2,0.5,0.4,0.8,0.5
		c0.1,0,0.2,0.1,0.3,0.1c0.3,0.3,0.6,0.6,0.9,0.9c0.3,0.3,0.5,0.6,0.8,1C28.4,10.4,28.5,10.5,28.6,10.7z"/>
	<path class="st10" d="M7.6,28.4c0.1,0.1,0.2,0.1,0.3,0.2c0.2,0,0.3,0.1,0.5,0.1c0.1,0,0.2,0,0.3,0c0,0,0.1,0,0.1,0.1l0,0.1
		c0.1,0.1,0.1,0.2,0.2,0.3C9,29.2,9,29.4,9.1,29.5c-0.2,0.3-0.4,0.7-0.5,1c0,0-0.1-0.1-0.1,0c0,0.1-0.1,0.1-0.1,0.2c0,0,0,0,0,0
		c0,0,0,0,0,0c0-0.1-0.1-0.1-0.1-0.1c0,0.1,0.1,0.1,0,0.1c-0.1,0-0.1,0.1-0.2,0c0,0-0.1,0-0.1,0c-0.1,0.1-0.2,0.2-0.3,0.2
		c-0.2,0.1-0.2,0.2-0.2,0.4c0,0,0,0.1,0,0.1c-0.2,0.1-0.3,0.3-0.4,0.5l0,0c-0.1,0-0.1,0.1-0.2,0.2c0,0.1-0.1,0.1-0.1,0.2
		c-0.2,0.1-0.2,0.2-0.1,0.4c0,0,0,0.1,0,0.1c-0.1,0.1-0.1,0.1-0.1,0.2c0,0,0,0.1-0.1,0.1c-0.1,0-0.1,0-0.1,0.1
		c-0.1,0-0.1,0.2-0.1,0.2c-0.1,0.1-0.1,0.2,0,0.3c0,0,0,0.1,0,0.1c-0.1,0-0.2,0.1-0.2,0l-0.1,0l0,0c0.1,0,0.1,0.1,0.2,0
		c0,0,0.1,0,0.1,0s0,0.1,0,0.1c-0.1,0.1-0.1,0.3-0.2,0.4l0,0.1C6,34.6,6,34.7,6,34.8c0,0.1-0.1,0-0.1,0.1c0,0-0.1,0.1,0,0.1
		c0,0,0.1,0,0.1,0c0,0,0-0.1,0.1,0c0,0,0.1,0.1,0.1,0.2c0,0.1,0,0.2-0.1,0.2c-0.1,0.2-0.1,0.2,0.1,0.3c0.1,0,0.1,0.2,0.1,0.2
		c0,0.1-0.1,0-0.1,0.1C6,36,6,36,6,36.1c0,0.1,0.1,0,0.1,0s0.1,0,0.1,0s0,0.1,0,0.1c-0.1,0-0.1,0.1-0.1,0.1c0,0,0.1,0.1,0.1,0.1
		c0.1,0,0.2,0,0.1,0.1c0,0.1,0,0.1,0,0.2c0.1,0.2,0.2,0.4,0.4,0.7c0.1,0.1,0.2,0.2,0.3,0.3c0,0.4-0.1,0.8-0.1,1.2c0,0-0.1,0-0.1,0.1
		c-0.4,0.4-0.8,0.7-1.2,1.1c-0.1,0.1-0.2,0.2-0.3,0.3c0-0.1,0.1-0.2,0.1-0.2c0,0,0.1,0,0.1,0l0,0c0,0,0,0,0,0.1
		c-0.1,0.1-0.2,0.2-0.3,0.3c0-0.6,0-1.3,0.1-1.9c0-0.7,0.1-1.4,0.2-2c0.1-0.5,0.1-1.1,0.2-1.6c0.2-1.3,0.4-2.5,0.8-3.7
		C6.6,30.2,7,29.3,7.6,28.4L7.6,28.4z"/>
	<path class="st1" d="M16.1,5.3c-0.2-0.2-0.2-0.4-0.2-0.7c0-0.3,0-0.6,0.1-0.8c0.1-0.3,0.4-0.5,0.7-0.5c0.3,0,0.6,0,0.8,0.1
		c0.6,0.1,1.2,0.2,1.8,0.4c0.8,0.2,1.6,0.5,2.4,0.9c0.7,0.4,1.5,0.8,2.1,1.3c0,0,0,0,0.1,0.1c0,0.1-0.1,0-0.1,0
		c-0.1,0-0.2-0.1-0.3-0.1c-0.2,0-0.4-0.1-0.7-0.1c-0.2,0-0.4,0-0.5-0.1c-0.1,0-0.3,0-0.4-0.1c-0.2-0.1-0.4,0-0.5-0.1
		c-0.2,0-0.4,0-0.6,0.1c0,0-0.1,0-0.1,0c-0.1-0.1-0.2-0.1-0.3-0.1c-0.2,0-0.5,0-0.8,0c-0.1,0-0.2,0-0.3,0c-0.2-0.1-0.5-0.1-0.7-0.1
		c-0.2,0-0.5-0.1-0.7-0.1c-0.1,0-0.1,0-0.2,0c-0.2,0-0.4-0.2-0.6-0.1h0c-0.1-0.1-0.3,0-0.4,0C16.4,5.2,16.2,5.2,16.1,5.3z"/>
	<path class="st9" d="M28.8,23.4c-0.3-0.7-0.6-1.4-0.9-2c0.1,0,0.2-0.1,0.2-0.2c0-0.1,0.1-0.1,0.1-0.1c0.1,0.1,0.2,0,0.2-0.1
		c0,0,0-0.1,0.1-0.1c0,0,0.1,0,0.1,0.1c0,0.1,0.1,0.1,0.2,0.1c0.1,0,0.1,0,0.1,0c0,0.1,0.1,0.1,0.1,0.1c0,0,0,0,0,0c0,0,0,0.1,0,0.2
		c0,0.1,0,0.2,0.1,0.2c0.1,0,0.2,0,0.3,0c0,0,0,0,0-0.1c0,0,0-0.1,0.1-0.1c0,0,0.1,0,0.1,0c0,0.1,0.2,0.2,0.1,0.3l0,0l0,0
		c0,0.1,0,0.1,0.1,0.1c0.1,0,0.2,0.1,0.2,0.2c0,0.1,0.1,0.1,0.1,0c0.3,0.6,0.5,1.3,0.7,1.9c0.4,1.3,0.8,2.6,1.1,3.9l0,0.1
		C32,28,32,28.1,32,28.2c0,0.3,0,0.5,0,0.8v0c0.1,0.2,0,0.5,0,0.7c0,0.2-0.1,0.4,0,0.6c0,0,0,0.1,0,0.2c-0.1,0.1-0.1,0.3-0.1,0.4
		c0,0.2,0,0.5,0.1,0.7c0,0.2,0,0.3,0,0.5c0,0.2,0,0.3,0,0.5c0,0.1,0,0.1,0,0.2c-0.2,0-0.3-0.2-0.3-0.3c0-0.1,0-0.2-0.1-0.2
		c0,0-0.1-0.1,0-0.1c0.1-0.1,0-0.3,0-0.4c0-0.2-0.1-0.4-0.1-0.6c0,0,0-0.1-0.1-0.1c0,0,0-0.1,0-0.1c0-0.2,0.1-0.4-0.1-0.5
		c0,0,0-0.1,0-0.1c0-0.1,0-0.1,0-0.2c0,0,0-0.1,0-0.1c0,0,0-0.1,0-0.1c0-0.2,0.1-0.3-0.1-0.5c0.1-0.2,0-0.4,0-0.6c0-0.1,0-0.2,0-0.3
		v0c0.1-0.1,0-0.2,0-0.3c0-0.1-0.1-0.3,0-0.4v-0.1c0-0.2-0.1-0.4-0.1-0.6c0-0.2,0-0.5-0.1-0.6c0-0.1,0-0.2,0-0.4c0-0.1,0-0.3,0-0.4
		c-0.1-0.2,0-0.5-0.1-0.6l0-0.1l0,0c-0.1-0.1-0.1-0.3-0.2-0.4c0-0.1-0.1-0.1-0.1-0.2c0-0.1,0-0.1-0.1-0.1c-0.1,0-0.1-0.1-0.1-0.2
		c0-0.1-0.1-0.1-0.2-0.2c-0.1-0.1-0.2-0.1-0.4-0.2C29.4,23.4,29.1,23.3,28.8,23.4z"/>
	<path class="st4" d="M18.8,40.1c0.1,0.3,0.1,0.7,0.1,1c0.2,1.8,0.1,3.6,0.1,5.5c0,0.1,0,0.2-0.1,0.2c-0.4,0-0.8,0-1.2,0
		c-0.1,0-0.1,0-0.1-0.1c0-0.8-0.1-1.6-0.2-2.4c-0.1-0.9-0.1-1.7-0.2-2.6v-0.1c0.1,0,0.1,0,0.2-0.1c0.3-0.4,0.7-0.7,1-1
		C18.5,40.3,18.6,40.2,18.8,40.1z"/>
	<path class="st4" d="M10.8,31.4c0.1,0.1,0.2,0.1,0.3,0.2c0,0,0.1,0,0.2,0c0.4,0.2,0.7,0.4,1.1,0.6c0.1,0.1,0.2,0.2,0.4,0.2
		c0,0,0.1,0.1,0.1,0.1c0,0,0,0,0.1,0c0.2,0,0.4,0.1,0.5,0.3v0c-0.4,0-0.8,0.1-1.1,0.2c-0.7,0.3-1.1,0.9-1.4,1.6
		c-0.1,0.1-0.1,0.3-0.1,0.4c-0.1,0-0.1,0.1-0.2,0.2c-0.3,0.2-0.6,0.3-0.8,0.6c-0.2,0.2-0.4,0.3-0.6,0.4c-0.1,0.1-0.2,0.2-0.4,0.3
		c0-1.2,0.2-2.3,0.7-3.4C9.8,32.6,10.2,32,10.8,31.4L10.8,31.4z"/>
	<path class="st10" d="M14.9,43.8c-0.2,0-0.2,0.2-0.4,0.3c-0.1,0.1-0.2,0.3-0.4,0.4c-0.2,0.1-0.2,0.3-0.4,0.4
		c-0.1,0.1-0.2,0.2-0.4,0.3c0-0.4-0.1-0.7-0.1-1.1c-0.1-0.8-0.1-1.5-0.2-2.3c-0.1-0.7-0.1-1.4-0.2-2.1c0-0.1,0-0.2,0-0.3
		c0.1,0,0.2-0.1,0.3,0c0.1,0.1,0.3,0.1,0.4,0.1c0.2,0.1,0.4,0.2,0.6,0.4c0.1,0.2,0.3,0.2,0.5,0.2c0.1,1,0.2,2.1,0.3,3.1
		C14.9,43.5,14.9,43.7,14.9,43.8z"/>
	<path class="st4" d="M7,37.7c-0.1-0.1-0.2-0.2-0.3-0.3c-0.1-0.2-0.2-0.4-0.4-0.7c0,0-0.1-0.1,0-0.2c0.1-0.1,0-0.2-0.1-0.1
		c-0.1,0-0.1,0-0.1-0.1c0,0,0-0.1,0.1-0.1c0,0,0.1,0,0-0.1s-0.1,0-0.1,0c0,0-0.1,0.1-0.1,0C6,36,6,36,6.1,36c0,0,0.1,0,0.1-0.1
		c0-0.1,0-0.2-0.1-0.2C6,35.6,5.9,35.5,6,35.3c0,0,0-0.2,0.1-0.2c0,0,0-0.1-0.1-0.2c0,0-0.1,0-0.1,0.1c0,0-0.1,0-0.1,0
		c0,0,0-0.1,0-0.1c0,0,0.1,0,0.1-0.1c0-0.1,0-0.2-0.1-0.3l0-0.1c0.1-0.1,0.1-0.3,0.2-0.4c0,0,0.1,0,0-0.1c0-0.1-0.1,0-0.1,0
		c-0.1,0.1-0.1,0-0.2,0l0,0l0.1,0c0.1,0,0.2,0,0.2,0c0.1,0,0.1-0.1,0-0.1c-0.1-0.1-0.1-0.2,0-0.3c0.1,0,0-0.2,0.1-0.2
		c0-0.1,0-0.1,0.1-0.1c0,0,0.1,0,0.1-0.1c0-0.1,0-0.2,0.1-0.2c0,0,0-0.1,0-0.1c-0.1-0.2-0.1-0.3,0.1-0.4c0.1,0,0.1-0.1,0.1-0.2
		c0-0.1,0.1-0.2,0.2-0.2l0,0c0.1-0.2,0.2-0.4,0.4-0.5c0,0,0,0,0-0.1c0-0.2,0.1-0.3,0.2-0.4c0.1-0.1,0.3-0.1,0.3-0.2c0,0,0.1,0,0.1,0
		c0.1,0.1,0.1,0,0.2,0c0.1-0.1-0.1-0.1,0-0.1c0.1,0,0.1,0,0.1,0.1c0,0,0,0,0,0s0.1,0,0,0c0-0.1,0.1-0.1,0.1-0.2c0,0,0,0,0.1,0
		C8.3,31,8.1,31.5,8,32c-0.3,1-0.5,2.1-0.7,3.1C7.2,35.9,7.1,36.8,7,37.7L7,37.7z"/>
	<path class="st12" d="M27.4,6L27.4,6c0.2-0.1,0.3-0.2,0.5-0.3l0,0c0.1-0.1,0.1-0.2,0.2,0l0,0l0-0.1c0-0.2,0-0.3,0.2-0.2
		c0,0,0.1,0,0.1-0.1c0-0.1,0.1-0.2,0.2-0.1c0,0,0.1,0.1,0.1,0c0-0.1,0-0.1,0-0.1C28.7,5,28.8,5,28.8,5c0.1,0,0.1,0,0.2,0
		c0.1-0.1,0.1-0.1,0-0.2c0-0.1,0.1,0,0.1,0c0.5,0.5,1,1.1,1.5,1.7c0.3,0.4,0.6,0.7,0.9,1.1c0,0,0,0.1,0,0.1C31.4,7.7,31.2,7.8,31,8
		c-0.4,0.3-0.8,0.5-1.2,0.8c-0.2-0.2-0.4-0.4-0.6-0.7C28.7,7.3,28.1,6.7,27.4,6L27.4,6z M28,5.9C28,5.8,28,5.8,28,5.9
		c-0.1-0.1-0.1-0.1-0.2-0.1c0,0.1-0.1,0.1-0.1,0.1c0,0-0.1,0.1,0,0.1s0.1,0,0.1,0C27.8,6,27.9,6,28,5.9C28,6,28,5.9,28,5.9z"/>
	<path class="st13" d="M9,9.5c0.4,0.4,0.9,0.6,1.2,1.1c0.1,0,0-0.1,0-0.1c-0.2-0.3-0.3-0.5-0.5-0.8c0,0-0.1-0.1,0-0.1
		c0-0.1,0.1,0,0.1,0c0.2,0.1,0.5,0.2,0.7,0.4c0.1,0.1,0.2,0.1,0.3,0.1c0.2,0.1,0.4,0.1,0.6,0.3c0,0.1,0.2,0,0.3,0
		c0.2,0,0.4-0.1,0.7-0.1c0.2,0,0.5,0,0.7,0c0.3,0,0.6,0,0.8,0.2c0.1,0.1,0.1,0.1,0.1,0.2c-0.2,0-0.4,0.1-0.5,0
		c-0.1-0.1-0.2-0.2-0.3-0.2c-0.1,0-0.2,0-0.2,0c-0.2-0.1-0.3,0-0.5,0c-0.2,0-0.4,0.1-0.6,0.1c-0.1,0-0.3,0.1-0.4,0.1
		c-0.1,0-0.1,0.1-0.1,0.1c-0.1,0.1,0,0.2,0,0.3c-0.2,0.1-0.5,0.1-0.8,0.2c-0.1,0-0.2-0.1-0.2-0.2c-0.4-0.4-0.8-0.5-1.3-0.5
		c-0.4,0.1-0.8,0.2-1.1,0.4c-0.2,0.1-0.3,0.2-0.4,0.4c-0.1,0.2-0.1,0.6,0.1,0.7c0.1,0.1,0.3,0.2,0.4,0.2c-0.4,0.3-0.8,0.4-1.2,0.2
		c-0.2-0.1-0.4-0.2-0.6-0.3c0,0-0.1,0-0.1-0.1c0.1-0.4,0.2-0.8,0.3-1.2c0.1-0.2,0.2-0.4,0.4-0.5C7.5,10.2,8.2,9.9,9,9.5L9,9.5z"/>
	<path class="st13" d="M28.8,23.4c0.3,0,0.6,0.1,0.8,0.2c0.1,0.1,0.2,0.1,0.4,0.2c0.1,0,0.1,0.1,0.2,0.2c0,0.1,0.1,0.1,0.1,0.2
		c0,0,0.1,0.1,0.1,0.1c0,0.1,0,0.2,0.1,0.2c0.1,0.1,0.1,0.3,0.2,0.4l0,0l0,0.1c0.2,0.2,0.1,0.4,0.1,0.6c0,0.1,0,0.3,0,0.4
		c0,0.1,0,0.2,0,0.4c0.1,0.2,0.1,0.4,0.1,0.6c0,0.2,0.1,0.4,0.1,0.6v0.1c-0.1,0.1,0,0.3,0,0.4c0,0.1,0.1,0.2,0,0.3v0
		c0.1,0.1,0.1,0.2,0,0.3c-0.1,0.2,0.1,0.4,0,0.6c0.1,0.1,0,0.3,0.1,0.5c0,0,0,0.1,0,0.1c0,0,0,0.1,0,0.1c0,0,0,0.1,0,0.2
		c0,0,0,0.1,0,0.1c0.2,0.2,0.1,0.4,0.1,0.5c0,0,0,0.1,0,0.1c0,0.1-0.1,0.2-0.1,0.3c0,0.2-0.1,0.1-0.2,0.1c-0.1-0.4-0.1-0.7-0.2-1.1
		C30.4,28,29.7,25.7,28.8,23.4C28.9,23.4,28.8,23.4,28.8,23.4z"/>
	<path class="st10" d="M11,45.7c0,0.2-0.1,0.1-0.2,0.1c-0.6-0.1-1.1-0.4-1.4-1C8.9,44,8.8,43,9.1,41.9c0.1-0.3,0.3-0.5,0.6-0.7
		c0.2-0.1,0.3-0.1,0.5,0c0.4,0.3,0.5,0.7,0.6,1.1c0.1,1,0.2,2,0.3,3C11,45.6,11,45.7,11,45.7z"/>
	<path class="st3" d="M16.1,5.3c0.2-0.1,0.3-0.1,0.5-0.1c0.1,0,0.3-0.1,0.4,0h0c0.2-0.2,0.4,0.1,0.6,0.1c0.1,0,0.2,0,0.2,0
		c0.2,0,0.5,0,0.7,0.1c0.2,0,0.5,0,0.7,0.1c0.1,0,0.2,0,0.3,0c0.2,0.1,0.5,0,0.8,0c0.1,0,0.2,0,0.3,0.1c0,0,0,0,0.1,0
		c0.2-0.1,0.4-0.1,0.6-0.1c0.2,0,0.4,0,0.5,0.1c0.1,0,0.3,0,0.4,0.1c0.2,0,0.4,0,0.5,0.1c0.2,0,0.4,0.1,0.7,0.1
		c0.1,0,0.2,0.1,0.3,0.1c0.1,0,0.1,0.1,0.1,0c0.4,0.2,0.7,0.6,1.1,0.8c0.5,0.4,1,0.9,1.5,1.4l0,0.1c-0.1,0-0.2,0-0.3-0.1
		c-0.3-0.1-0.6-0.3-0.8-0.5c-0.5-0.3-1.1-0.7-1.7-0.8c-0.2-0.1-0.4-0.1-0.5-0.2c-0.1-0.1-0.3-0.1-0.5-0.1c-0.2-0.1-0.5-0.1-0.8-0.1
		c-0.3,0-0.6,0-0.9,0c-0.3,0-0.5,0-0.8,0c0,0-0.1,0-0.1,0.1c-0.4-0.2-0.9-0.3-1.3-0.4c-0.6-0.2-1.2-0.3-1.8-0.3
		c-0.2,0-0.5-0.1-0.6-0.2C16.3,5.5,16.1,5.4,16.1,5.3z"/>
	<path class="st13" d="M0,29.8c0-0.1,0.1-0.3,0.1-0.4v-0.1c0-0.1,0.1-0.2,0-0.3V29c0,0,0.1,0,0.1-0.1c0.1-0.2,0.1-0.5,0.2-0.7
		c0.1-0.4,0.3-0.7,0.5-1.1c0.2-0.3,0.4-0.6,0.6-0.9C1.7,26,2,25.8,2.2,25.6c0.2-0.1,0.4-0.2,0.6-0.2c-0.6,1.5-1.2,3-1.6,4.5
		c-0.2,0.8-0.4,1.5-0.6,2.3c0,0,0,0.1-0.1,0.2C0.2,31.5,0.1,30.7,0,29.8z"/>
	<path class="st13" d="M15.9,16c-0.6-0.1-1.3-0.2-1.9-0.2c0-0.1,0-0.1-0.1-0.1c-0.2-0.1-0.4-0.2-0.6-0.3c-0.3-0.1-0.6-0.2-0.9-0.4
		c-0.1,0-0.2-0.1,0-0.2c0,0,0-0.1,0-0.1s0-0.1,0,0c0.1,0.1,0.3,0,0.4,0.1c0.1,0.1,0.2,0.1,0.2,0.1c0,0,0.1,0,0.1,0
		c0,0,0-0.1-0.1-0.1c-0.2-0.1-0.3-0.2-0.5-0.2c-0.3-0.1-0.6-0.3-1-0.4c-0.1,0-0.2-0.1-0.1-0.2c0.7-0.2,1.3-0.4,2-0.4
		c0.4-0.1,0.9-0.1,1.4-0.1c0.1,0,0.2,0,0.3,0c0,0.1,0,0.2,0.1,0.3c0.1,0.2,0.2,0.5,0.3,0.8c0.1,0.2,0.1,0.5,0.3,0.7
		c0,0.2,0.1,0.4,0.1,0.7C15.9,15.9,15.9,16,15.9,16z M14.7,15.1c-0.1,0-0.1,0-0.1,0c-0.1,0-0.1,0.1-0.1,0.1c0.1,0.1,0.1,0.2,0.2,0.3
		c0.2,0.1,0.4,0.3,0.6,0.4c0.1,0,0.1,0,0.2,0c0,0,0.1-0.1,0-0.1c-0.1-0.1-0.1-0.3-0.1-0.4c0-0.1,0-0.1-0.1-0.1
		C15.1,15.1,14.9,15.1,14.7,15.1z M13.2,14.8L13.2,14.8L13.2,14.8L13.2,14.8L13.2,14.8z"/>
	<path class="st7" d="M29.9,21.8L29.9,21.8c0-0.1-0.1-0.2-0.2-0.3c0,0,0,0-0.1,0c0,0-0.1,0-0.1,0.1c0,0,0,0.1,0,0.1
		c-0.1,0-0.2,0-0.3,0c-0.1,0-0.1-0.1-0.1-0.2c0,0,0-0.1,0-0.2c0,0,0-0.1,0,0c-0.1,0.1-0.1,0-0.1-0.1c0,0,0-0.1-0.1,0
		c-0.1,0-0.2,0-0.2-0.1c0,0,0-0.1-0.1-0.1c0,0-0.1,0-0.1,0.1c-0.1,0.1-0.1,0.2-0.2,0.1c0,0-0.1,0-0.1,0.1c0,0.1-0.1,0.2-0.2,0.2
		c-0.3-0.6-0.6-1.3-1-1.9c-0.3-0.5-0.6-1-0.9-1.4c0.1,0,0.2,0,0.3,0.1c0.4,0.1,0.7,0.2,1.1,0.3c0.3,0,0.5,0,0.8-0.2
		c0,0,0.1-0.1,0.1-0.1c0.6,1.1,1.2,2.3,1.6,3.6c0,0,0,0.1,0,0.1c0,0,0,0,0,0c0,0,0,0,0.1,0c0,0.1,0.1,0.2,0.1,0.3c0,0-0.1,0.1-0.1,0
		c0-0.1-0.1-0.2-0.2-0.2C29.9,21.9,29.9,21.8,29.9,21.8C29.9,21.8,30,21.8,29.9,21.8L29.9,21.8C29.9,21.7,29.9,21.7,29.9,21.8z
		 M29.3,21.4L29.3,21.4L29.3,21.4L29.3,21.4L29.3,21.4z"/>
	<path class="st10" d="M22.7,39.4c0.1,0.5,0.1,1.1,0.2,1.6c0.1,0.9,0.2,1.9,0.2,2.8c0,0.1,0,0.2,0,0.3c-0.1,0-0.2-0.1-0.3,0
		c0,0-0.1,0-0.1,0c0-0.1-0.3-0.1-0.1-0.3v0c-0.1-0.2-0.1-0.3-0.1-0.5l0,0c-0.1-0.1-0.1-0.1,0-0.1c0,0,0,0,0-0.1c0,0,0-0.1,0-0.1
		c0-0.2-0.1-0.2-0.1-0.4c-0.1-0.1-0.2-0.2-0.2-0.3c0-0.1-0.1-0.1-0.1-0.1c-0.1,0-0.3,0-0.3-0.2c0,0,0-0.1-0.1,0
		c-0.1,0.1-0.3,0-0.4,0.1c0-0.3-0.1-0.7-0.1-1c-0.1-0.7-0.2-1.3-0.3-2c0.2-0.2,0.6-0.3,0.9-0.1c0,0,0.1,0.1,0.1,0.1
		c0.2,0.1,0.3,0.3,0.5,0.3C22.5,39.2,22.6,39.3,22.7,39.4z"/>
	<path class="st4" d="M15.9,35.5c0.1-0.1,0.2-0.1,0.2,0c0.2,0.3,0.4,0.4,0.7,0.6c0.1,0.1,0.3,0.2,0.4,0.3c0,0,0.1,0,0.1,0
		c0.1,0,0.2,0,0.3,0l0,0c0.1-0.1,0.3,0,0.5-0.1c0.2,0.9,0.4,1.8,0.5,2.7c0,0.1,0,0.2,0,0.3c-0.1,0-0.1,0-0.2,0
		c-0.3,0.1-0.6,0.2-1,0.2c-0.1,0-0.2-0.1-0.4,0c-0.1,0-0.2,0-0.2,0C16.8,38.2,16.4,36.9,15.9,35.5C15.9,35.6,15.9,35.5,15.9,35.5z"
		/>
	<path class="st4" d="M20,25.3c-0.3-0.5-0.7-0.9-1.1-1.3c0.1,0,0.1-0.1,0-0.1c-0.1-0.1-0.1-0.2-0.1-0.3c0-0.1,0-0.2-0.1-0.2
		c0,0,0,0,0-0.1l0,0c0.1,0,0.2,0,0.2,0.1c0,0,0.1,0.1,0.1,0.1c0-0.1,0-0.1,0-0.2c0,0-0.1-0.1,0-0.1c0,0,0.1,0,0.1,0s0,0.1,0.1,0.1
		c0.3,0.1,0.6,0.3,0.9,0.5c0.1,0,0.1,0.1,0.2,0.1c0-0.1,0-0.1-0.1-0.1c-0.1-0.1-0.2-0.1-0.2-0.2c0-0.1-0.1-0.1-0.2-0.1
		c-0.1,0-0.2-0.1-0.3-0.2c0.2,0,0.3-0.2,0.5,0c0.1,0.1,0.2,0.1,0.3,0.1c0,0,0.1,0,0.1-0.1s0-0.2,0.1-0.2c0.1,0,0.1-0.1,0.1-0.1
		c0,0,0.1,0.1,0.1,0.1c0.5,0.8,1,1.7,1.5,2.6c0.2,0.4,0.4,0.8,0.6,1.2c-0.1,0-0.2,0-0.3-0.1c0,0-0.1,0-0.1,0c-0.1,0-0.2,0-0.3-0.1
		c-0.1-0.2-0.2,0-0.2-0.1l0,0c0-0.1-0.1-0.1-0.2-0.1c0,0-0.1,0-0.1,0c0,0,0-0.1-0.1-0.1c0,0,0,0.1,0,0.1c0,0,0,0,0,0
		c0-0.1,0-0.2-0.1-0.1l-0.1,0c-0.1,0-0.1-0.2-0.3-0.1c-0.1-0.1-0.3-0.3-0.4-0.4C20.3,25.6,20.2,25.4,20,25.3z M20.5,23.5
		C20.5,23.4,20.5,23.4,20.5,23.5c-0.1-0.1-0.1,0-0.1,0C20.4,23.5,20.4,23.5,20.5,23.5C20.5,23.5,20.5,23.5,20.5,23.5z M20.5,24
		c0-0.1-0.1-0.1-0.1-0.1l0,0C20.4,24,20.4,24,20.5,24z M19,23.2c0,0.1,0,0.1,0.1,0.1C19.1,23.3,19.1,23.3,19,23.2z M19.3,23.5
		L19.3,23.5L19.3,23.5L19.3,23.5L19.3,23.5z"/>
	<path class="st3" d="M18.5,9C18.5,9,18.5,9.1,18.5,9c-0.3,0.1-0.5,0.2-0.7,0c0-0.1-0.1-0.1-0.1-0.1c-0.1-0.1-0.1,0-0.1,0.1
		c0,0.1-0.1,0.1-0.2,0.2c-0.2,0.1-0.5,0-0.7,0.1c-0.2,0.1-0.4,0.1-0.5,0.2c0,0-0.1,0-0.1,0.1c-0.1,0.1-0.2,0.1-0.3,0.1
		c0,0-0.1,0-0.1,0c-0.2,0.1-0.4,0.1-0.6,0c-0.2,0-0.4,0-0.5,0c-0.1,0-0.1,0-0.2-0.1c-0.1-0.2-0.4-0.2-0.6-0.2c-0.1,0-0.1,0-0.1,0.1
		c0.1,0.2,0.1,0.3,0.2,0.5c0,0,0.1,0.1,0,0.1c-0.1,0-0.1,0-0.1-0.1c-0.1-0.2-0.2-0.4-0.4-0.6c0,0,0-0.1-0.1,0c-0.1,0.1-0.2,0-0.3,0
		c-0.3-0.1-0.7,0-1,0c-0.2,0-0.3,0-0.5,0c-0.1,0-0.1-0.1-0.2,0c-0.2,0-0.4-0.1-0.7-0.2c-0.1,0-0.1-0.1-0.2-0.2
		c0.4-0.1,0.8-0.2,1.2-0.3c0.5-0.1,1.1-0.1,1.6-0.2c0.4,0,0.8-0.1,1.2-0.1c0.6,0,1.2,0.1,1.9,0.2c0.6,0.1,1.2,0.2,1.8,0.4
		C18.5,8.9,18.5,8.9,18.5,9z"/>
	<path class="st4" d="M21.3,41.8c0.1-0.1,0.3,0,0.4-0.1c0,0,0.1,0,0.1,0c0,0.2,0.2,0.2,0.3,0.2c0.1,0,0.1,0,0.1,0.1
		c0.1,0.1,0.2,0.2,0.2,0.3c0,0.1,0.1,0.2,0.1,0.4c0,0,0,0.1,0,0.1c0,0,0,0.1,0,0.1c-0.1,0-0.1,0.1,0,0.1l0,0c0,0.2,0,0.3,0.1,0.5v0
		c-0.2,0.2,0.1,0.2,0.1,0.3c0,0,0.1,0,0.1,0c0.1-0.1,0.2,0,0.3,0c0,0.6,0.1,1.2,0.1,1.8c0,0.1,0,0.1-0.1,0.1
		c-0.5,0.1-0.9,0.3-1.4,0.4c-0.1,0-0.1,0-0.1-0.1c-0.1-0.7-0.1-1.5-0.2-2.2c-0.1-0.7-0.1-1.3-0.2-2C21.3,42,21.3,41.9,21.3,41.8z"/>
	<path class="st3" d="M3.3,7.9c0.1,0.1,0.3,0,0.4,0c0.1-0.1,0.2-0.1,0.3,0l0.1,0c0.1-0.2,0.4-0.2,0.6-0.3c0.2-0.1,0.3-0.2,0.5-0.3
		C5.2,7.2,5.2,7.1,5.3,7c0-0.1,0.1-0.1,0.2-0.1C5.6,7,5.7,7.1,5.8,7.2C6,7.5,6.1,7.8,6.1,8.1C5.8,8.3,5.5,8.4,5.2,8.6
		c-1,0.7-2,1.4-2.9,2.2C2.2,11,2.1,11.1,2,11.2l0,0c0,0,0-0.1,0-0.1C2.3,10,2.7,9,3.3,7.9L3.3,7.9z"/>
	<path class="st14" d="M24.4,38.9c-0.1-0.5-0.2-0.9-0.3-1.4c0-0.3-0.1-0.5-0.1-0.8c0,0,0-0.2,0.1-0.2c0.3,0,0.4-0.2,0.4-0.4
		c0.2-0.5,0.3-1,0.5-1.5c0.1-0.2,0.2-0.5,0.5-0.5c0.1,0.4,0.2,0.8,0.3,1.2c0.1,0.6,0.2,1.3,0.3,1.9c0,0.2,0.1,0.4,0.1,0.6
		c0,0-0.1,0-0.1,0.1c-0.2,0.2-0.3,0.3-0.6,0.5c-0.3,0.1-0.4,0.3-0.3,0.5c-0.1-0.2-0.2-0.2-0.3-0.1C24.7,38.9,24.6,38.9,24.4,38.9z"
		/>
	<path class="st4" d="M14.6,40.2c-0.2,0-0.3,0-0.5-0.2c-0.2-0.2-0.4-0.3-0.6-0.4c-0.1-0.1-0.3-0.1-0.4-0.1c-0.1-0.1-0.2,0-0.3,0
		c-0.1-0.7-0.1-1.4-0.2-2.1c0-0.3,0-0.5,0.2-0.8c0.1-0.2,0.3-0.5,0.4-0.8c0,0,0-0.1,0.1,0c0.2,0.2,0.4,0.4,0.7,0.5
		c0.3,0.2,0.3,0.5,0.3,0.8C14.4,38.2,14.5,39.2,14.6,40.2L14.6,40.2z"/>
	<path class="st10" d="M6.9,39.3c-0.2,1.5,0,3.1,0,4.7c-0.8-0.3-1.4-0.8-1.7-1.7c-0.1-0.4-0.2-0.8-0.1-1.2c0.1,0,0.1,0,0.1-0.1
		c0.2-0.2,0.3-0.4,0.5-0.5c0.2-0.3,0.5-0.5,0.8-0.8C6.6,39.6,6.7,39.4,6.9,39.3z"/>
	<path class="st13" d="M20.9,15.7c-0.1,0.1-0.2,0.1-0.3,0c-0.4-0.1-0.7-0.2-1-0.2c-0.4-0.1-0.8-0.1-1.1-0.1c-0.1,0-0.2,0-0.3,0
		c0,0-0.1,0-0.1,0c-0.2,0-0.3,0-0.3,0.2c-0.1-0.1,0-0.2-0.1-0.3c0,0,0,0.1-0.1,0c-0.3-0.2-0.7-0.3-1-0.3c-0.2,0-0.2,0-0.1,0.2
		c-0.1,0-0.1-0.1-0.2,0c0,0-0.1,0-0.1,0c0-0.1,0-0.3-0.1-0.4c0,0,0-0.1,0-0.1c0.1-0.1,0-0.1,0-0.2c0-0.1-0.1-0.1-0.1-0.2
		c-0.1-0.2-0.2-0.4-0.3-0.6c0,0,0-0.1-0.1-0.1c0-0.1,0-0.1,0-0.1c0,0,0.1,0,0.1,0l0.1,0c0.9,0.1,1.8,0.3,2.6,0.6
		C19.2,14.5,20,15,20.9,15.7L20.9,15.7z"/>
	<path class="st2" d="M32.7,9.6c0.8,1.8,1.3,3.8,1.5,5.8c0,0-0.1-0.1-0.1-0.1c-0.8-1.5-1.7-3-2.6-4.4l0,0l0,0
		c0.2-0.3,0.5-0.6,0.7-0.8C32.3,9.8,32.5,9.6,32.7,9.6z"/>
	<path class="st15" d="M1.6,15.2c0.5-0.7,1.1-1.3,1.7-1.9c0.1-0.1,0.3-0.1,0.5-0.1c0.2,0.1,0.5,0.2,0.7,0.2c0,0,0.1,0,0.1,0.1
		c0,0.4,0,0.8-0.1,1.1c0,0.2-0.1,0.4-0.3,0.6c-0.1,0.1-0.2,0.3-0.3,0.4c-0.1,0-0.2-0.2-0.4,0l0,0c-0.4-0.2-0.8-0.2-1.2-0.4l0,0l0,0
		c0,0,0,0.1,0,0.1C2,15.3,1.8,15.3,1.6,15.2z"/>
	<path class="st6" d="M28.6,30.8c-0.1,0.1-0.1,0.2-0.1,0.3c-0.1,0.4-0.1,0.8-0.2,1.1c-0.1,0.2-0.1,0.3,0,0.5c0,0.1,0,0.1-0.1,0.2
		c-0.1,0.1-0.2,0.2-0.2,0.3c-0.1,0.3-0.2,0.5-0.4,0.7c-0.1,0.1-0.2,0.2-0.3,0.3c-0.1-0.2-0.1-0.5-0.1-0.8c0-0.1,0.1-0.1,0.1-0.2
		c0.1-0.2,0.2-0.3,0.3-0.5c0-0.1,0-0.2,0.2-0.3l0-0.1c0-0.1,0.1-0.2,0.2-0.2c0,0,0-0.1,0-0.1c-0.1-0.3-0.2-0.6-0.4-0.9
		c-0.3-0.5-0.5-1.1-0.8-1.6c-0.2-0.3-0.4-0.6-0.6-0.9c0,0,0-0.1,0-0.1c0.1-0.1,0.1-0.1,0.3,0l0,0c0.2,0,0.4,0.2,0.7,0.2
		c0.1,0.2,0.2,0.2,0.4,0.1h0c0.1,0.2,0.2,0,0.3,0c0.1,0,0.1,0,0.2-0.1C28.4,29.5,28.5,30.1,28.6,30.8L28.6,30.8z"/>
	<path class="st15" d="M32,32.8c0,0,0-0.1,0-0.2c0-0.2,0-0.3,0-0.5c0-0.2,0-0.3,0-0.5c0-0.2-0.1-0.5-0.1-0.7c0-0.1,0-0.3,0.1-0.4
		c0,0,0-0.1,0-0.2c-0.1-0.2,0-0.4,0-0.6c0-0.2,0.1-0.5,0-0.7v0c0-0.3,0-0.5,0-0.8c0-0.1,0-0.1,0.1-0.2c0.2,0.6,0.3,1.3,0.4,2
		c0.1,0.8,0.3,1.5,0.5,2.3c0.1,0.5,0.2,1,0.3,1.5c0.1,0.5,0.1,0.9,0.1,1.4c-0.1,0-0.1,0-0.2-0.1c0,0,0-0.1-0.1-0.1
		c-0.1-0.2-0.3-0.3-0.4-0.5c-0.1-0.2-0.3-0.5-0.4-0.7c-0.1-0.2-0.2-0.4-0.2-0.6c0-0.1,0-0.1-0.1-0.1C32,32.9,32,32.8,32,32.8z"/>
	<path class="st6" d="M17.3,22.5c-0.7-0.5-1.5-0.8-2.4-0.9c0.1-0.1,0.2-0.1,0.3-0.2c0,0,0.1-0.1,0.2-0.1c0.1,0,0.1-0.1,0-0.1
		c-0.1-0.1,0-0.1,0.1-0.2c0.1,0,0.2,0,0.1-0.2c0,0,0,0,0.1,0c0.1,0,0.1,0,0.2,0.1c0.1,0.1,0.2,0.1,0.3,0c0,0,0.1-0.1,0.1-0.1
		c0.2,0,0.4-0.2,0.6-0.2c0.1,0,0.3-0.1,0.4,0.1c0,0,0.1,0.1,0.2,0c0-0.1,0-0.1,0.1,0c0.2,0.1,0.3,0.1,0.5,0.2
		c0.3,0.1,0.6,0.3,0.9,0.3l0.1,0.1c0.1,0.1,0.3,0.3,0.5,0.3c0.1,0.1,0.2,0.2,0.4,0.4c0,0.1,0.1,0.1,0.1,0.2c0,0-0.1,0.1-0.1,0
		c-0.1-0.1-0.1-0.1-0.2-0.1c-0.1-0.1-0.3-0.2-0.4-0.2c-0.1,0-0.3-0.1-0.4-0.1c-0.1,0-0.1-0.2-0.2,0l0,0c-0.2,0-0.3,0.1-0.5,0.1h0
		c-0.1,0.1-0.2,0-0.3,0c-0.1,0-0.1-0.1-0.2,0s0.1,0.1,0.1,0.1c0,0,0.1,0,0.1,0.1c0,0,0,0-0.1,0c0,0-0.1,0-0.1-0.1l0,0
		C17.5,22,17.5,22,17.3,22c0,0.2,0.2,0.2,0.3,0.3c-0.1,0-0.3-0.1-0.2,0.1C17.4,22.5,17.4,22.4,17.3,22.5
		C17.3,22.4,17.3,22.5,17.3,22.5z"/>
	<path class="st6" d="M1.9,18.6c-0.2,0.3-0.4,0.5-0.6,0.8c-0.4,0.5-0.8,1-1.2,1.5C0,20.6,0.1,20.4,0,20.2c0-0.6,0-1.3,0.2-1.9
		c0.2-0.9,0.5-1.7,1-2.5c0.1,0,0.2,0,0.1,0.2c0,0.1,0,0.2-0.1,0.2c0,0.1,0,0.1,0,0.2c0.1,0.1,0.1,0.2,0,0.3c0,0,0,0.1,0,0.1
		c0.1,0.1,0.1,0.1,0.1,0.2c0,0,0,0.1,0,0.1c0.1,0.2,0.2,0.4,0.2,0.5c0,0.1,0,0.2,0,0.3c0,0.1,0.1,0.2,0.1,0.4
		C1.8,18.5,1.8,18.5,1.9,18.6z M1.1,16.7C1.2,16.7,1.2,16.7,1.1,16.7L1.1,16.7L1.1,16.7L1.1,16.7z"/>
	<path class="st14" d="M22.9,31.6c-0.2-0.7-0.5-1.5-0.8-2.2c0.1,0,0.2,0.1,0.2,0.1c0,0,0.1,0.1,0.1,0c0,0,0-0.1,0-0.1
		c-0.1-0.2-0.2-0.5-0.4-0.7l0-0.1c0.2-0.1,0-0.2,0-0.3c-0.1-0.1-0.1-0.2-0.1-0.3c0.2,0.2,0.3,0.4,0.5,0.6c0,0.1,0.1,0.1,0.1,0.1
		c0.1,0,0-0.1,0.1-0.1l0,0c0.2,0.4,0.4,0.9,0.5,1.4c0,0.1,0.1,0.1,0.1,0.2c0.2,0.1,0.5,0.2,0.7,0.4c0.2,0.1,0.4,0.2,0.6,0.2
		c0.2,0.6,0.4,1.2,0.5,1.9c-0.3,0-0.5-0.1-0.8-0.1c0,0-0.1,0-0.1,0c-0.2-0.1-0.4-0.2-0.6-0.3c-0.1,0-0.2-0.2-0.2-0.3
		c0-0.3,0-0.6,0-0.9c0-0.1,0-0.3-0.1-0.4c-0.1-0.1-0.2-0.3-0.2-0.4c0,0,0-0.1-0.1-0.1c0.1,0.2,0,0.3,0.1,0.5
		c0.1,0.3,0.1,0.5,0.2,0.8C23.2,31.6,23.1,31.6,22.9,31.6C23,31.6,23,31.6,22.9,31.6z"/>
	<path class="st5" d="M11.4,13.9c0,0.1,0.1,0.1,0.1,0.2c0.4,0.1,0.7,0.3,1,0.4c0.2,0.1,0.3,0.1,0.5,0.2c0,0,0.1,0,0.1,0.1
		c0,0.1-0.1,0-0.1,0c-0.1,0-0.2,0-0.2-0.1c-0.1-0.1-0.3,0-0.4-0.1c0,0-0.1,0,0,0s0,0.1,0,0.1c-0.2,0.1,0,0.2,0,0.2
		c0.3,0.2,0.6,0.3,0.9,0.4c0.2,0.1,0.4,0.2,0.6,0.3c0,0,0.1,0.1,0.1,0.1c-0.5,0-1,0.1-1.6,0.2c0-0.1-0.1-0.1-0.2-0.1
		c-0.3-0.1-0.7-0.3-1-0.3c0,0-0.1,0-0.1,0c-0.1,0-0.2-0.1-0.2-0.1c-0.2-0.1-0.4-0.1-0.6-0.2c-0.1-0.1-0.2-0.1-0.4-0.1
		c-0.1,0-0.2-0.2-0.3-0.1l0,0c-0.1-0.1-0.2-0.1-0.2-0.2C10,14.4,10.7,14.1,11.4,13.9z M12.2,14.6L12.2,14.6L12.2,14.6L12.2,14.6
		L12.2,14.6z"/>
	<path class="st8" d="M32.7,9.6c-0.2,0.1-0.4,0.2-0.5,0.3c-0.3,0.2-0.5,0.5-0.7,0.8l0,0c-0.3-0.4-0.5-0.8-0.8-1.1
		c-0.2-0.3-0.4-0.6-0.6-0.9c0.4-0.3,0.8-0.5,1.2-0.8c0.2-0.1,0.4-0.2,0.5-0.4C32,8.2,32.4,8.9,32.7,9.6z"/>
	<path class="st15" d="M19.4,21.4c-0.2,0-0.4-0.1-0.5-0.3l-0.1-0.1c-0.3-0.1-0.6-0.3-0.9-0.3c-0.2,0-0.3-0.1-0.5-0.2
		c0,0-0.1,0-0.1,0c0,0.1-0.1,0.1-0.2,0c-0.1-0.2-0.3-0.1-0.4-0.1c-0.2,0-0.4,0.2-0.6,0.2c0,0-0.1,0-0.1,0.1c-0.1,0.1-0.2,0.1-0.3,0
		c0,0-0.1,0-0.2-0.1c0,0-0.1,0-0.1,0c0,0.1-0.1,0.1-0.1,0.2c-0.1,0-0.2,0.1-0.1,0.2c0.1,0,0,0.1,0,0.1c-0.1,0-0.1,0.1-0.2,0.1
		c-0.1,0.1-0.2,0.1-0.3,0.2c-0.1,0-0.2,0-0.3,0c-0.2-0.2-0.5-0.3-0.7-0.4c-0.1,0-0.1-0.1-0.2-0.1c0.1-0.2,0.3-0.4,0.5-0.5
		c0.1,0,0.1-0.1,0.2-0.1c0.1-0.1,0.2,0,0.3,0c0-0.1-0.1-0.1-0.1-0.1c0,0-0.1,0-0.1,0c0,0,0,0,0.1,0c0.1,0,0.3-0.1,0.4-0.2
		s0.2-0.2,0.4-0.1h0c0.1-0.1,0.2-0.1,0.4-0.1c0.2,0,0.4-0.1,0.6,0l0,0c0.2-0.1,0.4,0.1,0.5,0.1c0.3,0.1,0.6,0.2,0.9,0.4
		c0.1,0.1,0.3,0.1,0.4,0.2c0,0,0.1,0.1,0.2,0l0,0c0,0.1,0.1,0.1,0.1,0.1C18.8,20.9,19.1,21.1,19.4,21.4z"/>
	<path class="st14" d="M32,32.8c0,0,0,0.1,0,0.1c0,0.1,0,0.1,0.1,0.1c0,0.2,0.2,0.4,0.2,0.6c0.1,0.3,0.3,0.5,0.4,0.7
		c0.1,0.2,0.3,0.3,0.4,0.5c0,0,0.1,0.1,0.1,0.1c0,0.1,0.1,0.1,0.2,0.1c0,0.4-0.1,0.8-0.2,1.2c0,0.1-0.1,0.2-0.1,0.3
		c-0.1,0-0.1,0-0.2-0.1c-0.1-0.1-0.2-0.2-0.3-0.4c-0.1-0.2-0.3-0.2-0.3-0.4c-0.1-0.2-0.3-0.3-0.4-0.5c-0.1-0.1-0.1-0.2-0.2-0.2
		c-0.1-0.6-0.2-1.3-0.3-1.9c-0.1-0.5-0.2-0.9-0.2-1.3c0,0,0-0.1,0-0.1c0.1,0,0.2,0.1,0.2-0.1c0-0.1,0.1-0.2,0.1-0.3
		c0.1,0,0.1,0.1,0.1,0.1c0,0.2,0,0.4,0.1,0.6c0,0.1,0.1,0.2,0,0.4c0,0,0,0.1,0,0.1c0,0.1,0.1,0.2,0.1,0.2
		C31.7,32.7,31.8,32.8,32,32.8z"/>
	<path class="st10" d="M17.3,22.5C17.3,22.5,17.3,22.4,17.3,22.5c0.1-0.1,0.1-0.1,0.1-0.1c-0.1-0.3,0.1-0.1,0.2-0.1
		c-0.1-0.1-0.3-0.1-0.3-0.3c0.1,0.1,0.1,0.1,0.2-0.1l0,0c0,0,0,0.1,0.1,0.1c0,0,0,0,0.1,0c0-0.1,0-0.1-0.1-0.1c0,0-0.2,0-0.1-0.1
		c0-0.1,0.1,0,0.2,0c0.1,0,0.2,0.1,0.3,0h0c0.2,0.1,0.3-0.1,0.5-0.1l0,0c0.1-0.2,0.1,0,0.2,0c0.1,0,0.3,0.1,0.4,0.1
		c0.2,0,0.3,0.1,0.4,0.2c0.1,0,0.2,0,0.2,0.1c0,0,0.1,0,0.1,0c0.2,0.3,0.4,0.5,0.5,0.8c-0.1,0-0.1,0.1-0.1,0.1
		c0,0.1,0.1,0.1,0.2,0.1l0,0c0,0.1,0,0.2-0.1,0.1c-0.1,0-0.1,0.1-0.1,0.2c0,0.1,0,0.1-0.1,0.1c-0.1,0-0.2,0-0.3-0.1
		c-0.2-0.1-0.3,0.1-0.5,0c0.1,0.1,0.2,0.2,0.3,0.2c0.1,0,0.1,0,0.2,0.1c0,0.1,0.2,0.1,0.2,0.2c0,0,0.1,0,0.1,0.1
		c-0.1,0-0.1,0-0.2-0.1c-0.3-0.2-0.5-0.4-0.9-0.5c-0.1,0-0.1-0.1-0.1-0.1c0,0-0.1-0.1-0.1,0c0,0,0,0.1,0,0.1s0.1,0.1,0,0.2
		c0-0.1-0.1-0.1-0.1-0.1c0-0.2-0.1-0.1-0.2-0.1l0,0c0,0,0,0,0,0.1c0.1,0,0.1,0.1,0.1,0.2c0,0.1,0,0.2,0.1,0.3c0,0,0.1,0.1,0,0.1
		c-0.5-0.5-1-0.9-1.5-1.3C17.4,22.6,17.4,22.6,17.3,22.5C17.3,22.6,17.3,22.6,17.3,22.5L17.3,22.5z"/>
	<path class="st15" d="M24.6,30.8c-0.2,0-0.4-0.1-0.6-0.2c-0.2-0.1-0.5-0.2-0.7-0.4c-0.1,0-0.1-0.1-0.1-0.2
		c-0.1-0.5-0.3-0.9-0.5-1.4l0,0c0,0,0,0.1-0.1,0.1c-0.1,0-0.1,0-0.1-0.1c-0.1-0.2-0.3-0.4-0.5-0.6c0,0.1,0,0.2,0.1,0.3
		c0.1,0.1,0.2,0.2,0,0.3l0,0.1c0.1,0.2,0.3,0.4,0.4,0.7c0,0,0.1,0.1,0,0.1c0,0-0.1,0-0.1,0c-0.1,0-0.1-0.1-0.2-0.1
		c-0.4-0.9-0.8-1.7-1.2-2.6c-0.3-0.5-0.6-1.1-0.9-1.6c0.2,0.1,0.3,0.3,0.5,0.4c0.1,0.1,0.3,0.3,0.4,0.4c0.2,0.2,0.4,0.5,0.5,0.7
		c0.1,0.1,0.1,0.2,0.2,0.3c0,0,0,0.1,0,0.1c0.2,0.3,0.4,0.6,0.6,0.9c0,0.1,0,0.2,0.2,0.1l0,0c0,0.2,0.2,0.2,0.2,0.2
		c0.2,0,0.3,0.1,0.5,0.3c0,0,0.1,0.1,0.2,0c0.1,0-0.1-0.1,0-0.1c0.1,0.2,0.2,0.4,0.4,0.3c0.1,0.2,0.2,0.4,0.3,0.6c0,0,0,0.1,0.1,0.1
		l0,0c0,0,0,0,0,0.1C24.3,30.1,24.5,30.4,24.6,30.8z M22,28.6L22,28.6L22,28.6L22,28.6L22,28.6z"/>
	<path class="st10" d="M8.8,36.7c0.2,0,0.2-0.2,0.4-0.3c0.2-0.1,0.4-0.3,0.6-0.4c0.3-0.2,0.6-0.4,0.8-0.6c0.1,0,0.1-0.2,0.2-0.2
		c-0.1,0.6-0.3,1.3-0.2,1.9c0,0.2-0.1,0.4-0.2,0.6c-0.2,0.3-0.5,0.7-0.8,1C8.8,37.8,8.7,37.6,8.8,36.7z"/>
	<path class="st3" d="M22.9,31.6c0,0,0.1,0,0.1,0c0.1,0,0.1,0,0.1-0.1c0-0.3-0.1-0.5-0.2-0.8c0-0.1,0-0.3-0.1-0.5
		c0.1,0,0.1,0.1,0.1,0.1c0.1,0.2,0.1,0.3,0.2,0.4c0.1,0.1,0.1,0.3,0.1,0.4c0,0.3,0,0.6,0,0.9c0,0.2,0,0.3,0.2,0.3
		c0.2,0.1,0.4,0.2,0.6,0.3c0,0,0.1,0,0.1,0c0,0.1,0,0.1,0.1,0.2c0.1,0.1,0.2,0.2,0.3,0.3c0.2,0.2,0.2,0.5,0.1,0.7
		c-0.1,0.2-0.2,0.4-0.3,0.6c-0.1,0.3-0.3,0.7-0.5,0.9c-0.1,0.1-0.1,0.2-0.2,0.2c-0.1-0.6-0.2-1.2-0.4-1.7
		C23.3,33,23.1,32.3,22.9,31.6L22.9,31.6z"/>
	<path class="st15" d="M1.9,18.6C1.8,18.6,1.8,18.5,1.9,18.6c-0.1-0.2-0.2-0.3-0.2-0.5c0-0.1,0-0.2,0-0.3c0-0.2-0.1-0.4-0.2-0.5
		c0,0-0.1-0.1,0-0.1c0-0.1,0-0.2-0.1-0.2c0,0,0-0.1,0-0.1c0-0.1,0-0.2,0-0.3c0-0.1,0-0.1,0-0.2c0-0.1,0.1-0.2,0.1-0.2
		c0-0.1,0-0.2-0.1-0.2c0-0.1,0.1-0.1,0.1-0.2c0.1,0,0.3,0.1,0.4,0.1c0.2,0,0.4,0.1,0.6,0.2c0,0,0.1,0,0.2,0c0.3,0.2,0.5,0.5,0.8,0.8
		c-0.3,0.5-0.7,1-1.1,1.4C2.1,18.3,2,18.4,1.9,18.6z"/>
	<path class="st15" d="M4.8,25.8c0.2,0,0.4,0.1,0.7,0.2c0.3,0,0.6,0.1,0.8,0.3c0.1,0,0.2,0,0.3,0c0.1,0,0.1,0,0.1,0.1
		c-0.3,0.5-0.5,1-0.8,1.5c-0.1,0-0.1-0.2-0.2-0.1c-0.1,0-0.2-0.1-0.4-0.1c-0.1,0-0.2-0.1-0.3-0.1c-0.1,0-0.2-0.1-0.3-0.1
		c-0.1,0-0.1,0,0-0.1c0,0,0,0,0-0.1l-0.1,0c-0.1,0.1-0.2,0.1-0.3,0c-0.1-0.1-0.2-0.2-0.3-0.2C4.3,26.7,4.5,26.2,4.8,25.8z"/>
	<path class="st3" d="M24.1,8.9c0.2,0,0.3,0,0.5,0.1c0.4,0.1,0.9,0.2,1.3,0.4c0.3,0.1,0.6,0.4,0.8,0.7c0.2,0.3,0.4,0.7,0.5,1.1
		c0.1,0.2,0.1,0.5,0.1,0.7c0,0.2,0,0.4,0,0.6c-0.6-0.9-1.4-1.7-2.1-2.4C24.9,9.6,24.5,9.2,24.1,8.9z"/>
	<path class="st4" d="M26.6,42c0,0.5,0.1,1,0.1,1.4c0,0.3-0.1,0.5-0.3,0.8c-0.3,0.4-0.6,0.7-0.9,1c0-0.2-0.1-0.5-0.1-0.7
		c-0.1-0.5-0.2-1-0.3-1.6c0.1,0,0.2-0.2,0.4-0.1l0,0c0.2-0.2,0.4-0.4,0.6-0.6c0,0,0.1-0.1,0.1-0.1c0.1,0,0.1,0,0.1-0.1
		c0-0.2,0.1-0.2,0.2-0.2C26.6,41.8,26.6,41.9,26.6,42L26.6,42L26.6,42z"/>
	<path class="st11" d="M26.4,28.8c0.2,0.3,0.4,0.6,0.6,0.9c0.3,0.5,0.5,1.1,0.8,1.6c0.1,0.3,0.2,0.6,0.4,0.9c0,0,0,0.1,0,0.1
		c-0.1,0-0.1,0.1-0.2,0.2l0,0.1c-0.2,0-0.2,0.2-0.2,0.3c0,0.2-0.2,0.4-0.3,0.5c0,0.1-0.1,0.1-0.1,0.2c-0.1-0.4-0.1-0.8-0.2-1.2
		c-0.2-1-0.4-2.1-0.6-3.1C26.4,29.1,26.4,28.9,26.4,28.8z"/>
	<path class="st7" d="M8,12.4c-0.1-0.1-0.3-0.2-0.4-0.2c-0.1-0.1-0.2-0.5-0.1-0.7c0.1-0.2,0.2-0.3,0.4-0.4c0.3-0.3,0.7-0.4,1.1-0.4
		c0.5-0.1,0.9,0.1,1.3,0.5c0.1,0.1,0.1,0.2,0.2,0.2c-0.6,0.2-1.2,0.4-1.8,0.7C8.5,12.2,8.2,12.3,8,12.4z"/>
	<path class="st5" d="M23.8,35.5c0.1,0,0.2-0.1,0.2-0.2c0.2-0.3,0.3-0.6,0.5-0.9c0.1-0.2,0.2-0.4,0.3-0.6c0.1-0.2,0.1-0.5-0.1-0.7
		c-0.1-0.1-0.2-0.2-0.3-0.3c0,0-0.1-0.1-0.1-0.2c0.3,0,0.5,0.1,0.8,0.1c0.1,0.5,0.3,1,0.4,1.6c-0.3,0-0.4,0.2-0.5,0.5
		c-0.2,0.5-0.3,1-0.5,1.5c-0.1,0.2-0.2,0.4-0.4,0.4c-0.1,0,0,0.1-0.1,0.2c-0.1-0.4-0.1-0.7-0.2-1.1C23.8,35.6,23.8,35.5,23.8,35.5z"
		/>
	<path class="st6" d="M26.4,39.4c0.1,0.6,0.1,1.2,0.2,1.8c-0.1,0-0.1,0-0.2,0c-0.1,0-0.3,0-0.4,0.2c-0.1,0.1-0.1,0.2-0.2,0
		c0,0-0.1,0-0.1,0c-0.1,0.2-0.2,0.3-0.4,0.3l0,0c-0.1,0.1-0.2,0.1-0.3,0.2c-0.1-0.4-0.1-0.8-0.2-1.3c0.1,0,0.1-0.1,0.2-0.2
		c0.1-0.1,0.1-0.1,0.2-0.2c0.2-0.1,0.3-0.3,0.5-0.4c0,0,0.1-0.1,0.1,0c0.1,0,0.1,0,0.1-0.1c0-0.1,0-0.2,0.1-0.2
		c0.1,0,0.1-0.1,0.2-0.1C26.1,39.4,26.2,39.4,26.4,39.4z"/>
	<path class="st6" d="M22.7,39.4c-0.1-0.1-0.2-0.1-0.3-0.2c-0.2-0.1-0.3-0.3-0.5-0.3c-0.1,0-0.1-0.1-0.1-0.1
		c-0.2-0.2-0.7-0.1-0.9,0.1c-0.1-0.6-0.2-1.2-0.4-1.8c0-0.1,0-0.2,0-0.2c0,0,0.1,0,0.1,0c0.2,0.1,0.4,0.2,0.6,0.3
		c0.2,0.1,0.4,0.2,0.6,0.3c0.1,0,0.2,0.2,0.4,0.2l0.1,0.1c0.1,0.2,0.3,0.3,0.4,0.6c0,0,0,0,0,0C22.6,38.7,22.7,39,22.7,39.4z"/>
	<path class="st15" d="M26.4,39.4c-0.1,0-0.2,0-0.3,0.1c0,0-0.1,0.1-0.2,0.1c-0.1,0-0.1,0.1-0.1,0.2c0,0.1,0,0.1-0.1,0.1
		c0,0-0.1,0-0.1,0c-0.2,0.1-0.3,0.3-0.5,0.4c-0.1,0.1-0.1,0.1-0.2,0.2c0,0.1-0.1,0.1-0.2,0.2c-0.1-0.6-0.2-1.2-0.3-1.8
		c0.1,0,0.3,0,0.4,0c0.1,0,0.2-0.1,0.3,0.1c0-0.3,0-0.4,0.3-0.5c0.2-0.1,0.4-0.3,0.6-0.5c0,0,0.1-0.1,0.1-0.1
		C26.2,38.4,26.3,38.9,26.4,39.4z"/>
	<path class="st3" d="M9.4,14.8c0.1,0.1,0.2,0.1,0.2,0.2h0c0.1-0.1,0.2,0.1,0.3,0.1c0.1,0,0.3,0.1,0.4,0.1c0.2,0.1,0.4,0.1,0.6,0.2
		c0.1,0,0.2,0.1,0.2,0.1c0,0,0.1,0,0.1,0c0.4,0,0.7,0.2,1,0.3c0.1,0,0.2,0,0.2,0.1c-0.3,0.1-0.6,0.2-0.9,0.3
		c-0.4,0.1-0.8,0.3-1.2,0.5c-0.4-0.1-0.5-0.5-0.6-0.8c0-0.1,0-0.2,0.1-0.3c0.1-0.1,0.2-0.1,0.4,0c0-0.1-0.3-0.4-0.3-0.4
		c-0.1,0-0.1,0-0.2,0.1c-0.3,0-0.6-0.1-0.9-0.2l0-0.1C8.9,15,9.1,14.9,9.4,14.8z M10.4,15.8L10.4,15.8
		C10.3,15.8,10.3,15.8,10.4,15.8L10.4,15.8L10.4,15.8z"/>
	<path class="st10" d="M17,39.6c0.1,0,0.2,0,0.2,0c0.1,0,0.2,0,0.4,0c0.3,0,0.7-0.1,1-0.2c0.1,0,0.1,0,0.2,0c0,0.2,0.1,0.5,0.1,0.7
		c-0.2,0-0.3,0.2-0.4,0.3c-0.4,0.3-0.7,0.7-1,1c0,0-0.1,0.1-0.2,0.1c0-0.4-0.1-0.8-0.1-1.2C17,40.1,17,39.9,17,39.6z"/>
	<path class="st10" d="M28.2,29c0,0.1-0.1,0.1-0.2,0.1c-0.1,0-0.2,0.2-0.3,0h0c-0.1,0-0.3,0-0.4-0.1c-0.2,0-0.4-0.2-0.7-0.2l0,0
		c-0.2-0.1-0.2-0.1-0.3,0c0-0.2,0.1-0.5,0.1-0.7c0.1-0.3,0.2-0.5,0.3-0.8c0.3,0.2,0.5,0.3,0.8,0.5c0.2,0.1,0.3,0.3,0.4,0.5
		C28,28.4,28.1,28.7,28.2,29z"/>
	<path class="st3" d="M7.7,7.3C7.6,7.1,7.8,6.8,7.9,6.8c0.2-0.1,0.4-0.2,0.6-0.3c0.1-0.1,0.3-0.1,0.4-0.2c0.4-0.2,0.9-0.4,1.4-0.5
		c0.3-0.1,0.5-0.1,0.8-0.2c0.2-0.1,0.5-0.1,0.7,0c0.1,0,0.3,0.1,0.3,0.3c-0.7,0.1-1.3,0.3-2,0.5C9.4,6.6,8.8,6.8,8.2,7.1
		C8,7.2,7.8,7.2,7.7,7.3z"/>
	<path class="st3" d="M31.7,34.9c0.1,0.1,0.1,0.2,0.2,0.2c0.1,0.2,0.3,0.3,0.4,0.5c0.1,0.2,0.2,0.2,0.3,0.4c0.1,0.1,0.2,0.2,0.3,0.4
		c0,0.1,0.1,0.1,0.2,0.1c-0.1,0.3-0.2,0.5-0.3,0.7c-0.2,0.3-0.4,0.7-0.6,1.1c0-0.2-0.1-0.3-0.1-0.5c-0.1-0.8-0.2-1.5-0.3-2.2
		C31.7,35.4,31.7,35.1,31.7,34.9z"/>
	<path class="st4" d="M29.4,42.1c-0.3-0.1-0.3-0.4-0.4-0.6c0-0.2,0.1-0.5,0.1-0.7c0.2-0.6,0.3-1.2,0.5-1.8c0-0.1,0.1-0.2,0.1-0.3
		c0-0.1,0.1-0.1,0.1-0.1c0,0.7,0.1,1.3,0.1,2c0,0.3-0.1,0.6-0.2,0.9C29.7,41.7,29.6,41.9,29.4,42.1z"/>
	<path class="st14" d="M12.9,20.7c-0.2,0-0.4-0.1-0.6,0c-0.2,0.1-0.5,0.1-0.7,0.1c-0.1,0-0.1,0.2-0.3,0.2c-0.1,0-0.1,0.1-0.2,0.1
		c-0.1,0-0.1,0.1-0.1,0.2c-0.2,0-0.2-0.1-0.4-0.1c-0.3-0.1-0.6-0.3-0.9-0.4c-0.1,0-0.3-0.1-0.4-0.2c0.1-0.1,0.2-0.2,0.3-0.2
		c0.1,0,0.3,0,0.4,0c0.2,0,0.4,0,0.6,0s0.4,0,0.5,0c0.1,0,0.3,0,0.4,0c0.2-0.1,0.4,0,0.6,0C12.4,20.4,12.6,20.6,12.9,20.7
		C12.9,20.7,12.9,20.7,12.9,20.7z"/>
	<path class="st5" d="M2.8,25.4c-0.2,0.1-0.5,0.1-0.6,0.2C2,25.8,1.7,26,1.5,26.3c-0.2,0.3-0.4,0.6-0.6,0.9
		c-0.2,0.3-0.4,0.7-0.5,1.1c-0.1,0.2-0.1,0.5-0.2,0.7c0,0,0,0.1-0.1,0.1c0-0.2,0-0.3,0.1-0.5c0.1-0.5,0.2-1,0.5-1.4
		c0.2-0.3,0.4-0.7,0.6-1c0.1-0.2,0.2-0.3,0.4-0.5c0.1-0.2,0.3-0.3,0.4-0.4c0,0,0.1,0,0.1-0.1c0.1-0.1,0.2-0.2,0.3-0.3
		c0.1,0,0.1-0.1,0.2-0.2c0.2-0.1,0.4-0.1,0.5-0.1C3.1,24.9,2.9,25.1,2.8,25.4z"/>
	<path class="st6" d="M4.1,27.1c0.1,0,0.2,0.1,0.3,0.2c0.1,0,0.2,0.1,0.3,0l0.1,0c0,0,0,0,0,0.1c0,0.1,0,0.1,0,0.1
		c0.1,0,0.2,0,0.3,0.1c0.1,0,0.2,0.1,0.3,0.1c0.1,0,0.2,0.1,0.4,0.1c0.1,0,0.1,0.1,0.2,0.1c-0.1,0.3-0.3,0.6-0.4,0.9
		c-0.1-0.1-0.1-0.1-0.2-0.1c-0.1,0-0.1-0.1-0.2-0.1c-0.1-0.1-0.2-0.1-0.3-0.1c-0.1,0-0.2-0.1-0.3-0.1c-0.2,0-0.4-0.1-0.6-0.2
		c-0.1,0-0.2,0-0.2,0C3.8,27.7,4,27.4,4.1,27.1z"/>
	<path class="st6" d="M16,31.9c-0.2,0-0.5,0-0.7-0.1c-0.2-0.1-0.5-0.1-0.7-0.2c-0.1,0-0.3-0.1-0.4-0.2c-0.2-0.1-0.3-0.1-0.5-0.2
		c-0.2-0.1-0.4-0.3-0.6-0.4c0,0-0.1-0.1-0.1-0.1C14.2,30.5,15.2,30.9,16,31.9z"/>
	<path class="st10" d="M25,42c0.1-0.1,0.2-0.1,0.3-0.2l0,0c0.2,0,0.3-0.1,0.4-0.3c0,0,0.1-0.1,0.1,0c0.1,0.1,0.1,0,0.2,0
		c0.1-0.1,0.2-0.2,0.4-0.2c0.1,0,0.1-0.1,0.2,0c0,0.2,0,0.4,0,0.6c-0.1,0-0.2,0-0.2,0.2c0,0.1,0,0.1-0.1,0.1c0,0-0.1,0-0.1,0.1
		c-0.2,0.2-0.5,0.4-0.6,0.6l0,0c-0.1-0.1-0.2,0.1-0.4,0.1C25.1,42.6,25,42.3,25,42z"/>
	<path class="st11" d="M3.2,16.7c-0.3-0.2-0.5-0.6-0.8-0.8c0,0-0.1,0-0.2,0c-0.2-0.1-0.4-0.2-0.6-0.2c-0.1,0-0.2-0.1-0.4-0.1
		c0.1-0.2,0.2-0.3,0.3-0.5c0.2,0.1,0.4,0.1,0.6,0.2c0,0,0,0,0-0.1l0,0c0.4,0.2,0.8,0.3,1.2,0.4l0,0c0.1-0.2,0.2,0,0.4,0
		c-0.1,0.2-0.2,0.3-0.3,0.4C3.5,16.4,3.4,16.5,3.2,16.7z"/>
	<path class="st13" d="M9.4,20.6c0.1,0.1,0.2,0.2,0.4,0.2c0.3,0.1,0.6,0.3,0.9,0.4c0,0.1-0.1,0.1-0.1,0.1c-0.3,0-0.5,0.1-0.8,0.1
		c-0.2,0-0.4,0-0.7,0.1c-0.1,0-0.2,0-0.3,0c-0.3,0-0.6,0.1-0.9,0.2C8.3,21.3,8.8,20.9,9.4,20.6z"/>
	<path class="st7" d="M19.4,11.7c-0.5-0.2-0.9-0.4-1.4-0.5c-0.3-0.1-0.5-0.1-0.8-0.2c0-0.1-0.1-0.2,0-0.2c0.1-0.1,0.1-0.1,0.2-0.1
		c0.1,0,0.2,0.1,0.3,0c0.2-0.1,0.4,0.1,0.6,0c0.1,0,0.2,0,0.3,0.1c0,0,0,0.1,0.1,0.1c0.1-0.1,0.3,0,0.4,0.1c0,0,0.1,0,0.1,0
		c0.2-0.1,0.3,0.1,0.5,0.1c0.1,0-0.1,0.1,0,0.2c0,0,0,0.1,0,0.1c0,0,0,0.1,0,0.1C19.7,11.5,19.6,11.6,19.4,11.7
		C19.5,11.6,19.4,11.6,19.4,11.7z"/>
	<path class="st14" d="M20.4,22.8c-0.2-0.3-0.4-0.5-0.5-0.8c0-0.1-0.1-0.1-0.1-0.2c0.4,0.4,0.8,0.9,1.2,1.4c0.7,1,1.3,2,1.8,3.1
		c0.1,0.1,0.1,0.3,0.2,0.4c-0.2,0-0.2-0.2-0.3-0.4c-0.1-0.2-0.2-0.4-0.4-0.6c0,0,0-0.1-0.1,0c-0.5-0.9-1-1.7-1.5-2.6
		c0,0-0.1-0.1-0.1-0.1l0,0C20.5,22.9,20.5,22.9,20.4,22.8z"/>
	<path class="st5" d="M12.9,20.7C12.9,20.7,12.9,20.7,12.9,20.7c-0.3-0.1-0.5-0.3-0.7-0.4c-0.2,0-0.4-0.1-0.6,0c-0.1,0-0.3,0-0.4,0
		c-0.2,0-0.4,0-0.5,0c-0.2,0-0.4,0-0.6,0c-0.1,0-0.2,0-0.4,0c0.4-0.3,0.8-0.5,1.3-0.6c0.1,0,0.1-0.1,0.2-0.1c0.3,0.2,0.7,0.4,1,0.6
		C12.4,20.4,12.7,20.5,12.9,20.7c0.1-0.1,0.2,0,0.2,0c0,0,0,0.1,0,0.1C13.1,20.8,13,20.8,12.9,20.7z"/>
	<path class="st13" d="M19.4,11.7C19.4,11.6,19.5,11.6,19.4,11.7c0.2-0.1,0.3-0.2,0.1-0.3c0,0,0-0.1,0-0.1c0,0,0.1-0.1,0-0.1
		c0-0.1,0.1-0.2,0-0.2c-0.2,0-0.3-0.2-0.5-0.1c0,0-0.1,0-0.1,0c-0.1-0.1-0.3-0.1-0.4-0.1c0,0-0.1,0-0.1-0.1
		c-0.1-0.1-0.2-0.2-0.3-0.1c-0.2,0-0.4-0.1-0.6,0c-0.1,0-0.2,0-0.3,0c-0.1,0-0.1,0-0.2,0.1c-0.1,0.1,0,0.1,0,0.2
		c-0.2-0.1-0.5-0.1-0.7-0.1c0,0,0-0.1,0-0.1c0-0.1,0-0.1,0-0.2c0.1-0.1,0.1-0.1,0.2-0.1c0.1,0,0.1,0,0.1,0.1c0,0.1,0.1,0.1,0.1,0
		c0.1-0.1,0.2-0.1,0.3-0.1c0.4,0.1,0.8,0.1,1.2,0.1c0.3,0.1,0.6,0.1,0.9,0.2c0.1,0,0.1,0,0.2,0.1c0.1,0.1,0.2,0,0.1-0.1
		c0,0,0-0.1,0-0.1c0,0,0,0.1,0.1,0.1c0.1,0.4,0.2,0.8,0.3,1.1c0,0.1,0,0.1,0,0.2C19.8,11.9,19.6,11.8,19.4,11.7z"/>
	<path class="st6" d="M6.9,39.3c-0.2,0.1-0.3,0.2-0.5,0.4c-0.3,0.2-0.5,0.5-0.8,0.8c-0.2,0.2-0.3,0.3-0.5,0.5c0,0-0.1,0.1-0.1,0.1
		c0-0.2,0-0.4,0-0.7c0.1-0.1,0.2-0.2,0.3-0.3l0,0c0,0.1-0.1,0.1-0.1,0.2c0.1-0.1,0.2-0.2,0.3-0.3C6,39.7,6.4,39.3,6.8,39
		c0,0,0.1,0,0.1-0.1C6.9,39,6.9,39.2,6.9,39.3z"/>
	<path class="st13" d="M12.2,20.2c-0.4-0.2-0.7-0.3-1-0.6c0.4-0.2,0.9-0.3,1.3-0.4c0,0.1,0.1,0.1,0.1,0.1c0,0.2-0.1,0.3-0.1,0.5
		c0,0.1-0.1,0.1-0.1,0.2C12.3,20.1,12.2,20.1,12.2,20.2z"/>
	<path class="st9" d="M24.5,24c0.1,0,0.2,0,0.2,0.1c0.1,0.1,0.2,0.1,0.3,0.1c0.2,0,0.4,0.1,0.5-0.1c0,0,0.1,0,0.1,0
		c0.1,0,0.1,0,0.1-0.1c0-0.1,0.1-0.1,0.1,0c0.1,0.1,0.2,0,0.2,0c0,0.3-0.1,0.6-0.1,0.9c0,0.1,0,0.1-0.1,0.1
		c-0.4-0.2-0.7-0.4-1.1-0.6C24.6,24.3,24.6,24.2,24.5,24z M25.9,24.2L25.9,24.2L25.9,24.2L25.9,24.2L25.9,24.2z"/>
	<path class="st7" d="M11.3,11.1c-0.1-0.1-0.1-0.2,0-0.3c0,0,0-0.1,0.1-0.1c0.1,0,0.3-0.1,0.4-0.1c0.2,0,0.4-0.1,0.6-0.1
		c0.2,0,0.3-0.1,0.5,0c0.1,0,0.2,0,0.2,0c0.1,0,0.3,0,0.3,0.2c-0.2,0-0.4,0.1-0.5,0.1C12.4,10.9,11.9,11,11.3,11.1L11.3,11.1z"/>
	<path class="st15" d="M12.8,21.6c-0.1-0.1-0.1-0.2-0.1-0.4c0-0.1,0.1-0.2,0.2-0.2c0.3,0,0.6,0,0.8,0.2c0,0,0.1,0.1,0.1,0
		c0.2,0.1,0.3,0.2,0.5,0.3C13.8,21.5,13.3,21.5,12.8,21.6z"/>
	<path class="st5" d="M15.5,13.6c0.1,0,0.1,0.1,0.1,0.1c0.1,0.2,0.2,0.4,0.3,0.6c0,0.1,0,0.1,0.1,0.2c0,0,0.1,0.1,0,0.2
		c0,0,0,0.1,0,0.1c0.1,0.1,0.1,0.3,0.1,0.4c-0.1,0.1-0.2,0-0.3,0c-0.2-0.2-0.2-0.4-0.3-0.7c-0.1-0.3-0.2-0.5-0.3-0.8
		c0-0.1,0-0.2-0.1-0.3c0,0,0.1,0,0.1,0C15.2,13.5,15.3,13.6,15.5,13.6c0,0.3,0.1,0.5,0.2,0.7c0.1,0.1,0.1,0.2,0.2,0.3
		c0-0.1,0-0.1,0-0.1C15.7,14.2,15.6,13.9,15.5,13.6z"/>
	<path class="st14" d="M15.8,15.2c0.1,0,0.2,0.1,0.3,0c0,0,0.1,0,0.1,0c0.1,0.3,0.2,0.6,0.3,0.9c-0.2,0-0.4-0.1-0.6-0.1
		c0.1-0.1,0-0.1,0-0.2C15.8,15.6,15.8,15.4,15.8,15.2z"/>
	<path class="st5" d="M22.2,25.7C22.2,25.6,22.2,25.7,22.2,25.7c0.2,0.2,0.3,0.4,0.5,0.6c0.1,0.1,0.2,0.3,0.3,0.4
		c0.2,0.4,0.4,0.7,0.5,1.1c-0.1,0-0.1-0.1-0.2-0.1c-0.1-0.1-0.1-0.2-0.2-0.2c-0.1-0.2-0.2-0.4-0.3-0.6
		C22.6,26.5,22.4,26.1,22.2,25.7z"/>
	<path class="st14" d="M12.6,19.4c0,0-0.1-0.1-0.1-0.1c0.1,0,0.2,0,0.3-0.1c0,0.1,0.1,0.1,0.2,0.1c0.1,0.1,0.3,0.2,0.4,0.3
		c0.1,0.1,0.2,0.2,0.3,0.2c0,0,0.1,0.1,0,0.1c-0.1,0.1-0.1,0.1-0.2,0.1c-0.2-0.1-0.3-0.2-0.4-0.3C12.9,19.6,12.7,19.5,12.6,19.4z"/>
	<path class="st3" d="M23.1,27.4c0.1,0,0.1,0.1,0.2,0.2c0,0.1,0.1,0.2,0.2,0.1c0.3,0.6,0.5,1.2,0.7,1.9c-0.1,0-0.1-0.1-0.1-0.1
		c-0.1-0.2-0.2-0.4-0.3-0.6c-0.1-0.2-0.2-0.4-0.2-0.5c-0.1-0.2-0.2-0.4-0.3-0.6c0-0.1,0-0.1-0.1-0.2l0,0
		C23.1,27.5,23.1,27.5,23.1,27.4z"/>
	<path class="st13" d="M14.3,10.7c0-0.1-0.1-0.2-0.1-0.3c0-0.1,0-0.1,0.1-0.1c0.2,0,0.4,0,0.6,0.2c0.1,0.1,0.2,0.1,0.3,0.1
		c0,0,0.1,0,0.1,0.1C15,10.7,14.7,10.7,14.3,10.7z"/>
	<path class="st9" d="M16.5,16.2c-0.1-0.3-0.2-0.6-0.3-0.9c0.1,0,0.1,0,0.2,0c0.2,0.3,0.3,0.7,0.5,1C16.7,16.2,16.6,16.2,16.5,16.2z
		"/>
	<path class="st3" d="M15.5,13.6c0.1,0.3,0.2,0.6,0.3,0.9c0,0,0.1,0.1,0,0.1c-0.1-0.1-0.1-0.2-0.2-0.3c-0.1-0.2-0.1-0.4-0.2-0.6
		c0-0.1-0.2-0.1-0.1-0.2c0.1,0,0.1,0,0.2,0C15.4,13.5,15.4,13.6,15.5,13.6z"/>
	<path class="st14" d="M14.3,21.5c-0.2-0.1-0.3-0.2-0.5-0.3c-0.1-0.1-0.2-0.1-0.4-0.2c0,0-0.1,0-0.1-0.1c0-0.1,0.1,0,0.1,0
		s0.1,0,0.1,0c0,0.1,0.1,0.1,0.2,0.1c0.2,0.1,0.5,0.3,0.7,0.4C14.5,21.5,14.4,21.5,14.3,21.5z"/>
	<path class="st9" d="M18.5,20.7c-0.1,0-0.1,0-0.1-0.1C18.4,20.6,18.5,20.6,18.5,20.7z"/>
	<path class="st9" d="M30.2,21.8C30.2,21.8,30.1,21.8,30.2,21.8C30.1,21.7,30.1,21.7,30.2,21.8C30.2,21.7,30.2,21.8,30.2,21.8z"/>
	<path class="st6" d="M17.3,22.6C17.3,22.5,17.3,22.5,17.3,22.6C17.4,22.5,17.4,22.6,17.3,22.6C17.4,22.6,17.4,22.6,17.3,22.6z"/>
	<path class="st3" d="M15.6,13.5L15.6,13.5L15.6,13.5z"/>
	<path class="st3" d="M24.2,29.7C24.2,29.7,24.2,29.7,24.2,29.7C24.2,29.6,24.2,29.7,24.2,29.7z"/>
	<path class="st11" d="M20,29.2L20,29.2L20,29.2z"/>
	<polygon class="st3" points="2,11.2 1.9,11.2 1.9,11.2 	"/>
	<polygon class="st10" points="26.6,42 26.6,41.9 26.6,41.9 	"/>
	<path class="st5" d="M0.1,29c0.1,0.1,0,0.2,0,0.3C0,29.2,0.1,29.1,0.1,29z"/>
	<path class="st13" d="M19.5,10.1c0,0.1,0.1,0.2,0.1,0.3C19.5,10.3,19.5,10.2,19.5,10.1z"/>
	<path class="st14" d="M13.1,20.8C13.1,20.8,13.1,20.8,13.1,20.8c0.1,0,0.2,0,0.3,0.1C13.3,20.9,13.2,20.9,13.1,20.8z"/>
	<path class="st6" d="M5.4,40.1C5.4,40.1,5.4,40,5.4,40.1L5.4,40.1C5.4,40.1,5.4,40.1,5.4,40.1L5.4,40.1z"/>
	<path class="st1" d="M28,5.9C28,6,28,6,28,5.9C27.9,6,27.8,6,27.8,6.1c0,0-0.1,0.1-0.1,0c0-0.1,0-0.1,0-0.1c0.1,0,0.1,0,0.1-0.1
		c0,0,0-0.1,0.1,0C28,5.8,28,5.8,28,5.9z"/>
	<path class="st7" d="M14.7,15.1c0.2,0,0.4,0.1,0.6,0c0.1,0,0.1,0,0.1,0.1c0,0.1,0,0.3,0.1,0.4c0,0.1,0,0.1,0,0.1
		c-0.1,0.1-0.1,0.1-0.2,0c-0.2-0.1-0.4-0.2-0.6-0.4c-0.1-0.1-0.1-0.2-0.2-0.3c0-0.1,0-0.1,0.1-0.1C14.6,15,14.6,15.1,14.7,15.1z"/>
	<polygon class="st5" points="13.2,14.8 13.2,14.8 13.2,14.8 13.2,14.8 	"/>
	<path class="st9" d="M29.9,21.8C29.9,21.7,29.9,21.7,29.9,21.8L29.9,21.8C30,21.8,29.9,21.8,29.9,21.8L29.9,21.8z"/>
	<polygon class="st9" points="29.3,21.4 29.4,21.4 29.3,21.4 29.3,21.4 	"/>
	<path class="st10" d="M23.1,27.4c0,0,0,0.1,0,0.1c-0.1,0-0.2,0.1-0.3,0l-0.1,0c-0.1,0-0.1,0-0.1-0.1c0-0.1-0.1-0.1-0.1-0.1
		c-0.2,0.1-0.3,0-0.4-0.1c-0.1-0.1-0.2-0.2-0.4-0.1c-0.1-0.1-0.1-0.2-0.2-0.3c-0.2-0.2-0.4-0.4-0.5-0.7c0.1-0.1,0.2,0.1,0.3,0.1
		l0.1,0c0.1,0,0.1,0,0.1,0.1c0,0,0,0,0,0c0,0,0-0.1,0-0.1c0.1,0,0.1,0,0.1,0.1c0,0,0.1,0,0.1,0c0.1,0,0.2,0,0.2,0.1l0,0
		c0,0.1,0.2-0.1,0.2,0.1c0,0.1,0.2,0.1,0.3,0.1c0,0,0.1,0,0.1,0c0.1,0.1,0.2,0.1,0.3,0.1C22.9,27.1,23,27.3,23.1,27.4z M21.7,26.6
		c-0.1,0-0.1,0-0.1,0C21.6,26.6,21.7,26.6,21.7,26.6z"/>
	<path class="st10" d="M20.5,23.5C20.5,23.5,20.5,23.5,20.5,23.5c-0.1,0.1-0.1,0-0.1,0C20.4,23.4,20.4,23.4,20.5,23.5
		C20.5,23.4,20.5,23.4,20.5,23.5z"/>
	<path class="st10" d="M20.5,24c-0.1,0-0.1,0-0.2-0.1l0,0C20.4,23.9,20.5,23.9,20.5,24z"/>
	<path class="st10" d="M19,23.2c0.1,0,0.1,0,0.1,0.1C19,23.4,19,23.3,19,23.2z"/>
	<polygon class="st10" points="19.3,23.5 19.3,23.5 19.3,23.5 19.3,23.5 	"/>
	<path class="st11" d="M2.3,15.3L2.3,15.3L2.3,15.3z"/>
	<path class="st9" d="M32.1,33C32,33,32,33,32,32.9C32.1,32.9,32.1,33,32.1,33z"/>
	<path class="st15" d="M1.1,16.7L1.1,16.7L1.1,16.7L1.1,16.7C1.2,16.7,1.2,16.7,1.1,16.7z"/>
	<polygon class="st13" points="12.2,14.6 12.2,14.6 12.2,14.6 12.2,14.6 	"/>
	<path class="st4" d="M20.4,22.8c0,0.1,0.1,0.1,0.1,0.2c-0.1,0-0.2,0-0.2-0.1C20.3,22.9,20.3,22.8,20.4,22.8z"/>
	<path class="st6" d="M21.6,27.1c0.1-0.1,0.2,0.1,0.4,0.1c0.1,0.1,0.2,0.2,0.4,0.1c0,0,0.1,0,0.1,0.1c0,0.1,0,0.1,0.1,0.1l0.1,0
		c0.1,0.2,0.2,0,0.3,0l0,0c0,0-0.1,0.1,0,0.1c0.1,0,0.1,0.1,0.1,0.1c0.1,0.2,0.2,0.4,0.3,0.6c0.1,0.2,0.1,0.4,0.2,0.5
		c-0.2,0-0.3-0.1-0.4-0.3c-0.1,0.1,0,0.1,0,0.1c0,0-0.1,0-0.2,0c-0.1-0.1-0.3-0.2-0.5-0.3c-0.1,0-0.2,0-0.2-0.2l0,0
		c-0.1,0.1-0.1,0-0.2-0.1c-0.2-0.3-0.4-0.6-0.6-0.9C21.7,27.2,21.6,27.1,21.6,27.1z"/>
	<polygon class="st14" points="22,28.6 22,28.6 22,28.6 22,28.6 	"/>
	<path class="st1" d="M10.4,15.8L10.4,15.8L10.4,15.8C10.3,15.8,10.3,15.8,10.4,15.8L10.4,15.8z"/>
	<polygon class="st7" points="25.9,24.2 25.9,24.2 25.9,24.2 25.9,24.2 	"/>
	<path class="st10" d="M23.2,27.8c-0.1,0-0.1-0.1-0.1-0.1c0,0,0-0.1,0-0.1C23.2,27.6,23.2,27.7,23.2,27.8z"/>
	<path class="st4" d="M21.7,26.6c0,0-0.1,0-0.1,0C21.6,26.5,21.7,26.5,21.7,26.6z"/>
</g>
</svg>
